ArgentumSans-Light.ufo
<glyph name="exclam" format="2">
  <advance width="384"/>
  <unicode hex="0021"/>
  <outline>
    <component base="period" xOffset="-78"/>
    <contour>
      <point x="172" y="1040" type="line"/>
      <point x="172" y="376" type="line"/>
      <point x="212" y="376" type="line"/>
      <point x="212" y="1040" type="line"/>
      <point x="212" y="1400" type="line"/>
      <point x="172" y="1400" type="line"/>
    </contour>
  </outline>
</glyph>
<glyph name="numbersign" format="2">
  <advance width="708"/>
  <unicode hex="0023"/>
  <outline>
    <contour>
      <point x="47" y="208" type="line"/>
      <point x="628" y="208" type="line"/>
      <point x="627" y="228" type="line"/>
      <point x="46" y="228" type="line"/>
    </contour>
    <contour>
      <point x="79" y="469" type="line"/>
      <point x="660" y="469" type="line"/>
      <point x="659" y="489" type="line"/>
      <point x="78" y="489" type="line"/>
    </contour>
    <contour>
      <point x="170" y="0" type="line"/>
      <point x="190" y="0" type="line"/>
      <point x="276" y="700" type="line"/>
      <point x="256" y="700" type="line"/>
    </contour>
    <contour>
      <point x="431" y="0" type="line"/>
      <point x="451" y="0" type="line"/>
      <point x="537" y="700" type="line"/>
      <point x="517" y="700" type="line"/>
    </contour>
  </outline>
</glyph>
<glyph name="dollar" format="2">
  <advance width="593"/>
  <unicode hex="0024"/>
  <outline>
    <component base="S"/>
    <contour>
      <point x="280" y="687" type="line"/>
      <point x="300" y="687" type="line"/>
      <point x="300" y="804" type="line"/>
      <point x="280" y="804" type="line"/>
    </contour>
    <contour>
      <point x="280" y="-119" type="line"/>
      <point x="300" y="-119" type="line"/>
      <point x="300" y="11" type="line"/>
      <point x="280" y="11" type="line"/>
    </contour>
  </outline>
</glyph>
<glyph name="percent" format="2">
  <advance width="858"/>
  <unicode hex="0025"/>
  <outline>
    <contour>
      <point x="228" y="703" type="curve" smooth="yes"/>
      <point x="143" y="703"/>
      <point x="95" y="635"/>
      <point x="95" y="516" type="curve" smooth="yes"/>
      <point x="95" y="395"/>
      <point x="143" y="329"/>
      <point x="228" y="329" type="curve" smooth="yes"/>
      <point x="313" y="329"/>
      <point x="362" y="395"/>
      <point x="362" y="516" type="curve" smooth="yes"/>
      <point x="362" y="635"/>
      <point x="313" y="703"/>
    </contour>
    <contour>
      <point x="228" y="686" type="curve" smooth="yes"/>
      <point x="302" y="686"/>
      <point x="342" y="626"/>
      <point x="342" y="516" type="curve" smooth="yes"/>
      <point x="342" y="406"/>
      <point x="302" y="347"/>
      <point x="228" y="347" type="curve" smooth="yes"/>
      <point x="155" y="347"/>
      <point x="115" y="406"/>
      <point x="115" y="516" type="curve" smooth="yes"/>
      <point x="115" y="626"/>
      <point x="155" y="686"/>
    </contour>
    <contour>
      <point x="143" y="0" type="line"/>
      <point x="169" y="0" type="line"/>
      <point x="707" y="699" type="line"/>
      <point x="681" y="699" type="line"/>
    </contour>
    <contour>
      <point x="630" y="370" type="curve" smooth="yes"/>
      <point x="545" y="370"/>
      <point x="497" y="302"/>
      <point x="497" y="183" type="curve" smooth="yes"/>
      <point x="497" y="62"/>
      <point x="545" y="-4"/>
      <point x="630" y="-4" type="curve" smooth="yes"/>
      <point x="715" y="-4"/>
      <point x="764" y="62"/>
      <point x="764" y="183" type="curve" smooth="yes"/>
      <point x="764" y="302"/>
      <point x="715" y="370"/>
    </contour>
    <contour>
      <point x="630" y="353" type="curve" smooth="yes"/>
      <point x="704" y="353"/>
      <point x="744" y="293"/>
      <point x="744" y="183" type="curve" smooth="yes"/>
      <point x="744" y="73"/>
      <point x="704" y="14"/>
      <point x="630" y="14" type="curve" smooth="yes"/>
      <point x="557" y="14"/>
      <point x="517" y="73"/>
      <point x="517" y="183" type="curve" smooth="yes"/>
      <point x="517" y="293"/>
      <point x="557" y="353"/>
    </contour>
  </outline>
</glyph>
<glyph name="ampersand" format="2">
  <advance width="627"/>
  <unicode hex="0026"/>
  <outline>
    <contour>
      <point x="559" y="311" type="line"/>
      <point x="477" y="127"/>
      <point x="368" y="20"/>
      <point x="250" y="20" type="curve" smooth="yes"/>
      <point x="156" y="20"/>
      <point x="80" y="88"/>
      <point x="80" y="183" type="curve" smooth="yes"/>
      <point x="80" y="382"/>
      <point x="444" y="384"/>
      <point x="444" y="572" type="curve" smooth="yes"/>
      <point x="444" y="647"/>
      <point x="389" y="700"/>
      <point x="304" y="700" type="curve" smooth="yes"/>
      <point x="214" y="700"/>
      <point x="151" y="639"/>
      <point x="151" y="563" type="curve" smooth="yes"/>
      <point x="151" y="431"/>
      <point x="337" y="271"/>
      <point x="607" y="0" type="curve"/>
      <point x="620" y="13" type="line"/>
      <point x="350" y="285"/>
      <point x="171" y="440"/>
      <point x="171" y="563" type="curve" smooth="yes"/>
      <point x="171" y="628"/>
      <point x="224" y="680"/>
      <point x="304" y="680" type="curve" smooth="yes"/>
      <point x="378" y="680"/>
      <point x="424" y="637"/>
      <point x="424" y="573" type="curve" smooth="yes"/>
      <point x="424" y="396"/>
      <point x="60" y="403"/>
      <point x="60" y="183" type="curve" smooth="yes"/>
      <point x="60" y="78"/>
      <point x="146" y="0"/>
      <point x="250" y="0" type="curve" smooth="yes"/>
      <point x="377" y="0"/>
      <point x="493" y="114"/>
      <point x="578" y="299" type="curve"/>
    </contour>
  </outline>
</glyph>
<glyph name="quotesingle" format="2">
  <advance width="140"/>
  <unicode hex="0027"/>
  <outline>
    <contour>
      <point x="60" y="510" type="line"/>
      <point x="80" y="510" type="line"/>
      <point x="80" y="700" type="line"/>
      <point x="60" y="700" type="line"/>
    </contour>
  </outline>
</glyph>
<glyph name="parenleft" format="2">
  <advance width="276"/>
  <unicode hex="0028"/>
  <outline>
    <contour>
      <point x="216" y="742" type="line"/>
      <point x="143" y="633"/>
      <point x="103" y="480"/>
      <point x="103" y="309" type="curve" smooth="yes"/>
      <point x="103" y="138"/>
      <point x="143" y="-15"/>
      <point x="216" y="-124" type="curve"/>
      <point x="236" y="-124" type="line"/>
      <point x="163" y="-15"/>
      <point x="123" y="138"/>
      <point x="123" y="309" type="curve" smooth="yes"/>
      <point x="123" y="480"/>
      <point x="163" y="633"/>
      <point x="236" y="742" type="curve"/>
    </contour>
  </outline>
</glyph>
<glyph name="parenright" format="2">
  <advance width="276"/>
  <unicode hex="0029"/>
  <outline>
    <contour>
      <point x="60" y="742" type="line"/>
      <point x="133" y="633"/>
      <point x="173" y="480"/>
      <point x="173" y="309" type="curve" smooth="yes"/>
      <point x="173" y="138"/>
      <point x="133" y="-15"/>
      <point x="60" y="-124" type="curve"/>
      <point x="40" y="-124" type="line"/>
      <point x="113" y="-15"/>
      <point x="153" y="138"/>
      <point x="153" y="309" type="curve" smooth="yes"/>
      <point x="153" y="480"/>
      <point x="113" y="633"/>
      <point x="40" y="742" type="curve"/>
    </contour>
  </outline>
</glyph>
<glyph name="asterisk" format="2">
  <advance width="298"/>
  <unicode hex="002A"/>
  <outline>
    <contour>
      <point x="140" y="606" type="line"/>
      <point x="39" y="665" type="line"/>
      <point x="30" y="648" type="line"/>
      <point x="130" y="590" type="line"/>
      <point x="30" y="532" type="line"/>
      <point x="39" y="515" type="line"/>
      <point x="140" y="574" type="line"/>
      <point x="140" y="457" type="line"/>
      <point x="158" y="457" type="line"/>
      <point x="158" y="574" type="line"/>
      <point x="259" y="515" type="line"/>
      <point x="268" y="532" type="line"/>
      <point x="167" y="590" type="line"/>
      <point x="268" y="648" type="line"/>
      <point x="259" y="665" type="line"/>
      <point x="158" y="606" type="line"/>
      <point x="158" y="723" type="line"/>
      <point x="140" y="723" type="line"/>
    </contour>
  </outline>
</glyph>
<glyph name="plus" format="2">
  <advance width="480"/>
  <unicode hex="002B"/>
  <outline>
    <contour>
      <point x="40" y="310" type="line"/>
      <point x="440" y="310" type="line"/>
      <point x="440" y="330" type="line"/>
      <point x="40" y="330" type="line"/>
    </contour>
    <contour>
      <point x="230" y="120" type="line"/>
      <point x="250" y="120" type="line"/>
      <point x="250" y="520" type="line"/>
      <point x="230" y="520" type="line"/>
    </contour>
  </outline>
</glyph>
<glyph name="comma" format="2">
  <advance width="270"/>
  <unicode hex="002C"/>
  <outline>
    <contour>
      <point x="135" y="4" type="line"/>
      <point x="93" y="-120" type="line"/>
      <point x="113" y="-120" type="line"/>
      <point x="156" y="-7" type="line" smooth="yes"/>
      <point x="160" y="3"/>
      <point x="163" y="10"/>
      <point x="163" y="19" type="curve" smooth="yes"/>
      <point x="163" y="33"/>
      <point x="151" y="45"/>
      <point x="137" y="45" type="curve" smooth="yes"/>
      <point x="123" y="45"/>
      <point x="111" y="33"/>
      <point x="111" y="19" type="curve" smooth="yes"/>
      <point x="111" y="5"/>
      <point x="123" y="-7"/>
      <point x="137" y="-7" type="curve"/>
    </contour>
  </outline>
</glyph>
<glyph name="hyphen" format="2">
  <advance width="357"/>
  <unicode hex="002D"/>
  <outline>
    <contour>
      <point x="70" y="290" type="line"/>
      <point x="287" y="290" type="line"/>
      <point x="287" y="310" type="line"/>
      <point x="70" y="310" type="line"/>
    </contour>
  </outline>
</glyph>
<glyph name="period" format="2">
  <advance width="270"/>
  <unicode hex="002E"/>
  <outline>
    <contour>
      <point x="135" y="45" type="curve" smooth="yes"/>
      <point x="121" y="45"/>
      <point x="109" y="33"/>
      <point x="109" y="19" type="curve" smooth="yes"/>
      <point x="109" y="5"/>
      <point x="121" y="-7"/>
      <point x="135" y="-7" type="curve" smooth="yes"/>
      <point x="149" y="-7"/>
      <point x="161" y="5"/>
      <point x="161" y="19" type="curve" smooth="yes"/>
      <point x="161" y="33"/>
      <point x="149" y="45"/>
    </contour>
  </outline>
</glyph>
<glyph name="slash" format="2">
  <advance width="294"/>
  <unicode hex="002F"/>
  <outline>
    <contour>
      <point x="4" y="-130" type="line"/>
      <point x="25" y="-130" type="line"/>
      <point x="331" y="826" type="line"/>
      <point x="310" y="826" type="line"/>
    </contour>
  </outline>
</glyph>
<glyph name="zero" format="2">
  <advance width="723"/>
  <unicode hex="0030"/>
  <outline>
    <contour>
      <point x="387" y="701" type="curve" smooth="yes"/>
      <point x="210" y="701"/>
      <point x="111" y="575"/>
      <point x="111" y="350" type="curve" smooth="yes"/>
      <point x="111" y="124"/>
      <point x="210" y="-2"/>
      <point x="387" y="-2" type="curve" smooth="yes"/>
      <point x="565" y="-2"/>
      <point x="664" y="124"/>
      <point x="664" y="350" type="curve" smooth="yes"/>
      <point x="664" y="575"/>
      <point x="565" y="701"/>
    </contour>
    <contour>
      <point x="387" y="681" type="curve" smooth="yes"/>
      <point x="552" y="681"/>
      <point x="644" y="563"/>
      <point x="644" y="350" type="curve" smooth="yes"/>
      <point x="644" y="137"/>
      <point x="552" y="18"/>
      <point x="387" y="18" type="curve" smooth="yes"/>
      <point x="222" y="18"/>
      <point x="131" y="137"/>
      <point x="131" y="350" type="curve" smooth="yes"/>
      <point x="131" y="563"/>
      <point x="222" y="681"/>
    </contour>
  </outline>
</glyph>
<glyph name="one" format="2">
  <advance width="634"/>
  <unicode hex="0031"/>
  <outline>
    <contour>
      <point x="205" y="680" type="line"/>
      <point x="372" y="680" type="line"/>
      <point x="363" y="689" type="line"/>
      <point x="363" y="0" type="line"/>
      <point x="382" y="0" type="line"/>
      <point x="382" y="700" type="line"/>
      <point x="205" y="700" type="line"/>
    </contour>
  </outline>
</glyph>
<glyph name="two" format="2">
  <advance width="603"/>
  <unicode hex="0032"/>
  <outline>
    <contour>
      <point x="64" y="29" type="line"/>
      <point x="63" y="0" type="line"/>
      <point x="543" y="0" type="line"/>
      <point x="543" y="20" type="line"/>
      <point x="74" y="20" type="line"/>
      <point x="77" y="13" type="line"/>
      <point x="363" y="314" type="line" smooth="yes"/>
      <point x="440" y="394"/>
      <point x="488" y="478"/>
      <point x="488" y="538" type="curve" smooth="yes"/>
      <point x="488" y="639"/>
      <point x="409" y="701"/>
      <point x="281" y="701" type="curve" smooth="yes"/>
      <point x="204" y="701"/>
      <point x="122" y="667"/>
      <point x="65" y="610" type="curve"/>
      <point x="79" y="596" type="line"/>
      <point x="133" y="649"/>
      <point x="209" y="681"/>
      <point x="281" y="681" type="curve" smooth="yes"/>
      <point x="397" y="681"/>
      <point x="468" y="627"/>
      <point x="468" y="538" type="curve" smooth="yes"/>
      <point x="468" y="483"/>
      <point x="422" y="404"/>
      <point x="349" y="328" type="curve" smooth="yes"/>
    </contour>
  </outline>
</glyph>
<glyph name="three" format="2">
  <advance width="1268"/>
  <unicode hex="0033"/>
  <outline>
    <contour>
      <point x="490" y="790" type="line"/>
      <point x="496" y="778" type="line"/>
      <point x="1062" y="1364" type="line"/>
      <point x="1062" y="1400" type="line"/>
      <point x="230" y="1400" type="line"/>
      <point x="230" y="1360" type="line"/>
      <point x="1026" y="1360" type="line"/>
      <point x="1020" y="1372" type="line"/>
      <point x="450" y="786" type="line"/>
      <point x="450" y="750" type="line"/>
      <point x="606" y="750" type="line" smooth="yes"/>
      <point x="721" y="750"/>
      <point x="903" y="706"/>
      <point x="1029" y="621"/>
      <point x="1096" y="495"/>
      <point x="1096" y="412" type="qcurve" smooth="yes"/>
      <point x="1096" y="330"/>
      <point x="1030" y="191"/>
      <point x="906" y="92"/>
      <point x="726" y="36"/>
      <point x="612" y="36" type="qcurve" smooth="yes"/>
      <point x="555" y="36"/>
      <point x="440" y="52"/>
      <point x="332" y="81"/>
      <point x="233" y="121"/>
      <point x="192" y="146" type="qcurve"/>
      <point x="168" y="114" type="line"/>
      <point x="212" y="88"/>
      <point x="316" y="44"/>
      <point x="430" y="13"/>
      <point x="550" y="-4"/>
      <point x="610" y="-4" type="qcurve" smooth="yes"/>
      <point x="732" y="-4"/>
      <point x="927" y="58"/>
      <point x="1063" y="169"/>
      <point x="1136" y="326"/>
      <point x="1136" y="420" type="qcurve" smooth="yes"/>
      <point x="1136" y="507"/>
      <point x="1060" y="644"/>
      <point x="921" y="740"/>
      <point x="725" y="790"/>
      <point x="604" y="790" type="qcurve" smooth="yes"/>
    </contour>
  </outline>
</glyph>
<glyph name="four" format="2">
  <advance width="570"/>
  <unicode hex="0034"/>
  <outline>
    <contour>
      <point x="542" y="208" type="line"/>
      <point x="542" y="228" type="line"/>
      <point x="46" y="228" type="line"/>
      <point x="50" y="220" type="line"/>
      <point x="349" y="699" type="line"/>
      <point x="326" y="699" type="line"/>
      <point x="35" y="233" type="line"/>
      <point x="35" y="208" type="line"/>
    </contour>
    <contour>
      <point x="401" y="0" type="line"/>
      <point x="421" y="0" type="line"/>
      <point x="421" y="452" type="line"/>
      <point x="401" y="452" type="line"/>
    </contour>
  </outline>
</glyph>
<glyph name="five" format="2">
  <advance width="634"/>
  <unicode hex="0035"/>
  <outline>
    <contour>
      <point x="155" y="689" type="line"/>
      <point x="146" y="680" type="line"/>
      <point x="539" y="680" type="line"/>
      <point x="539" y="700" type="line"/>
      <point x="135" y="700" type="line"/>
      <point x="135" y="362" type="line"/>
      <point x="194" y="384"/>
      <point x="267" y="398"/>
      <point x="322" y="398" type="curve" smooth="yes"/>
      <point x="458" y="398"/>
      <point x="546" y="328"/>
      <point x="546" y="223" type="curve" smooth="yes"/>
      <point x="546" y="98"/>
      <point x="458" y="18"/>
      <point x="320" y="18" type="curve" smooth="yes"/>
      <point x="251" y="18"/>
      <point x="163" y="43"/>
      <point x="98" y="82" type="curve"/>
      <point x="88" y="66" type="line"/>
      <point x="155" y="25"/>
      <point x="245" y="-2"/>
      <point x="320" y="-2" type="curve" smooth="yes"/>
      <point x="470" y="-2"/>
      <point x="566" y="86"/>
      <point x="566" y="223" type="curve" smooth="yes"/>
      <point x="566" y="340"/>
      <point x="471" y="418"/>
      <point x="322" y="418" type="curve" smooth="yes"/>
      <point x="272" y="418"/>
      <point x="204" y="406"/>
      <point x="149" y="388" type="curve"/>
      <point x="155" y="381" type="line"/>
    </contour>
  </outline>
</glyph>
<glyph name="six" format="2">
  <advance width="634"/>
  <unicode hex="0036"/>
  <outline>
    <contour>
      <point x="532" y="657" type="line"/>
      <point x="473" y="684"/>
      <point x="404" y="701"/>
      <point x="345" y="701" type="curve" smooth="yes"/>
      <point x="175" y="701"/>
      <point x="71" y="554"/>
      <point x="71" y="332" type="curve" smooth="yes"/>
      <point x="71" y="114"/>
      <point x="170" y="-2"/>
      <point x="335" y="-2" type="curve" smooth="yes"/>
      <point x="473" y="-2"/>
      <point x="563" y="83"/>
      <point x="563" y="223" type="curve" smooth="yes"/>
      <point x="563" y="358"/>
      <point x="477" y="439"/>
      <point x="339" y="439" type="curve" smooth="yes"/>
      <point x="207" y="439"/>
      <point x="117" y="367"/>
      <point x="95" y="250" type="curve"/>
      <point x="71" y="518"/>
      <point x="167" y="681"/>
      <point x="347" y="681" type="curve" smooth="yes"/>
      <point x="404" y="681"/>
      <point x="470" y="665"/>
      <point x="522" y="639" type="curve"/>
    </contour>
    <contour>
      <point x="339" y="419" type="curve" smooth="yes"/>
      <point x="462" y="419"/>
      <point x="543" y="345"/>
      <point x="543" y="225" type="curve" smooth="yes"/>
      <point x="543" y="97"/>
      <point x="455" y="18"/>
      <point x="330" y="18" type="curve" smooth="yes"/>
      <point x="176" y="18"/>
      <point x="112" y="137"/>
      <point x="112" y="217" type="curve"/>
      <point x="112" y="320"/>
      <point x="197" y="419"/>
    </contour>
  </outline>
</glyph>
<glyph name="seven" format="2">
  <advance width="634"/>
  <unicode hex="0037"/>
  <outline>
    <contour>
      <point x="82" y="568" type="line"/>
      <point x="102" y="568" type="line"/>
      <point x="102" y="689" type="line"/>
      <point x="93" y="680" type="line"/>
      <point x="567" y="680" type="line"/>
      <point x="562" y="688" type="line"/>
      <point x="211" y="0" type="line"/>
      <point x="233" y="0" type="line"/>
      <point x="576" y="675" type="line"/>
      <point x="576" y="700" type="line"/>
      <point x="82" y="700" type="line"/>
    </contour>
  </outline>
</glyph>
<glyph name="eight" format="2">
  <advance width="1268"/>
  <unicode hex="0038"/>
  <outline>
    <contour>
      <point x="634" y="1402" type="qcurve" smooth="yes"/>
      <point x="536" y="1402"/>
      <point x="379" y="1357"/>
      <point x="269" y="1272"/>
      <point x="210" y="1149"/>
      <point x="210" y="1070" type="qcurve" smooth="yes"/>
      <point x="210" y="1009"/>
      <point x="245" y="908"/>
      <point x="312" y="829"/>
      <point x="410" y="771"/>
      <point x="472" y="752" type="qcurve"/>
      <point x="396" y="734"/>
      <point x="274" y="670"/>
      <point x="189" y="579"/>
      <point x="144" y="461"/>
      <point x="144" y="390" type="qcurve" smooth="yes"/>
      <point x="144" y="296"/>
      <point x="212" y="150"/>
      <point x="338" y="49"/>
      <point x="520" y="-4"/>
      <point x="634" y="-4" type="qcurve" smooth="yes"/>
      <point x="747" y="-4"/>
      <point x="928" y="49"/>
      <point x="1054" y="150"/>
      <point x="1122" y="296"/>
      <point x="1122" y="390" type="qcurve" smooth="yes"/>
      <point x="1122" y="461"/>
      <point x="1077" y="579"/>
      <point x="992" y="670"/>
      <point x="871" y="734"/>
      <point x="794" y="752" type="qcurve"/>
      <point x="856" y="771"/>
      <point x="954" y="829"/>
      <point x="1021" y="908"/>
      <point x="1056" y="1009"/>
      <point x="1056" y="1070" type="qcurve" smooth="yes"/>
      <point x="1056" y="1149"/>
      <point x="998" y="1272"/>
      <point x="889" y="1357"/>
      <point x="732" y="1402"/>
    </contour>
    <contour>
      <point x="632" y="726" type="qcurve" smooth="yes"/>
      <point x="737" y="726"/>
      <point x="904" y="679"/>
      <point x="1020" y="592"/>
      <point x="1082" y="469"/>
      <point x="1082" y="392" type="qcurve" smooth="yes"/>
      <point x="1082" y="308"/>
      <point x="1020" y="176"/>
      <point x="903" y="84"/>
      <point x="738" y="36"/>
      <point x="634" y="36" type="qcurve" smooth="yes"/>
      <point x="529" y="36"/>
      <point x="362" y="85"/>
      <point x="246" y="177"/>
      <point x="184" y="310"/>
      <point x="184" y="394" type="qcurve" smooth="yes"/>
      <point x="184" y="471"/>
      <point x="246" y="593"/>
      <point x="363" y="680"/>
      <point x="529" y="726"/>
    </contour>
    <contour>
      <point x="634" y="1362" type="qcurve" smooth="yes"/>
      <point x="723" y="1362"/>
      <point x="865" y="1321"/>
      <point x="964" y="1245"/>
      <point x="1016" y="1135"/>
      <point x="1016" y="1066" type="qcurve" smooth="yes"/>
      <point x="1016" y="996"/>
      <point x="964" y="885"/>
      <point x="865" y="807"/>
      <point x="723" y="766"/>
      <point x="634" y="766" type="qcurve" smooth="yes"/>
      <point x="545" y="766"/>
      <point x="402" y="807"/>
      <point x="303" y="885"/>
      <point x="250" y="996"/>
      <point x="250" y="1066" type="qcurve" smooth="yes"/>
      <point x="250" y="1135"/>
      <point x="303" y="1245"/>
      <point x="402" y="1321"/>
      <point x="545" y="1362"/>
    </contour>
  </outline>
</glyph>
<glyph name="nine" format="2">
  <advance width="641"/>
  <unicode hex="0039"/>
  <outline>
    <contour>
      <point x="122" y="42" type="line"/>
      <point x="180" y="15"/>
      <point x="248" y="-2"/>
      <point x="306" y="-2" type="curve" smooth="yes"/>
      <point x="475" y="-2"/>
      <point x="578" y="146"/>
      <point x="578" y="369" type="curve" smooth="yes"/>
      <point x="578" y="586"/>
      <point x="480" y="701"/>
      <point x="317" y="701" type="curve" smooth="yes"/>
      <point x="180" y="701"/>
      <point x="91" y="617"/>
      <point x="91" y="478" type="curve" smooth="yes"/>
      <point x="91" y="342"/>
      <point x="176" y="261"/>
      <point x="313" y="261" type="curve" smooth="yes"/>
      <point x="443" y="261"/>
      <point x="532" y="333"/>
      <point x="554" y="451" type="curve"/>
      <point x="578" y="182"/>
      <point x="482" y="18"/>
      <point x="304" y="18" type="curve" smooth="yes"/>
      <point x="248" y="18"/>
      <point x="183" y="34"/>
      <point x="132" y="60" type="curve"/>
    </contour>
    <contour>
      <point x="322" y="681" type="curve" smooth="yes"/>
      <point x="473" y="681"/>
      <point x="537" y="563"/>
      <point x="537" y="484" type="curve"/>
      <point x="537" y="380"/>
      <point x="453" y="281"/>
      <point x="313" y="281" type="curve" smooth="yes"/>
      <point x="191" y="281"/>
      <point x="111" y="355"/>
      <point x="111" y="476" type="curve" smooth="yes"/>
      <point x="111" y="603"/>
      <point x="198" y="681"/>
    </contour>
  </outline>
</glyph>
<glyph name="less" format="2">
  <advance width="480"/>
  <unicode hex="003C"/>
  <outline>
    <contour>
      <point x="40" y="341" type="line"/>
      <point x="40" y="315" type="line"/>
      <point x="440" y="129" type="line"/>
      <point x="440" y="151" type="line"/>
      <point x="59" y="328" type="line"/>
      <point x="440" y="505" type="line"/>
      <point x="440" y="527" type="line"/>
    </contour>
  </outline>
</glyph>
<glyph name="equal" format="2">
  <advance width="480"/>
  <unicode hex="003D"/>
  <outline>
    <contour>
      <point x="40" y="410" type="line"/>
      <point x="440" y="410" type="line"/>
      <point x="440" y="430" type="line"/>
      <point x="40" y="430" type="line"/>
    </contour>
    <contour>
      <point x="40" y="210" type="line"/>
      <point x="440" y="210" type="line"/>
      <point x="440" y="230" type="line"/>
      <point x="40" y="230" type="line"/>
    </contour>
  </outline>
</glyph>
<glyph name="greater" format="2">
  <advance width="960"/>
  <unicode hex="003E"/>
  <outline>
    <contour>
      <point x="880" y="630" type="line"/>
      <point x="880" y="682" type="line"/>
      <point x="80" y="1054" type="line"/>
      <point x="80" y="1010" type="line"/>
      <point x="842" y="656" type="line"/>
      <point x="80" y="302" type="line"/>
      <point x="80" y="258" type="line"/>
    </contour>
  </outline>
</glyph>
<glyph name="question" format="2">
  <advance width="1108"/>
  <unicode hex="003F"/>
  <outline>
    <contour>
      <point x="440" y="376" type="line"/>
      <point x="480" y="376" type="line"/>
      <point x="480" y="633" type="line"/>
      <point x="736" y="633"/>
      <point x="930" y="816"/>
      <point x="930" y="1018" type="curve" smooth="yes"/>
      <point x="930" y="1236"/>
      <point x="742" y="1406"/>
      <point x="500" y="1406" type="curve" smooth="yes"/>
      <point x="302" y="1406"/>
      <point x="147" y="1345"/>
      <point x="40" y="1226" type="curve"/>
      <point x="68" y="1198" type="line"/>
      <point x="171" y="1313"/>
      <point x="310" y="1368"/>
      <point x="500" y="1368" type="curve" smooth="yes"/>
      <point x="723" y="1368"/>
      <point x="890" y="1219"/>
      <point x="890" y="1020" type="curve" smooth="yes"/>
      <point x="890" y="825"/>
      <point x="690" y="670"/>
      <point x="440" y="670" type="curve"/>
      <point x="440" y="670" type="line"/>
    </contour>
    <contour>
      <point x="460" y="-6" type="curve" smooth="yes"/>
      <point x="488" y="-6"/>
      <point x="512" y="18"/>
      <point x="512" y="46" type="curve" smooth="yes"/>
      <point x="512" y="74"/>
      <point x="488" y="98"/>
      <point x="460" y="98" type="curve" smooth="yes"/>
      <point x="432" y="98"/>
      <point x="408" y="74"/>
      <point x="408" y="46" type="curve" smooth="yes"/>
      <point x="408" y="18"/>
      <point x="432" y="-6"/>
    </contour>
  </outline>
</glyph>
<glyph name="at" format="2">
  <advance width="1006"/>
  <unicode hex="0040"/>
  <outline>
    <contour>
      <point x="732" y="525" type="line"/>
      <point x="712" y="525" type="line"/>
      <point x="712" y="373" type="line"/>
      <point x="675" y="466"/>
      <point x="588" y="527"/>
      <point x="479" y="527" type="curve" smooth="yes"/>
      <point x="333" y="527"/>
      <point x="226" y="417"/>
      <point x="226" y="266" type="curve" smooth="yes"/>
      <point x="226" y="116"/>
      <point x="333" y="6"/>
      <point x="479" y="6" type="curve" smooth="yes"/>
      <point x="588" y="6"/>
      <point x="675" y="67"/>
      <point x="712" y="160" type="curve"/>
      <point x="712" y="96" type="line"/>
      <point x="712" y="28"/>
      <point x="754" y="-16"/>
      <point x="805" y="-16" type="curve" smooth="yes"/>
      <point x="897" y="-16"/>
      <point x="956" y="92"/>
      <point x="956" y="259" type="curve" smooth="yes"/>
      <point x="956" y="526"/>
      <point x="767" y="721"/>
      <point x="507" y="721" type="curve" smooth="yes"/>
      <point x="243" y="721"/>
      <point x="50" y="528"/>
      <point x="50" y="262" type="curve" smooth="yes"/>
      <point x="50" y="7"/>
      <point x="237" y="-178"/>
      <point x="494" y="-178" type="curve" smooth="yes"/>
      <point x="551" y="-178"/>
      <point x="630" y="-159"/>
      <point x="681" y="-132" type="curve"/>
      <point x="673" y="-114" type="line"/>
      <point x="626" y="-139"/>
      <point x="550" y="-158"/>
      <point x="494" y="-158" type="curve" smooth="yes"/>
      <point x="249" y="-158"/>
      <point x="70" y="19"/>
      <point x="70" y="262" type="curve" smooth="yes"/>
      <point x="70" y="516"/>
      <point x="254" y="701"/>
      <point x="507" y="701" type="curve" smooth="yes"/>
      <point x="755" y="701"/>
      <point x="936" y="515"/>
      <point x="936" y="259" type="curve" smooth="yes"/>
      <point x="936" y="104"/>
      <point x="885" y="4"/>
      <point x="807" y="4" type="curve" smooth="yes"/>
      <point x="767" y="4"/>
      <point x="732" y="40"/>
      <point x="732" y="96" type="curve" smooth="yes"/>
    </contour>
    <contour>
      <point x="479" y="507" type="curve" smooth="yes"/>
      <point x="614" y="507"/>
      <point x="712" y="405"/>
      <point x="712" y="266" type="curve" smooth="yes"/>
      <point x="712" y="127"/>
      <point x="614" y="26"/>
      <point x="479" y="26" type="curve" smooth="yes"/>
      <point x="344" y="26"/>
      <point x="246" y="127"/>
      <point x="246" y="266" type="curve" smooth="yes"/>
      <point x="246" y="405"/>
      <point x="344" y="507"/>
    </contour>
  </outline>
</glyph>
<glyph name="A" format="2">
  <advance width="687"/>
  <unicode hex="0041"/>
  <anchor x="342" y="0" name="bottom"/>
  <anchor x="677" y="0" name="ogonek"/>
  <anchor x="343" y="700" name="top"/>
  <anchor x="105" y="700" name="topleft"/>
  <outline>
    <contour>
      <point x="10.014" y="0" type="line"/>
      <point x="34.0476" y="0" type="line"/>
      <point x="341.477" y="676.946" type="line"/>
      <point x="653.914" y="0" type="line"/>
      <point x="676.946" y="0" type="line"/>
      <point x="352.493" y="699.979" type="line"/>
      <point x="330.462" y="699.979" type="line"/>
    </contour>
    <contour>
      <point x="125.175" y="213.298" type="line"/>
      <point x="559.783" y="213.298" type="line"/>
      <point x="559.783" y="233.326" type="line"/>
      <point x="125.175" y="233.326" type="line"/>
    </contour>
  </outline>
</glyph>
<glyph name="B" format="2">
  <advance width="732"/>
  <unicode hex="0042"/>
  <outline>
    <contour>
      <point x="128" y="700" type="line"/>
      <point x="128" y="0" type="line"/>
      <point x="410" y="0" type="line" smooth="yes"/>
      <point x="569" y="0"/>
      <point x="660" y="68"/>
      <point x="660" y="187" type="curve" smooth="yes"/>
      <point x="660" y="286"/>
      <point x="596" y="351"/>
      <point x="485" y="365" type="curve"/>
      <point x="573" y="380"/>
      <point x="623" y="439"/>
      <point x="623" y="527" type="curve" smooth="yes"/>
      <point x="623" y="637"/>
      <point x="545" y="700"/>
      <point x="410" y="700" type="curve" smooth="yes"/>
    </contour>
    <contour>
      <point x="148" y="373" type="line"/>
      <point x="148" y="680" type="line"/>
      <point x="410" y="680" type="line" smooth="yes"/>
      <point x="533" y="680"/>
      <point x="603" y="624"/>
      <point x="603" y="527" type="curve" smooth="yes"/>
      <point x="603" y="429"/>
      <point x="533" y="373"/>
      <point x="410" y="373" type="curve" smooth="yes"/>
    </contour>
    <contour>
      <point x="148" y="20" type="line"/>
      <point x="148" y="353" type="line"/>
      <point x="410" y="353" type="line" smooth="yes"/>
      <point x="557" y="353"/>
      <point x="641" y="293"/>
      <point x="641" y="188" type="curve" smooth="yes"/>
      <point x="641" y="81"/>
      <point x="557" y="20"/>
      <point x="410" y="20" type="curve" smooth="yes"/>
    </contour>
  </outline>
</glyph>
<glyph name="C" format="2">
  <advance width="1412"/>
  <unicode hex="0043"/>
  <anchor x="796" y="0" name="bottom"/>
  <anchor x="818" y="1400" name="top"/>
  <outline>
    <contour>
      <point x="1300" y="1226" type="line"/>
      <point x="1172" y="1340"/>
      <point x="1003" y="1408"/>
      <point x="819" y="1408" type="curve" smooth="yes"/>
      <point x="425" y="1408"/>
      <point x="100" y="1090"/>
      <point x="100" y="701" type="curve" smooth="yes"/>
      <point x="100" y="314"/>
      <point x="425" y="-6"/>
      <point x="819" y="-6" type="curve" smooth="yes"/>
      <point x="1003" y="-6"/>
      <point x="1174" y="64"/>
      <point x="1302" y="178" type="curve"/>
      <point x="1274" y="204" type="line"/>
      <point x="1154" y="96"/>
      <point x="993" y="32"/>
      <point x="819" y="32" type="curve" smooth="yes"/>
      <point x="445" y="32"/>
      <point x="138" y="334"/>
      <point x="138" y="701" type="curve" smooth="yes"/>
      <point x="138" y="1069"/>
      <point x="445" y="1370"/>
      <point x="819" y="1370" type="curve" smooth="yes"/>
      <point x="993" y="1370"/>
      <point x="1154" y="1308"/>
      <point x="1274" y="1200" type="curve"/>
    </contour>
  </outline>
</glyph>
<glyph name="D" format="2">
  <advance width="1624"/>
  <unicode hex="0044"/>
  <anchor x="784" y="0" name="bottom"/>
  <anchor x="412" y="700" name="center"/>
  <anchor x="774" y="1400" name="top"/>
  <outline>
    <contour>
      <point x="256" y="1400" type="line"/>
      <point x="256" y="0" type="line"/>
      <point x="807" y="0" type="line" smooth="yes"/>
      <point x="1202" y="0"/>
      <point x="1524" y="314"/>
      <point x="1524" y="699" type="curve" smooth="yes"/>
      <point x="1524" y="1086"/>
      <point x="1202" y="1400"/>
      <point x="807" y="1400" type="curve" smooth="yes"/>
    </contour>
    <contour>
      <point x="296" y="40" type="line"/>
      <point x="296" y="1360" type="line"/>
      <point x="807" y="1360" type="line" smooth="yes"/>
      <point x="1180" y="1360"/>
      <point x="1484" y="1063"/>
      <point x="1484" y="699" type="curve" smooth="yes"/>
      <point x="1484" y="336"/>
      <point x="1180" y="40"/>
      <point x="807" y="40" type="curve" smooth="yes"/>
    </contour>
  </outline>
</glyph>
<glyph name="E" format="2">
  <advance width="1290"/>
  <unicode hex="0045"/>
  <anchor x="708" y="0" name="bottom"/>
  <anchor x="1160" y="0" name="ogonek"/>
  <anchor x="702" y="1400" name="top"/>
  <anchor x="72" y="1400" name="topleft"/>
  <outline>
    <contour>
      <point x="256" y="0" type="line"/>
      <point x="1160" y="0" type="line"/>
      <point x="1160" y="40" type="line"/>
      <point x="296" y="40" type="line"/>
      <point x="296" y="701" type="line"/>
      <point x="1039" y="701" type="line"/>
      <point x="1039" y="741" type="line"/>
      <point x="296" y="741" type="line"/>
      <point x="296" y="1360" type="line"/>
      <point x="1132" y="1360" type="line"/>
      <point x="1132" y="1400" type="line"/>
      <point x="256" y="1400" type="line"/>
    </contour>
  </outline>
</glyph>
<glyph name="F" format="2">
  <advance width="546"/>
  <unicode hex="0046"/>
  <outline>
    <contour>
      <point x="128" y="0" type="line"/>
      <point x="148" y="0" type="line"/>
      <point x="148" y="323" type="line"/>
      <point x="490" y="323" type="line"/>
      <point x="490" y="343" type="line"/>
      <point x="148" y="343" type="line"/>
      <point x="148" y="680" type="line"/>
      <point x="536" y="680" type="line"/>
      <point x="536" y="700" type="line"/>
      <point x="128" y="700" type="line"/>
    </contour>
  </outline>
</glyph>
<glyph name="G" format="2">
  <advance width="761"/>
  <unicode hex="0047"/>
  <anchor x="381" y="0" name="bottom"/>
  <anchor x="381" y="700" name="top"/>
  <outline>
    <contour>
      <point x="649.909" y="612.857" type="line"/>
      <point x="585.819" y="669.937"/>
      <point x="501.701" y="703.984"/>
      <point x="409.573" y="703.984" type="curve" smooth="yes"/>
      <point x="212.297" y="703.984"/>
      <point x="50.07" y="544.762"/>
      <point x="50.07" y="351.491" type="curve" smooth="yes"/>
      <point x="50.07" y="157.22"/>
      <point x="212.297" y="-3.0042"/>
      <point x="409.573" y="-3.0042" type="curve" smooth="yes"/>
      <point x="501.701" y="-3.0042"/>
      <point x="586.82" y="32.0448"/>
      <point x="650.91" y="89.1246" type="curve"/>
      <point x="636.89" y="102.143" type="line"/>
      <point x="576.806" y="48.0672"/>
      <point x="496.694" y="16.0224"/>
      <point x="409.573" y="16.0224" type="curve" smooth="yes"/>
      <point x="222.311" y="16.0224"/>
      <point x="69.0966" y="167.234"/>
      <point x="69.0966" y="351.491" type="curve" smooth="yes"/>
      <point x="69.0966" y="534.748"/>
      <point x="222.311" y="684.958"/>
      <point x="409.573" y="684.958" type="curve" smooth="yes"/>
      <point x="496.694" y="684.958"/>
      <point x="576.806" y="653.914"/>
      <point x="636.89" y="599.839" type="curve"/>
    </contour>
    <contour>
      <point x="630.882" y="97.1358" type="line"/>
      <point x="650.91" y="89.1246" type="line"/>
      <point x="650.91" y="359.503" type="line"/>
      <point x="330.462" y="359.503" type="line"/>
      <point x="330.462" y="340.476" type="line"/>
      <point x="630.882" y="340.476" type="line"/>
    </contour>
  </outline>
</glyph>
<glyph name="H" format="2">
  <advance width="1600"/>
  <unicode hex="0048"/>
  <anchor x="802" y="0" name="bottom"/>
  <anchor x="802" y="1076" name="center"/>
  <anchor x="802" y="1400" name="top"/>
  <outline>
    <contour>
      <point x="256" y="0" type="line"/>
      <point x="296" y="0" type="line"/>
      <point x="296" y="687" type="line"/>
      <point x="1304" y="687" type="line"/>
      <point x="1304" y="0" type="line"/>
      <point x="1344" y="0" type="line"/>
      <point x="1344" y="1400" type="line"/>
      <point x="1304" y="1400" type="line"/>
      <point x="1304" y="727" type="line"/>
      <point x="296" y="727" type="line"/>
      <point x="296" y="1400" type="line"/>
      <point x="256" y="1400" type="line"/>
    </contour>
  </outline>
</glyph>
<glyph name="I" format="2">
  <advance width="552"/>
  <unicode hex="0049"/>
  <anchor x="276" y="0" name="bottom"/>
  <anchor x="296" y="0" name="ogonek"/>
  <anchor x="276" y="1400" name="top"/>
  <anchor x="72" y="1400" name="topleft"/>
  <outline>
    <contour>
      <point x="256" y="0" type="line"/>
      <point x="296" y="0" type="line"/>
      <point x="296" y="1400" type="line"/>
      <point x="256" y="1400" type="line"/>
    </contour>
  </outline>
</glyph>
<glyph name="J" format="2">
  <advance width="460"/>
  <unicode hex="004A"/>
  <anchor x="204" y="700" name="top"/>
  <outline>
    <contour>
      <point x="349.489" y="699.979" type="line"/>
      <point x="329.461" y="699.979" type="line"/>
      <point x="329.461" y="197.276" type="line"/>
      <point x="329.461" y="82.1148"/>
      <point x="275.385" y="20.028"/>
      <point x="177.248" y="20.028" type="curve"/>
      <point x="114.16" y="20.028"/>
      <point x="58.0812" y="52.0728"/>
      <point x="17.0238" y="112.157" type="curve"/>
      <point x="3.0042" y="98.1372" type="line"/>
      <point x="47.0658" y="35.049"/>
      <point x="109.153" y="0"/>
      <point x="177.248" y="0" type="curve"/>
      <point x="288.403" y="0"/>
      <point x="349.489" y="70.098"/>
      <point x="349.489" y="197.276" type="curve"/>
    </contour>
  </outline>
</glyph>
<glyph name="K" format="2">
  <advance width="1342"/>
  <unicode hex="004B"/>
  <anchor x="670" y="0" name="bottom"/>
  <anchor x="670" y="1400" name="top"/>
  <outline>
    <contour>
      <point x="256" y="0" type="line"/>
      <point x="296" y="0" type="line"/>
      <point x="296" y="383" type="line"/>
      <point x="1238" y="1400" type="line"/>
      <point x="1182" y="1400" type="line"/>
      <point x="296" y="441" type="line"/>
      <point x="296" y="1400" type="line"/>
      <point x="256" y="1400" type="line"/>
    </contour>
    <contour>
      <point x="617" y="753" type="line"/>
      <point x="1228" y="0" type="line"/>
      <point x="1282" y="0" type="line"/>
      <point x="641" y="789" type="line"/>
    </contour>
  </outline>
</glyph>
<glyph name="L" format="2">
  <advance width="984"/>
  <unicode hex="004C"/>
  <anchor x="590" y="0" name="bottom"/>
  <anchor x="764" y="782" name="center"/>
  <anchor x="296" y="1400" name="top"/>
  <anchor x="884" y="1400" name="topright"/>
  <outline>
    <contour>
      <point x="256" y="0" type="line"/>
      <point x="923" y="0" type="line"/>
      <point x="923" y="40" type="line"/>
      <point x="296" y="40" type="line"/>
      <point x="296" y="1400" type="line"/>
      <point x="256" y="1400" type="line"/>
    </contour>
  </outline>
  <guideline angle="90" x="923" y="0"/>
</glyph>
<glyph name="M" format="2">
  <advance width="1870"/>
  <unicode hex="004D"/>
  <anchor x="936" y="0" name="bottom"/>
  <outline>
    <contour>
      <point x="256" y="0" type="line"/>
      <point x="296" y="0" type="line"/>
      <point x="296" y="1362" type="line"/>
      <point x="933" y="154" type="line"/>
      <point x="937" y="154" type="line"/>
      <point x="1572" y="1362" type="line"/>
      <point x="1574" y="0" type="line"/>
      <point x="1614" y="0" type="line"/>
      <point x="1614" y="1400" type="line"/>
      <point x="1544" y="1400" type="line"/>
      <point x="937" y="240" type="line"/>
      <point x="326" y="1400" type="line"/>
      <point x="256" y="1400" type="line"/>
    </contour>
  </outline>
</glyph>
<glyph name="N" format="2">
  <advance width="1600"/>
  <unicode hex="004E"/>
  <anchor x="792" y="0" name="bottom"/>
  <anchor x="832" y="1400" name="top"/>
  <outline>
    <contour>
      <point x="256" y="0" type="line"/>
      <point x="296" y="0" type="line"/>
      <point x="296" y="1378" type="line"/>
      <point x="286" y="1374" type="line"/>
      <point x="1284" y="0" type="line"/>
      <point x="1344" y="0" type="line"/>
      <point x="1344" y="1400" type="line"/>
      <point x="1304" y="1400" type="line"/>
      <point x="1304" y="22" type="line"/>
      <point x="1314" y="26" type="line"/>
      <point x="316" y="1400" type="line"/>
      <point x="256" y="1400" type="line"/>
    </contour>
  </outline>
</glyph>
<glyph name="O" format="2">
  <advance width="1638"/>
  <unicode hex="004F"/>
  <anchor x="820" y="0" name="bottom"/>
  <anchor x="820" y="702" name="center"/>
  <anchor x="1184" y="0" name="ogonek"/>
  <anchor x="820" y="1400" name="top"/>
  <anchor x="40" y="1408" name="topleft"/>
  <anchor x="1148" y="1400" name="topright"/>
  <outline>
    <contour>
      <point x="819" y="1408" type="curve" smooth="yes"/>
      <point x="425" y="1408"/>
      <point x="100" y="1090"/>
      <point x="100" y="703" type="curve" smooth="yes"/>
      <point x="100" y="314"/>
      <point x="425" y="-6"/>
      <point x="819" y="-6" type="curve" smooth="yes"/>
      <point x="1214" y="-6"/>
      <point x="1538" y="314"/>
      <point x="1538" y="703" type="curve" smooth="yes"/>
      <point x="1538" y="1090"/>
      <point x="1214" y="1408"/>
    </contour>
    <contour>
      <point x="819" y="1368" type="curve" smooth="yes"/>
      <point x="1192" y="1368"/>
      <point x="1498" y="1067"/>
      <point x="1498" y="703" type="curve" smooth="yes"/>
      <point x="1498" y="336"/>
      <point x="1192" y="34"/>
      <point x="819" y="34" type="curve" smooth="yes"/>
      <point x="447" y="34"/>
      <point x="140" y="336"/>
      <point x="140" y="703" type="curve" smooth="yes"/>
      <point x="140" y="1067"/>
      <point x="447" y="1368"/>
    </contour>
  </outline>
  <guideline angle="90" x="1158" y="0"/>
</glyph>
<glyph name="P" format="2">
  <advance width="663"/>
  <unicode hex="0050"/>
  <outline>
    <contour>
      <point x="128.179" y="699.979" type="line"/>
      <point x="128.179" y="0" type="line"/>
      <point x="148.207" y="0" type="line"/>
      <point x="148.207" y="249.349" type="line"/>
      <point x="139.195" y="240.336" type="line"/>
      <point x="365.511" y="240.336" type="line" smooth="yes"/>
      <point x="535.749" y="240.336"/>
      <point x="632.885" y="325.455"/>
      <point x="632.885" y="472.661" type="curve" smooth="yes"/>
      <point x="632.885" y="616.862"/>
      <point x="535.749" y="699.979"/>
      <point x="365.511" y="699.979" type="curve" smooth="yes"/>
    </contour>
    <contour>
      <point x="139.195" y="260.364" type="line"/>
      <point x="148.207" y="251.351" type="line"/>
      <point x="148.207" y="688.963" type="line"/>
      <point x="139.195" y="679.951" type="line"/>
      <point x="365.511" y="679.951" type="line" smooth="yes"/>
      <point x="522.731" y="679.951"/>
      <point x="612.857" y="604.846"/>
      <point x="612.857" y="472.661" type="curve" smooth="yes"/>
      <point x="612.857" y="337.472"/>
      <point x="522.731" y="260.364"/>
      <point x="365.511" y="260.364" type="curve" smooth="yes"/>
    </contour>
  </outline>
</glyph>
<glyph name="Q" format="2">
  <advance width="819"/>
  <unicode hex="0051"/>
  <anchor x="410" y="0" name="bottom"/>
  <anchor x="410" y="351" name="center"/>
  <anchor x="592" y="0" name="ogonek"/>
  <anchor x="410" y="700" name="top"/>
  <anchor x="38" y="700" name="topleft"/>
  <anchor x="503" y="687" name="topright"/>
  <outline>
    <contour>
      <point x="748" y="-6" type="line"/>
      <point x="489" y="238" type="line"/>
      <point x="511" y="244" type="line"/>
      <point x="770" y="0" type="line"/>
    </contour>
    <contour>
      <point x="410" y="704" type="curve" smooth="yes"/>
      <point x="607" y="704"/>
      <point x="769" y="545"/>
      <point x="769" y="351" type="curve" smooth="yes"/>
      <point x="769" y="157"/>
      <point x="607" y="-3"/>
      <point x="410" y="-3" type="curve" smooth="yes"/>
      <point x="212" y="-3"/>
      <point x="50" y="157"/>
      <point x="50" y="351" type="curve" smooth="yes"/>
      <point x="50" y="545"/>
      <point x="212" y="704"/>
    </contour>
    <contour>
      <point x="410" y="684" type="curve" smooth="yes"/>
      <point x="223" y="684"/>
      <point x="70" y="534"/>
      <point x="70" y="351" type="curve" smooth="yes"/>
      <point x="70" y="168"/>
      <point x="223" y="17"/>
      <point x="410" y="17" type="curve" smooth="yes"/>
      <point x="596" y="17"/>
      <point x="749" y="168"/>
      <point x="749" y="351" type="curve" smooth="yes"/>
      <point x="749" y="534"/>
      <point x="596" y="684"/>
    </contour>
  </outline>
</glyph>
<glyph name="R" format="2">
  <advance width="1446"/>
  <unicode hex="0052"/>
  <anchor x="724" y="0" name="bottom"/>
  <anchor x="682" y="1400" name="top"/>
  <outline>
    <contour>
      <point x="256" y="1400" type="line"/>
      <point x="256" y="0" type="line"/>
      <point x="296" y="0" type="line"/>
      <point x="296" y="481" type="line"/>
      <point x="731" y="481" type="line" smooth="yes"/>
      <point x="1071" y="481"/>
      <point x="1266" y="651"/>
      <point x="1266" y="945" type="curve" smooth="yes"/>
      <point x="1266" y="1234"/>
      <point x="1071" y="1400"/>
      <point x="731" y="1400" type="curve" smooth="yes"/>
    </contour>
    <contour>
      <point x="296" y="521" type="line"/>
      <point x="296" y="1360" type="line"/>
      <point x="731" y="1360" type="line" smooth="yes"/>
      <point x="1045" y="1360"/>
      <point x="1226" y="1210"/>
      <point x="1226" y="945" type="curve" smooth="yes"/>
      <point x="1226" y="675"/>
      <point x="1045" y="521"/>
      <point x="731" y="521" type="curve" smooth="yes"/>
    </contour>
    <contour>
      <point x="1216" y="0" type="line"/>
      <point x="1266" y="0" type="line"/>
      <point x="895" y="509" type="line"/>
      <point x="845" y="509" type="line"/>
    </contour>
  </outline>
</glyph>
<glyph name="S" format="2">
  <advance width="594"/>
  <unicode hex="0053"/>
  <anchor x="297" y="0" name="bottom"/>
  <anchor x="287" y="700" name="top"/>
  <outline>
    <contour>
      <point x="488.683" y="652.913" type="line"/>
      <point x="440.616" y="683.956"/>
      <point x="367.514" y="703.984"/>
      <point x="302.423" y="703.984" type="curve"/>
      <point x="167.234" y="703.984"/>
      <point x="79.1106" y="641.897"/>
      <point x="79.1106" y="547.766" type="curve"/>
      <point x="79.1106" y="290.406"/>
      <point x="499.699" y="411.575"/>
      <point x="497.696" y="169.237" type="curve"/>
      <point x="497.696" y="77.1078"/>
      <point x="412.577" y="17.0238"/>
      <point x="280.392" y="17.0238" type="curve"/>
      <point x="196.274" y="17.0238"/>
      <point x="108.151" y="53.0742"/>
      <point x="55.077" y="110.154" type="curve"/>
      <point x="41.0574" y="96.1344" type="line"/>
      <point x="99.1386" y="36.0504"/>
      <point x="192.269" y="-3.0042"/>
      <point x="280.392" y="-3.0042" type="curve"/>
      <point x="424.594" y="-3.0042"/>
      <point x="517.724" y="65.091"/>
      <point x="517.724" y="169.237" type="curve"/>
      <point x="519.727" y="431.603"/>
      <point x="99.1386" y="310.434"/>
      <point x="99.1386" y="546.764" type="curve"/>
      <point x="99.1386" y="629.881"/>
      <point x="179.251" y="683.956"/>
      <point x="302.423" y="683.956" type="curve"/>
      <point x="364.51" y="683.956"/>
      <point x="433.606" y="665.931"/>
      <point x="478.669" y="636.89" type="curve"/>
    </contour>
  </outline>
</glyph>
<glyph name="T" format="2">
  <advance width="527"/>
  <unicode hex="0054"/>
  <anchor x="263" y="0" name="bottom"/>
  <anchor x="263" y="350" name="center"/>
  <anchor x="263" y="700" name="top"/>
  <outline>
    <contour>
      <point x="13.0182" y="679.951" type="line"/>
      <point x="253.354" y="679.951" type="line"/>
      <point x="253.354" y="0" type="line"/>
      <point x="273.382" y="0" type="line"/>
      <point x="273.382" y="679.951" type="line"/>
      <point x="513.718" y="679.951" type="line"/>
      <point x="513.718" y="699.979" type="line"/>
      <point x="13.0182" y="699.979" type="line"/>
    </contour>
  </outline>
</glyph>
<glyph name="U" format="2">
  <advance width="775"/>
  <unicode hex="0055"/>
  <anchor x="388" y="0" name="bottom"/>
  <anchor x="567" y="0" name="ogonek"/>
  <anchor x="388" y="700" name="top"/>
  <anchor x="655" y="700" name="topright"/>
  <outline>
    <contour>
      <point x="130.182" y="699.979" type="line"/>
      <point x="110.154" y="699.979" type="line"/>
      <point x="110.154" y="281.393" type="line" smooth="yes"/>
      <point x="110.154" y="100.14"/>
      <point x="211.295" y="-3.0042"/>
      <point x="387.542" y="-3.0042" type="curve" smooth="yes"/>
      <point x="563.788" y="-3.0042"/>
      <point x="664.93" y="100.14"/>
      <point x="664.93" y="281.393" type="curve" smooth="yes"/>
      <point x="664.93" y="699.979" type="line"/>
      <point x="644.902" y="699.979" type="line"/>
      <point x="644.902" y="281.393" type="line" smooth="yes"/>
      <point x="644.902" y="113.158"/>
      <point x="550.77" y="17.0238"/>
      <point x="387.542" y="17.0238" type="curve" smooth="yes"/>
      <point x="224.314" y="17.0238"/>
      <point x="130.182" y="113.158"/>
      <point x="130.182" y="281.393" type="curve" smooth="yes"/>
    </contour>
  </outline>
</glyph>
<glyph name="V" format="2">
  <advance width="627"/>
  <unicode hex="0056"/>
  <outline>
    <contour>
      <point x="302" y="0" type="line"/>
      <point x="324" y="0" type="line"/>
      <point x="617" y="700" type="line"/>
      <point x="593" y="700" type="line"/>
      <point x="313" y="23" type="line"/>
      <point x="33" y="700" type="line"/>
      <point x="10" y="700" type="line"/>
    </contour>
  </outline>
</glyph>
<glyph name="W" format="2">
  <advance width="1976"/>
  <unicode hex="0057"/>
  <anchor x="990" y="0" name="bottom"/>
  <anchor x="990" y="1400" name="top"/>
  <outline>
    <contour>
      <point x="495" y="0" type="line"/>
      <point x="537" y="0" type="line"/>
      <point x="995" y="1362" type="line"/>
      <point x="983" y="1362" type="line"/>
      <point x="1440" y="0" type="line"/>
      <point x="1482" y="0" type="line"/>
      <point x="1957" y="1400" type="line"/>
      <point x="1911" y="1400" type="line"/>
      <point x="1456" y="28" type="line"/>
      <point x="1468" y="28" type="line"/>
      <point x="1011" y="1400" type="line"/>
      <point x="965" y="1400" type="line"/>
      <point x="511" y="28" type="line"/>
      <point x="523" y="28" type="line"/>
      <point x="66" y="1400" type="line"/>
      <point x="20" y="1400" type="line"/>
    </contour>
  </outline>
</glyph>
<glyph name="X" format="2">
  <advance width="1248"/>
  <unicode hex="0058"/>
  <outline>
    <contour>
      <point x="588" y="726" type="line"/>
      <point x="66" y="0" type="line"/>
      <point x="114" y="0" type="line"/>
      <point x="612" y="692" type="line"/>
      <point x="1114" y="0" type="line"/>
      <point x="1162" y="0" type="line"/>
      <point x="636" y="726" type="line"/>
      <point x="1124" y="1400" type="line"/>
      <point x="1076" y="1400" type="line"/>
      <point x="612" y="760" type="line"/>
      <point x="152" y="1400" type="line"/>
      <point x="104" y="1400" type="line"/>
    </contour>
  </outline>
</glyph>
<glyph name="Y" format="2">
  <advance width="607"/>
  <unicode hex="0059"/>
  <anchor x="305" y="0" name="bottom"/>
  <anchor x="303" y="700" name="top"/>
  <outline>
    <contour>
      <point x="302.423" y="258.361" type="line"/>
      <point x="308.431" y="258.361" type="line"/>
      <point x="596.834" y="699.979" type="line"/>
      <point x="572.801" y="699.979" type="line"/>
      <point x="305.427" y="289.405" type="line"/>
      <point x="34.0476" y="699.979" type="line"/>
      <point x="10.014" y="699.979" type="line"/>
    </contour>
    <contour>
      <point x="295.413" y="0" type="line"/>
      <point x="315.441" y="0" type="line"/>
      <point x="315.441" y="277.388" type="line"/>
      <point x="295.413" y="277.388" type="line"/>
    </contour>
  </outline>
</glyph>
<glyph name="Z" format="2">
  <advance width="1302"/>
  <unicode hex="005A"/>
  <anchor x="650" y="0" name="bottom"/>
  <anchor x="662" y="1400" name="top"/>
  <outline>
    <contour>
      <point x="132" y="1360" type="line"/>
      <point x="1152" y="1360" type="line"/>
      <point x="104" y="50" type="line"/>
      <point x="104" y="0" type="line"/>
      <point x="1198" y="0" type="line"/>
      <point x="1198" y="40" type="line"/>
      <point x="144" y="40" type="line"/>
      <point x="1192" y="1350" type="line"/>
      <point x="1192" y="1400" type="line"/>
      <point x="132" y="1400" type="line"/>
    </contour>
  </outline>
</glyph>
<glyph name="bracketleft" format="2">
  <advance width="284"/>
  <unicode hex="005B"/>
  <outline>
    <contour>
      <point x="108" y="-124" type="line"/>
      <point x="257" y="-124" type="line"/>
      <point x="257" y="-104" type="line"/>
      <point x="128" y="-104" type="line"/>
      <point x="128" y="722" type="line"/>
      <point x="257" y="722" type="line"/>
      <point x="257" y="742" type="line"/>
      <point x="108" y="742" type="line"/>
    </contour>
  </outline>
</glyph>
<glyph name="underscore" format="2">
  <advance width="537"/>
  <unicode hex="005F"/>
  <outline>
    <contour>
      <point x="0" y="-204" type="line"/>
      <point x="537" y="-204" type="line"/>
      <point x="537" y="-184" type="line"/>
      <point x="0" y="-184" type="line"/>
    </contour>
  </outline>
</glyph>
<glyph name="a" format="2">
  <advance width="1124"/>
  <unicode hex="0061"/>
  <anchor x="570" y="0" name="bottom"/>
  <anchor x="938" y="0" name="ogonek"/>
  <anchor x="566" y="1034" name="top"/>
  <outline>
    <contour>
      <point x="916" y="524" type="line"/>
      <point x="916" y="564" type="line"/>
      <point x="510" y="564" type="line" smooth="yes"/>
      <point x="274" y="564"/>
      <point x="126" y="466"/>
      <point x="126" y="298" type="curve" smooth="yes"/>
      <point x="126" y="126"/>
      <point x="262" y="0"/>
      <point x="462" y="0" type="curve" smooth="yes"/>
      <point x="676" y="0"/>
      <point x="848" y="94"/>
      <point x="934" y="312" type="curve"/>
      <point x="898" y="328" type="line"/>
      <point x="816" y="122"/>
      <point x="666" y="40"/>
      <point x="464" y="40" type="curve" smooth="yes"/>
      <point x="282" y="40"/>
      <point x="166" y="146"/>
      <point x="166" y="298" type="curve" smooth="yes"/>
      <point x="166" y="442"/>
      <point x="290" y="524"/>
      <point x="510" y="524" type="curve" smooth="yes"/>
    </contour>
    <contour>
      <point x="898" y="0" type="line"/>
      <point x="938" y="0" type="line"/>
      <point x="934" y="690" type="line"/>
      <point x="932" y="900"/>
      <point x="804" y="1034"/>
      <point x="566" y="1034" type="curve" smooth="yes"/>
      <point x="420" y="1034"/>
      <point x="296" y="974"/>
      <point x="180" y="882" type="curve"/>
      <point x="204" y="850" type="line"/>
      <point x="316" y="938"/>
      <point x="428" y="994"/>
      <point x="566" y="994" type="curve" smooth="yes"/>
      <point x="784" y="994"/>
      <point x="892" y="880"/>
      <point x="894" y="690" type="curve"/>
    </contour>
  </outline>
</glyph>
<glyph name="b" format="2">
  <advance width="1312"/>
  <unicode hex="0062"/>
  <outline>
    <contour>
      <point x="706" y="1034" type="curve" smooth="yes"/>
      <point x="416" y="1034"/>
      <point x="204" y="816"/>
      <point x="204" y="516" type="curve"/>
      <point x="204" y="218"/>
      <point x="416" y="0"/>
      <point x="706" y="0" type="curve" smooth="yes"/>
      <point x="996" y="0"/>
      <point x="1208" y="218"/>
      <point x="1208" y="516" type="curve" smooth="yes"/>
      <point x="1208" y="816"/>
      <point x="996" y="1034"/>
    </contour>
    <contour>
      <point x="706" y="994" type="curve" smooth="yes"/>
      <point x="974" y="994"/>
      <point x="1168" y="792"/>
      <point x="1168" y="516" type="curve" smooth="yes"/>
      <point x="1168" y="240"/>
      <point x="974" y="40"/>
      <point x="706" y="40" type="curve" smooth="yes"/>
      <point x="438" y="40"/>
      <point x="244" y="240"/>
      <point x="244" y="516" type="curve" smooth="yes"/>
      <point x="244" y="792"/>
      <point x="438" y="994"/>
    </contour>
    <contour>
      <point x="204" y="0" type="line"/>
      <point x="244" y="0" type="line"/>
      <point x="244" y="1484" type="line"/>
      <point x="204" y="1484" type="line"/>
    </contour>
  </outline>
</glyph>
<glyph name="c" format="2">
  <advance width="557"/>
  <unicode hex="0063"/>
  <anchor x="289" y="0" name="bottom"/>
  <anchor x="279" y="517" name="top"/>
  <outline>
    <contour>
      <point x="479" y="448" type="line"/>
      <point x="434" y="491"/>
      <point x="372" y="517"/>
      <point x="303" y="517" type="curve" smooth="yes"/>
      <point x="159" y="517"/>
      <point x="52" y="409"/>
      <point x="52" y="259" type="curve" smooth="yes"/>
      <point x="52" y="108"/>
      <point x="159" y="0"/>
      <point x="303" y="0" type="curve" smooth="yes"/>
      <point x="379" y="0"/>
      <point x="445" y="30"/>
      <point x="490" y="81" type="curve"/>
      <point x="477" y="95" type="line"/>
      <point x="435" y="47"/>
      <point x="374" y="20"/>
      <point x="303" y="20" type="curve" smooth="yes"/>
      <point x="169" y="20"/>
      <point x="71" y="118"/>
      <point x="71" y="259" type="curve" smooth="yes"/>
      <point x="71" y="399"/>
      <point x="169" y="497"/>
      <point x="303" y="497" type="curve" smooth="yes"/>
      <point x="368" y="497"/>
      <point x="423" y="473"/>
      <point x="466" y="434" type="curve"/>
    </contour>
  </outline>
</glyph>
<glyph name="d" format="2">
  <advance width="1346"/>
  <unicode hex="0064"/>
  <anchor x="660" y="0" name="bottom"/>
  <anchor x="992" y="1218" name="center"/>
  <anchor x="1316" y="1484" name="topright"/>
  <outline>
    <contour>
      <point x="610" y="1038" type="curve" smooth="yes"/>
      <point x="318" y="1038"/>
      <point x="104" y="818"/>
      <point x="104" y="516" type="curve" smooth="yes"/>
      <point x="104" y="216"/>
      <point x="318" y="-4"/>
      <point x="610" y="-4" type="curve" smooth="yes"/>
      <point x="902" y="-4"/>
      <point x="1116" y="216"/>
      <point x="1116" y="516" type="curve"/>
      <point x="1116" y="818"/>
      <point x="902" y="1038"/>
    </contour>
    <contour>
      <point x="610" y="998" type="curve" smooth="yes"/>
      <point x="880" y="998"/>
      <point x="1076" y="794"/>
      <point x="1076" y="516" type="curve" smooth="yes"/>
      <point x="1076" y="238"/>
      <point x="880" y="36"/>
      <point x="610" y="36" type="curve" smooth="yes"/>
      <point x="340" y="36"/>
      <point x="144" y="238"/>
      <point x="144" y="516" type="curve" smooth="yes"/>
      <point x="144" y="794"/>
      <point x="340" y="998"/>
    </contour>
    <contour>
      <point x="1076" y="0" type="line"/>
      <point x="1116" y="0" type="line"/>
      <point x="1116" y="1484" type="line"/>
      <point x="1076" y="1484" type="line"/>
    </contour>
  </outline>
</glyph>
<glyph name="e" format="2">
  <advance width="589"/>
  <unicode hex="0065"/>
  <anchor x="295" y="0" name="bottom"/>
  <anchor x="461" y="0" name="ogonek"/>
  <anchor x="295" y="517" name="top"/>
  <outline>
    <contour>
      <point x="64" y="279" type="line"/>
      <point x="64" y="259" type="line"/>
      <point x="541" y="259" type="line"/>
      <point x="541" y="409"/>
      <point x="445" y="517"/>
      <point x="301" y="517" type="curve" smooth="yes"/>
      <point x="158" y="517"/>
      <point x="52" y="409"/>
      <point x="52" y="259" type="curve" smooth="yes"/>
      <point x="52" y="108"/>
      <point x="158" y="0"/>
      <point x="301" y="0" type="curve" smooth="yes"/>
      <point x="381" y="0"/>
      <point x="451" y="30"/>
      <point x="498" y="81" type="curve"/>
      <point x="484" y="95" type="line"/>
      <point x="441" y="47"/>
      <point x="376" y="20"/>
      <point x="301" y="20" type="curve" smooth="yes"/>
      <point x="168" y="20"/>
      <point x="72" y="118"/>
      <point x="72" y="259" type="curve" smooth="yes"/>
      <point x="72" y="399"/>
      <point x="168" y="497"/>
      <point x="301" y="497" type="curve" smooth="yes"/>
      <point x="429" y="497"/>
      <point x="512" y="408"/>
      <point x="521" y="279" type="curve"/>
    </contour>
  </outline>
</glyph>
<glyph name="f" format="2">
  <advance width="321"/>
  <unicode hex="0066"/>
  <outline>
    <contour>
      <point x="117" y="0" type="line"/>
      <point x="137" y="0" type="line"/>
      <point x="137" y="600" type="line" smooth="yes"/>
      <point x="137" y="682"/>
      <point x="192" y="742"/>
      <point x="263" y="742" type="curve" smooth="yes"/>
      <point x="288" y="742"/>
      <point x="313" y="734"/>
      <point x="335" y="721" type="curve"/>
      <point x="346" y="738" type="line"/>
      <point x="321" y="752"/>
      <point x="291" y="761"/>
      <point x="263" y="762" type="curve" smooth="yes"/>
      <point x="182" y="765"/>
      <point x="117" y="692"/>
      <point x="117" y="600" type="curve" smooth="yes"/>
    </contour>
    <contour>
      <point x="52" y="497" type="line"/>
      <point x="305" y="497" type="line"/>
      <point x="305" y="517" type="line"/>
      <point x="52" y="517" type="line"/>
    </contour>
  </outline>
</glyph>
<glyph name="g" format="2">
  <advance width="630"/>
  <unicode hex="0067"/>
  <anchor x="297" y="517" name="top"/>
  <outline>
    <contour>
      <point x="536" y="517" type="line"/>
      <point x="516" y="517" type="line"/>
      <point x="516" y="58" type="line" smooth="yes"/>
      <point x="516" y="-84"/>
      <point x="427" y="-174"/>
      <point x="290" y="-174" type="curve" smooth="yes"/>
      <point x="212" y="-174"/>
      <point x="151" y="-145"/>
      <point x="96" y="-90" type="curve"/>
      <point x="82" y="-104" type="line"/>
      <point x="142" y="-163"/>
      <point x="207" y="-194"/>
      <point x="290" y="-194" type="curve" smooth="yes"/>
      <point x="439" y="-194"/>
      <point x="536" y="-96"/>
      <point x="536" y="58" type="curve" smooth="yes"/>
    </contour>
    <contour>
      <point x="293" y="517" type="curve" smooth="yes"/>
      <point x="154" y="517"/>
      <point x="52" y="412"/>
      <point x="52" y="267" type="curve" smooth="yes"/>
      <point x="52" y="124"/>
      <point x="154" y="19"/>
      <point x="293" y="19" type="curve" smooth="yes"/>
      <point x="433" y="19"/>
      <point x="535" y="124"/>
      <point x="535" y="267" type="curve"/>
      <point x="535" y="412"/>
      <point x="433" y="517"/>
    </contour>
    <contour>
      <point x="293" y="498" type="curve" smooth="yes"/>
      <point x="422" y="498"/>
      <point x="516" y="400"/>
      <point x="516" y="267" type="curve" smooth="yes"/>
      <point x="516" y="135"/>
      <point x="422" y="38"/>
      <point x="293" y="38" type="curve" smooth="yes"/>
      <point x="164" y="38"/>
      <point x="71" y="135"/>
      <point x="71" y="267" type="curve" smooth="yes"/>
      <point x="71" y="400"/>
      <point x="164" y="498"/>
    </contour>
  </outline>
</glyph>
<glyph name="h" format="2">
  <advance width="1300"/>
  <unicode hex="0068"/>
  <anchor x="672" y="0" name="bottom"/>
  <anchor x="326" y="1218" name="center"/>
  <anchor x="252" y="1484" name="top"/>
  <anchor x="446" y="1034" name="topright"/>
  <outline>
    <contour>
      <point x="1074" y="0" type="line"/>
      <point x="1114" y="0" type="line"/>
      <point x="1114" y="626" type="line"/>
      <point x="1114" y="882"/>
      <point x="964" y="1034"/>
      <point x="708" y="1034" type="curve"/>
      <point x="410" y="1028"/>
      <point x="234" y="832"/>
      <point x="234" y="506" type="curve"/>
      <point x="270" y="506" type="line"/>
      <point x="270" y="806"/>
      <point x="432" y="988"/>
      <point x="708" y="994" type="curve"/>
      <point x="938" y="994"/>
      <point x="1074" y="858"/>
      <point x="1074" y="626" type="curve"/>
    </contour>
    <contour>
      <point x="230" y="0" type="line"/>
      <point x="270" y="0" type="line"/>
      <point x="270" y="1484" type="line"/>
      <point x="230" y="1484" type="line"/>
    </contour>
  </outline>
</glyph>
<glyph name="k" format="2">
  <advance width="538"/>
  <unicode hex="006B"/>
  <anchor x="307" y="0" name="bottom"/>
  <anchor x="125" y="742" name="top"/>
  <anchor x="223" y="517" name="topright"/>
  <outline>
    <contour>
      <point x="115" y="0" type="line"/>
      <point x="135" y="0" type="line"/>
      <point x="135" y="742" type="line"/>
      <point x="115" y="742" type="line"/>
    </contour>
    <contour>
      <point x="128" y="178" type="line"/>
      <point x="128" y="147" type="line"/>
      <point x="492" y="517" type="line"/>
      <point x="464" y="517" type="line"/>
    </contour>
    <contour>
      <point x="272" y="314" type="line"/>
      <point x="498" y="0" type="line"/>
      <point x="522" y="0" type="line"/>
      <point x="288" y="326" type="line"/>
    </contour>
  </outline>
</glyph>
<glyph name="l" format="2">
  <advance width="259"/>
  <unicode hex="006C"/>
  <anchor x="175" y="0" name="bottom"/>
  <anchor x="250" y="398" name="center"/>
  <anchor x="112" y="742" name="top"/>
  <anchor x="221" y="742" name="topright"/>
  <outline>
    <contour>
      <point x="121" y="742" type="line"/>
      <point x="102" y="742" type="line"/>
      <point x="102" y="90" type="line" smooth="yes"/>
      <point x="102" y="30"/>
      <point x="128" y="0"/>
      <point x="175" y="0" type="curve" smooth="yes"/>
      <point x="198" y="0"/>
      <point x="224" y="13"/>
      <point x="247" y="37" type="curve"/>
      <point x="234" y="51" type="line"/>
      <point x="215" y="31"/>
      <point x="194" y="20"/>
      <point x="175" y="20" type="curve" smooth="yes"/>
      <point x="140" y="20"/>
      <point x="121" y="43"/>
      <point x="121" y="90" type="curve" smooth="yes"/>
    </contour>
  </outline>
</glyph>
<glyph name="m" format="2">
  <advance width="2092"/>
  <unicode hex="006D"/>
  <anchor x="1064" y="0" name="bottom"/>
  <outline>
    <contour>
      <point x="1044" y="0" type="line"/>
      <point x="1084" y="0" type="line"/>
      <point x="1084" y="626" type="line"/>
      <point x="1084" y="882"/>
      <point x="936" y="1034"/>
      <point x="688" y="1034" type="curve"/>
      <point x="396" y="1028"/>
      <point x="224" y="832"/>
      <point x="224" y="506" type="curve"/>
      <point x="260" y="506" type="line"/>
      <point x="260" y="806"/>
      <point x="418" y="988"/>
      <point x="686" y="994" type="curve"/>
      <point x="910" y="994"/>
      <point x="1044" y="858"/>
      <point x="1044" y="626" type="curve"/>
    </contour>
    <contour>
      <point x="1866" y="0" type="line"/>
      <point x="1906" y="0" type="line"/>
      <point x="1906" y="626" type="line"/>
      <point x="1906" y="882"/>
      <point x="1760" y="1034"/>
      <point x="1510" y="1034" type="curve"/>
      <point x="1220" y="1028"/>
      <point x="1048" y="832"/>
      <point x="1048" y="506" type="curve"/>
      <point x="1084" y="506" type="line"/>
      <point x="1084" y="806"/>
      <point x="1240" y="988"/>
      <point x="1510" y="994" type="curve"/>
      <point x="1734" y="994"/>
      <point x="1866" y="858"/>
      <point x="1866" y="626" type="curve"/>
    </contour>
    <contour>
      <point x="220" y="0" type="line"/>
      <point x="260" y="0" type="line"/>
      <point x="260" y="1034" type="line"/>
      <point x="220" y="1034" type="line"/>
    </contour>
  </outline>
</glyph>
<glyph name="n" format="2">
  <advance width="1288"/>
  <unicode hex="006E"/>
  <anchor x="650" y="0" name="bottom"/>
  <anchor x="684" y="1034" name="top"/>
  <outline>
    <contour>
      <point x="1062" y="0" type="line"/>
      <point x="1102" y="0" type="line"/>
      <point x="1102" y="626" type="line" smooth="yes"/>
      <point x="1102" y="882"/>
      <point x="952" y="1034"/>
      <point x="696" y="1034" type="curve"/>
      <point x="398" y="1028"/>
      <point x="222" y="832"/>
      <point x="222" y="506" type="curve"/>
      <point x="258" y="506" type="line"/>
      <point x="258" y="806"/>
      <point x="420" y="988"/>
      <point x="696" y="994" type="curve"/>
      <point x="926" y="994"/>
      <point x="1062" y="858"/>
      <point x="1062" y="626" type="curve" smooth="yes"/>
    </contour>
    <contour>
      <point x="220" y="0" type="line"/>
      <point x="260" y="0" type="line"/>
      <point x="260" y="1034" type="line"/>
      <point x="220" y="1034" type="line"/>
    </contour>
  </outline>
</glyph>
<glyph name="o" format="2">
  <advance width="606"/>
  <unicode hex="006F"/>
  <anchor x="303" y="0" name="bottom"/>
  <anchor x="303" y="259" name="center"/>
  <anchor x="455" y="0" name="ogonek"/>
  <anchor x="303" y="517" name="top"/>
  <anchor x="434" y="518" name="topright"/>
  <outline>
    <contour>
      <point x="303" y="517" type="curve" smooth="yes"/>
      <point x="159" y="517"/>
      <point x="52" y="409"/>
      <point x="52" y="259" type="curve" smooth="yes"/>
      <point x="52" y="108"/>
      <point x="159" y="0"/>
      <point x="303" y="0" type="curve" smooth="yes"/>
      <point x="447" y="0"/>
      <point x="554" y="108"/>
      <point x="554" y="259" type="curve" smooth="yes"/>
      <point x="554" y="409"/>
      <point x="447" y="517"/>
    </contour>
    <contour>
      <point x="303" y="497" type="curve" smooth="yes"/>
      <point x="437" y="497"/>
      <point x="534" y="399"/>
      <point x="534" y="259" type="curve" smooth="yes"/>
      <point x="534" y="118"/>
      <point x="437" y="20"/>
      <point x="303" y="20" type="curve" smooth="yes"/>
      <point x="169" y="20"/>
      <point x="72" y="118"/>
      <point x="72" y="259" type="curve" smooth="yes"/>
      <point x="72" y="399"/>
      <point x="169" y="497"/>
    </contour>
  </outline>
</glyph>
<glyph name="p" format="2">
  <advance width="1312"/>
  <unicode hex="0070"/>
  <outline>
    <contour>
      <point x="706" y="1034" type="curve" smooth="yes"/>
      <point x="416" y="1034"/>
      <point x="204" y="816"/>
      <point x="204" y="516" type="curve"/>
      <point x="204" y="218"/>
      <point x="416" y="0"/>
      <point x="706" y="0" type="curve" smooth="yes"/>
      <point x="996" y="0"/>
      <point x="1208" y="218"/>
      <point x="1208" y="516" type="curve" smooth="yes"/>
      <point x="1208" y="816"/>
      <point x="996" y="1034"/>
    </contour>
    <contour>
      <point x="706" y="994" type="curve" smooth="yes"/>
      <point x="974" y="994"/>
      <point x="1168" y="792"/>
      <point x="1168" y="516" type="curve" smooth="yes"/>
      <point x="1168" y="240"/>
      <point x="974" y="40"/>
      <point x="706" y="40" type="curve" smooth="yes"/>
      <point x="438" y="40"/>
      <point x="244" y="240"/>
      <point x="244" y="516" type="curve" smooth="yes"/>
      <point x="244" y="792"/>
      <point x="438" y="994"/>
    </contour>
    <contour>
      <point x="204" y="-388" type="line"/>
      <point x="244" y="-388" type="line"/>
      <point x="244" y="1034" type="line"/>
      <point x="204" y="1034" type="line"/>
    </contour>
  </outline>
</glyph>
<glyph name="q" format="2">
  <advance width="1346"/>
  <unicode hex="0071"/>
  <outline>
    <contour>
      <point x="610" y="1038" type="curve" smooth="yes"/>
      <point x="318" y="1038"/>
      <point x="104" y="818"/>
      <point x="104" y="516" type="curve" smooth="yes"/>
      <point x="104" y="216"/>
      <point x="318" y="-4"/>
      <point x="610" y="-4" type="curve" smooth="yes"/>
      <point x="902" y="-4"/>
      <point x="1116" y="216"/>
      <point x="1116" y="516" type="curve"/>
      <point x="1116" y="818"/>
      <point x="902" y="1038"/>
    </contour>
    <contour>
      <point x="610" y="998" type="curve" smooth="yes"/>
      <point x="880" y="998"/>
      <point x="1076" y="794"/>
      <point x="1076" y="516" type="curve" smooth="yes"/>
      <point x="1076" y="238"/>
      <point x="880" y="36"/>
      <point x="610" y="36" type="curve" smooth="yes"/>
      <point x="340" y="36"/>
      <point x="144" y="238"/>
      <point x="144" y="516" type="curve" smooth="yes"/>
      <point x="144" y="794"/>
      <point x="340" y="998"/>
    </contour>
    <contour>
      <point x="1076" y="-388" type="line"/>
      <point x="1116" y="-388" type="line"/>
      <point x="1116" y="1034" type="line"/>
      <point x="1076" y="1034" type="line"/>
    </contour>
  </outline>
</glyph>
<glyph name="r" format="2">
  <advance width="338"/>
  <unicode hex="0072"/>
  <anchor x="120" y="0" name="bottom"/>
  <anchor x="216" y="517" name="top"/>
  <outline>
    <contour>
      <point x="328" y="517" type="line"/>
      <point x="191" y="514"/>
      <point x="111" y="416"/>
      <point x="111" y="253" type="curve"/>
      <point x="129" y="253" type="line"/>
      <point x="129" y="403"/>
      <point x="202" y="494"/>
      <point x="328" y="497" type="curve"/>
    </contour>
    <contour>
      <point x="110" y="0" type="line"/>
      <point x="130" y="0" type="line"/>
      <point x="130" y="517" type="line"/>
      <point x="110" y="517" type="line"/>
    </contour>
  </outline>
</glyph>
<glyph name="s" format="2">
  <advance width="427"/>
  <unicode hex="0073"/>
  <anchor x="210" y="0" name="bottom"/>
  <anchor x="213" y="517" name="top"/>
  <outline>
    <contour>
      <point x="360" y="480" type="line"/>
      <point x="322" y="502"/>
      <point x="277" y="517"/>
      <point x="222" y="517" type="curve" smooth="yes"/>
      <point x="133" y="517"/>
      <point x="58" y="478"/>
      <point x="58" y="393" type="curve" smooth="yes"/>
      <point x="58" y="219"/>
      <point x="375" y="288"/>
      <point x="369" y="129" type="curve" smooth="yes"/>
      <point x="366" y="54"/>
      <point x="296" y="20"/>
      <point x="215" y="20" type="curve" smooth="yes"/>
      <point x="147" y="20"/>
      <point x="87" y="44"/>
      <point x="43" y="87" type="curve"/>
      <point x="30" y="72" type="line"/>
      <point x="76" y="26"/>
      <point x="143" y="0"/>
      <point x="215" y="0" type="curve" smooth="yes"/>
      <point x="305" y="0"/>
      <point x="389" y="41"/>
      <point x="389" y="134" type="curve" smooth="yes"/>
      <point x="389" y="314"/>
      <point x="78" y="240"/>
      <point x="78" y="395" type="curve" smooth="yes"/>
      <point x="78" y="465"/>
      <point x="142" y="497"/>
      <point x="223" y="497" type="curve" smooth="yes"/>
      <point x="274" y="497"/>
      <point x="317" y="484"/>
      <point x="350" y="463" type="curve"/>
    </contour>
  </outline>
</glyph>
<glyph name="t" format="2">
  <advance width="724"/>
  <unicode hex="0074"/>
  <anchor x="470" y="0" name="bottom"/>
  <anchor x="376" y="614" name="center"/>
  <anchor x="272" y="1260" name="top"/>
  <anchor x="484" y="1484" name="topright"/>
  <outline>
    <contour>
      <point x="292" y="1260" type="line"/>
      <point x="252" y="1260" type="line"/>
      <point x="252" y="284" type="line" smooth="yes"/>
      <point x="252" y="96"/>
      <point x="328" y="-2"/>
      <point x="472" y="0" type="curve" smooth="yes"/>
      <point x="546" y="2"/>
      <point x="616" y="28"/>
      <point x="676" y="74" type="curve"/>
      <point x="652" y="106" type="line"/>
      <point x="600" y="64"/>
      <point x="536" y="42"/>
      <point x="472" y="40" type="curve" smooth="yes"/>
      <point x="354" y="38"/>
      <point x="292" y="124"/>
      <point x="292" y="284" type="curve" smooth="yes"/>
    </contour>
    <contour>
      <point x="100" y="994" type="line"/>
      <point x="656" y="994" type="line"/>
      <point x="656" y="1034" type="line"/>
      <point x="100" y="1034" type="line"/>
    </contour>
  </outline>
</glyph>
<glyph name="u" format="2">
  <advance width="637"/>
  <unicode hex="0075"/>
  <anchor x="319" y="0" name="bottom"/>
  <anchor x="527" y="0" name="ogonek"/>
  <anchor x="319" y="517" name="top"/>
  <anchor x="517" y="517" name="topright"/>
  <outline>
    <contour>
      <point x="112" y="517" type="line"/>
      <point x="92" y="517" type="line"/>
      <point x="92" y="204" type="line" smooth="yes"/>
      <point x="92" y="76"/>
      <point x="166" y="0"/>
      <point x="292" y="0" type="curve"/>
      <point x="438" y="3"/>
      <point x="524" y="101"/>
      <point x="524" y="264" type="curve"/>
      <point x="507" y="264" type="line"/>
      <point x="507" y="114"/>
      <point x="427" y="23"/>
      <point x="292" y="20" type="curve"/>
      <point x="179" y="20"/>
      <point x="112" y="88"/>
      <point x="112" y="204" type="curve" smooth="yes"/>
    </contour>
    <contour>
      <point x="507" y="0" type="line"/>
      <point x="527" y="0" type="line"/>
      <point x="527" y="517" type="line"/>
      <point x="507" y="517" type="line"/>
    </contour>
  </outline>
</glyph>
<glyph name="v" format="2">
  <advance width="456"/>
  <unicode hex="0076"/>
  <outline>
    <contour>
      <point x="222" y="0" type="line"/>
      <point x="244" y="0" type="line"/>
      <point x="456" y="517" type="line"/>
      <point x="432" y="517" type="line"/>
      <point x="233" y="23" type="line"/>
      <point x="33" y="517" type="line"/>
      <point x="10" y="517" type="line"/>
    </contour>
  </outline>
</glyph>
<glyph name="w" format="2">
  <advance width="818"/>
  <unicode hex="0077"/>
  <anchor x="409" y="517" name="top"/>
  <outline>
    <contour>
      <point x="207" y="0" type="line"/>
      <point x="229" y="0" type="line"/>
      <point x="415" y="489" type="line"/>
      <point x="599" y="0" type="line"/>
      <point x="621" y="0" type="line"/>
      <point x="818" y="517" type="line"/>
      <point x="795" y="517" type="line"/>
      <point x="611" y="23" type="line"/>
      <point x="426" y="517" type="line"/>
      <point x="402" y="517" type="line"/>
      <point x="219" y="23" type="line"/>
      <point x="34" y="517" type="line"/>
      <point x="10" y="517" type="line"/>
    </contour>
  </outline>
</glyph>
<glyph name="x" format="2">
  <advance width="978"/>
  <unicode hex="0078"/>
  <outline>
    <contour>
      <point x="460" y="536" type="line"/>
      <point x="62" y="0" type="line"/>
      <point x="112" y="0" type="line"/>
      <point x="484" y="502" type="line"/>
      <point x="858" y="0" type="line"/>
      <point x="908" y="0" type="line"/>
      <point x="510" y="536" type="line"/>
      <point x="880" y="1034" type="line"/>
      <point x="832" y="1034" type="line"/>
      <point x="486" y="568" type="line"/>
      <point x="140" y="1034" type="line"/>
      <point x="92" y="1034" type="line"/>
    </contour>
  </outline>
</glyph>
<glyph name="y" format="2">
  <advance width="912"/>
  <unicode hex="0079"/>
  <anchor x="672" y="0" name="bottom"/>
  <anchor x="466" y="1034" name="top"/>
  <outline>
    <contour>
      <point x="912" y="1034" type="line"/>
      <point x="864" y="1034" type="line"/>
      <point x="468" y="46" type="line"/>
      <point x="66" y="1034" type="line"/>
      <point x="20" y="1034" type="line"/>
      <point x="448" y="-4" type="line"/>
      <point x="396" y="-136" type="line" smooth="yes"/>
      <point x="342" y="-272"/>
      <point x="256" y="-348"/>
      <point x="154" y="-348" type="curve" smooth="yes"/>
      <point x="94" y="-348"/>
      <point x="36" y="-332"/>
      <point x="-8" y="-302" type="curve"/>
      <point x="-26" y="-336" type="line"/>
      <point x="22" y="-370"/>
      <point x="86" y="-388"/>
      <point x="158" y="-388" type="curve" smooth="yes"/>
      <point x="268" y="-388"/>
      <point x="364" y="-304"/>
      <point x="428" y="-150" type="curve" smooth="yes"/>
    </contour>
  </outline>
</glyph>
<glyph name="z" format="2">
  <advance width="1020"/>
  <unicode hex="007A"/>
  <anchor x="522" y="0" name="bottom"/>
  <anchor x="510" y="1034" name="top"/>
  <outline>
    <contour>
      <point x="142" y="994" type="line"/>
      <point x="864" y="992" type="line"/>
      <point x="124" y="50" type="line"/>
      <point x="124" y="0" type="line"/>
      <point x="918" y="-2" type="line"/>
      <point x="918" y="38" type="line"/>
      <point x="164" y="40" type="line"/>
      <point x="904" y="982" type="line"/>
      <point x="904" y="1032" type="line"/>
      <point x="142" y="1034" type="line"/>
    </contour>
  </outline>
</glyph>
<glyph name="braceleft" format="2">
  <advance width="317"/>
  <unicode hex="007B"/>
  <outline>
    <contour>
      <point x="74" y="318" type="line"/>
      <point x="74" y="298" type="line"/>
      <point x="93" y="298" type="line"/>
      <point x="122" y="306" type="line" smooth="yes"/>
      <point x="155" y="315"/>
      <point x="168" y="340"/>
      <point x="168" y="390" type="curve" smooth="yes"/>
      <point x="168" y="640" type="line" smooth="yes"/>
      <point x="168" y="696"/>
      <point x="202" y="722"/>
      <point x="276" y="722" type="curve"/>
      <point x="276" y="742" type="line"/>
      <point x="271" y="742" type="line" smooth="yes"/>
      <point x="187" y="742"/>
      <point x="148" y="710"/>
      <point x="148" y="640" type="curve" smooth="yes"/>
      <point x="148" y="390" type="line" smooth="yes"/>
      <point x="148" y="341"/>
      <point x="130" y="318"/>
      <point x="93" y="318" type="curve" smooth="yes"/>
    </contour>
    <contour>
      <point x="93" y="318" type="line"/>
      <point x="74" y="318" type="line"/>
      <point x="74" y="298" type="line"/>
      <point x="93" y="298" type="line" smooth="yes"/>
      <point x="130" y="298"/>
      <point x="148" y="275"/>
      <point x="148" y="226" type="curve" smooth="yes"/>
      <point x="148" y="-24" type="line" smooth="yes"/>
      <point x="148" y="-94"/>
      <point x="187" y="-126"/>
      <point x="271" y="-126" type="curve" smooth="yes"/>
      <point x="276" y="-126" type="line"/>
      <point x="276" y="-106" type="line"/>
      <point x="202" y="-106"/>
      <point x="168" y="-80"/>
      <point x="168" y="-24" type="curve" smooth="yes"/>
      <point x="168" y="226" type="line" smooth="yes"/>
      <point x="168" y="276"/>
      <point x="155" y="301"/>
      <point x="122" y="310" type="curve" smooth="yes"/>
    </contour>
  </outline>
</glyph>
<glyph name="bar" format="2">
  <advance width="220"/>
  <unicode hex="007C"/>
  <outline>
    <contour>
      <point x="100" y="-129" type="line"/>
      <point x="120" y="-129" type="line"/>
      <point x="120" y="824" type="line"/>
      <point x="100" y="824" type="line"/>
    </contour>
  </outline>
</glyph>
<glyph name="braceright" format="2">
  <advance width="634"/>
  <unicode hex="007D"/>
  <outline>
    <contour>
      <point x="486" y="636" type="line"/>
      <point x="486" y="596" type="line"/>
      <point x="448" y="596" type="line"/>
      <point x="390" y="612" type="line" smooth="yes"/>
      <point x="324" y="630"/>
      <point x="298" y="680"/>
      <point x="298" y="780" type="curve" smooth="yes"/>
      <point x="298" y="1280" type="line" smooth="yes"/>
      <point x="298" y="1392"/>
      <point x="230" y="1444"/>
      <point x="82" y="1444" type="curve"/>
      <point x="82" y="1484" type="line"/>
      <point x="92" y="1484" type="line" smooth="yes"/>
      <point x="260" y="1484"/>
      <point x="338" y="1420"/>
      <point x="338" y="1280" type="curve" smooth="yes"/>
      <point x="338" y="780" type="line" smooth="yes"/>
      <point x="338" y="682"/>
      <point x="374" y="636"/>
      <point x="448" y="636" type="curve" smooth="yes"/>
    </contour>
    <contour>
      <point x="448" y="636" type="line"/>
      <point x="486" y="636" type="line"/>
      <point x="486" y="596" type="line"/>
      <point x="448" y="596" type="line" smooth="yes"/>
      <point x="374" y="596"/>
      <point x="338" y="550"/>
      <point x="338" y="452" type="curve" smooth="yes"/>
      <point x="338" y="-48" type="line" smooth="yes"/>
      <point x="338" y="-188"/>
      <point x="260" y="-252"/>
      <point x="92" y="-252" type="curve" smooth="yes"/>
      <point x="82" y="-252" type="line"/>
      <point x="82" y="-212" type="line"/>
      <point x="230" y="-212"/>
      <point x="298" y="-160"/>
      <point x="298" y="-48" type="curve" smooth="yes"/>
      <point x="298" y="452" type="line" smooth="yes"/>
      <point x="298" y="552"/>
      <point x="324" y="602"/>
      <point x="390" y="620" type="curve" smooth="yes"/>
    </contour>
  </outline>
</glyph>
<glyph name="asciitilde" format="2">
  <advance width="960"/>
  <unicode hex="007E"/>
  <outline>
    <contour>
      <point x="756" y="700" type="line"/>
      <point x="756" y="624"/>
      <point x="720" y="580"/>
      <point x="656" y="580" type="curve" smooth="yes"/>
      <point x="550" y="580"/>
      <point x="424" y="720"/>
      <point x="306" y="720" type="curve" smooth="yes"/>
      <point x="218" y="720"/>
      <point x="166" y="660"/>
      <point x="166" y="560" type="curve"/>
      <point x="206" y="560" type="line"/>
      <point x="206" y="636"/>
      <point x="242" y="680"/>
      <point x="306" y="680" type="curve" smooth="yes"/>
      <point x="414" y="680"/>
      <point x="522" y="540"/>
      <point x="656" y="540" type="curve" smooth="yes"/>
      <point x="744" y="540"/>
      <point x="796" y="600"/>
      <point x="796" y="700" type="curve"/>
    </contour>
  </outline>
</glyph>
<glyph name="exclamdown" format="2">
  <advance width="384"/>
  <unicode hex="00A1"/>
  <outline>
    <component base="period" xScale="-1" yScale="-1" xOffset="462" yOffset="1062"/>
    <contour>
      <point x="212" y="22" type="line"/>
      <point x="212" y="686" type="line"/>
      <point x="172" y="686" type="line"/>
      <point x="172" y="22" type="line"/>
      <point x="172" y="-338" type="line"/>
      <point x="212" y="-338" type="line"/>
    </contour>
  </outline>
</glyph>
<glyph name="cent" format="2">
  <advance width="1200"/>
  <unicode hex="00A2"/>
  <outline>
    <component base="c"/>
    <contour>
      <point x="588" y="1012" type="line"/>
      <point x="628" y="1012" type="line"/>
      <point x="628" y="1308" type="line"/>
      <point x="588" y="1308" type="line"/>
    </contour>
    <contour>
      <point x="588" y="-278" type="line"/>
      <point x="628" y="-278" type="line"/>
      <point x="628" y="22" type="line"/>
      <point x="588" y="22" type="line"/>
    </contour>
  </outline>
</glyph>
<glyph name="sterling" format="2">
  <advance width="533"/>
  <unicode hex="00A3"/>
  <outline>
    <contour>
      <point x="52" y="330" type="line"/>
      <point x="357" y="330" type="line"/>
      <point x="357" y="350" type="line"/>
      <point x="52" y="350" type="line"/>
    </contour>
    <contour>
      <point x="318" y="700" type="curve" smooth="yes"/>
      <point x="207" y="700"/>
      <point x="146" y="630"/>
      <point x="146" y="503" type="curve" smooth="yes"/>
      <point x="146" y="11" type="line"/>
      <point x="155" y="20" type="line"/>
      <point x="52" y="20" type="line"/>
      <point x="52" y="0" type="line"/>
      <point x="483" y="0" type="line"/>
      <point x="483" y="20" type="line"/>
      <point x="157" y="20" type="line"/>
      <point x="166" y="11" type="line"/>
      <point x="166" y="503" type="line" smooth="yes"/>
      <point x="166" y="618"/>
      <point x="220" y="680"/>
      <point x="318" y="680" type="curve" smooth="yes"/>
      <point x="382" y="680"/>
      <point x="438" y="648"/>
      <point x="479" y="588" type="curve"/>
      <point x="493" y="602" type="line"/>
      <point x="449" y="665"/>
      <point x="387" y="700"/>
    </contour>
  </outline>
</glyph>
<glyph name="currency" format="2">
  <advance width="1452"/>
  <unicode hex="00A4"/>
  <outline>
    <contour>
      <point x="726" y="1178" type="curve" smooth="yes"/>
      <point x="418" y="1178"/>
      <point x="166" y="932"/>
      <point x="166" y="632" type="curve" smooth="yes"/>
      <point x="166" y="336"/>
      <point x="418" y="92"/>
      <point x="726" y="92" type="curve" smooth="yes"/>
      <point x="1038" y="92"/>
      <point x="1292" y="336"/>
      <point x="1292" y="632" type="curve" smooth="yes"/>
      <point x="1292" y="932"/>
      <point x="1038" y="1178"/>
    </contour>
    <contour>
      <point x="726" y="1138" type="curve" smooth="yes"/>
      <point x="1016" y="1138"/>
      <point x="1252" y="910"/>
      <point x="1252" y="632" type="curve" smooth="yes"/>
      <point x="1252" y="358"/>
      <point x="1016" y="132"/>
      <point x="726" y="132" type="curve" smooth="yes"/>
      <point x="440" y="132"/>
      <point x="206" y="358"/>
      <point x="206" y="632" type="curve" smooth="yes"/>
      <point x="206" y="910"/>
      <point x="440" y="1138"/>
    </contour>
    <contour>
      <point x="104" y="1230" type="line"/>
      <point x="344" y="988" type="line"/>
      <point x="374" y="1016" type="line"/>
      <point x="132" y="1258" type="line"/>
    </contour>
    <contour>
      <point x="104" y="40" type="line"/>
      <point x="132" y="12" type="line"/>
      <point x="374" y="254" type="line"/>
      <point x="344" y="282" type="line"/>
    </contour>
    <contour>
      <point x="1078" y="1016" type="line"/>
      <point x="1108" y="988" type="line"/>
      <point x="1348" y="1230" type="line"/>
      <point x="1320" y="1258" type="line"/>
    </contour>
    <contour>
      <point x="1078" y="254" type="line"/>
      <point x="1320" y="12" type="line"/>
      <point x="1348" y="40" type="line"/>
      <point x="1108" y="282" type="line"/>
    </contour>
  </outline>
</glyph>
<glyph name="yen" format="2">
  <advance width="607"/>
  <unicode hex="00A5"/>
  <outline>
    <contour>
      <point x="302" y="258" type="line"/>
      <point x="308" y="258" type="line"/>
      <point x="597" y="700" type="line"/>
      <point x="573" y="700" type="line"/>
      <point x="305" y="289" type="line"/>
      <point x="34" y="700" type="line"/>
      <point x="10" y="700" type="line"/>
    </contour>
    <contour>
      <point x="295" y="0" type="line"/>
      <point x="315" y="0" type="line"/>
      <point x="315" y="277" type="line"/>
      <point x="295" y="277" type="line"/>
    </contour>
    <contour>
      <point x="75" y="258" type="line"/>
      <point x="536" y="258" type="line"/>
      <point x="536" y="278" type="line"/>
      <point x="75" y="278" type="line"/>
    </contour>
    <contour>
      <point x="75" y="148" type="line"/>
      <point x="536" y="148" type="line"/>
      <point x="536" y="168" type="line"/>
      <point x="75" y="168" type="line"/>
    </contour>
  </outline>
</glyph>
<glyph name="brokenbar" format="2">
  <advance width="220"/>
  <unicode hex="00A6"/>
  <outline>
    <contour>
      <point x="100" y="471" type="line"/>
      <point x="120" y="471" type="line"/>
      <point x="120" y="824" type="line"/>
      <point x="100" y="824" type="line"/>
    </contour>
    <contour>
      <point x="100" y="-129" type="line"/>
      <point x="120" y="-129" type="line"/>
      <point x="120" y="224" type="line"/>
      <point x="100" y="224" type="line"/>
    </contour>
  </outline>
</glyph>
<glyph name="section" format="2">
  <advance width="431"/>
  <unicode hex="00A7"/>
  <outline>
    <contour>
      <point x="365" y="655" type="line"/>
      <point x="325" y="681"/>
      <point x="278" y="694"/>
      <point x="226" y="694" type="curve" smooth="yes"/>
      <point x="129" y="694"/>
      <point x="61" y="649"/>
      <point x="61" y="571" type="curve" smooth="yes"/>
      <point x="61" y="511"/>
      <point x="102" y="468"/>
      <point x="206" y="436" type="curve"/>
      <point x="115" y="429"/>
      <point x="59" y="387"/>
      <point x="59" y="314" type="curve" smooth="yes"/>
      <point x="59" y="140"/>
      <point x="372" y="206"/>
      <point x="372" y="54" type="curve" smooth="yes"/>
      <point x="372" y="-20"/>
      <point x="299" y="-60"/>
      <point x="214" y="-60" type="curve" smooth="yes"/>
      <point x="148" y="-60"/>
      <point x="88" y="-36"/>
      <point x="44" y="7" type="curve"/>
      <point x="30" y="-7" type="line"/>
      <point x="72" y="-50"/>
      <point x="138" y="-80"/>
      <point x="216" y="-80" type="curve" smooth="yes"/>
      <point x="316" y="-80"/>
      <point x="391" y="-30"/>
      <point x="391" y="53" type="curve" smooth="yes"/>
      <point x="391" y="111"/>
      <point x="354" y="155"/>
      <point x="271" y="182" type="curve"/>
      <point x="325" y="188"/>
      <point x="393" y="234"/>
      <point x="393" y="314" type="curve" smooth="yes"/>
      <point x="393" y="486"/>
      <point x="80" y="419"/>
      <point x="80" y="572" type="curve" smooth="yes"/>
      <point x="80" y="638"/>
      <point x="139" y="674"/>
      <point x="226" y="674" type="curve" smooth="yes"/>
      <point x="277" y="674"/>
      <point x="321" y="662"/>
      <point x="353" y="640" type="curve"/>
    </contour>
    <contour>
      <point x="225" y="417" type="curve" smooth="yes"/>
      <point x="319" y="417"/>
      <point x="374" y="373"/>
      <point x="374" y="310" type="curve" smooth="yes"/>
      <point x="374" y="243"/>
      <point x="313" y="197"/>
      <point x="240" y="197" type="curve" smooth="yes"/>
      <point x="157" y="197"/>
      <point x="78" y="256"/>
      <point x="78" y="321" type="curve" smooth="yes"/>
      <point x="78" y="378"/>
      <point x="137" y="417"/>
    </contour>
  </outline>
</glyph>
<glyph name="copyright" format="2">
  <advance width="1554"/>
  <unicode hex="00A9"/>
  <outline>
    <contour>
      <point x="1042" y="964" type="line"/>
      <point x="974" y="1024"/>
      <point x="882" y="1062"/>
      <point x="786" y="1062" type="curve" smooth="yes"/>
      <point x="578" y="1062"/>
      <point x="410" y="898"/>
      <point x="410" y="698" type="curve" smooth="yes"/>
      <point x="410" y="496"/>
      <point x="578" y="332"/>
      <point x="784" y="332" type="curve" smooth="yes"/>
      <point x="882" y="332"/>
      <point x="974" y="370"/>
      <point x="1042" y="432" type="curve"/>
      <point x="1016" y="458" type="line"/>
      <point x="954" y="404"/>
      <point x="872" y="372"/>
      <point x="786" y="372" type="curve" smooth="yes"/>
      <point x="600" y="372"/>
      <point x="450" y="518"/>
      <point x="450" y="698" type="curve" smooth="yes"/>
      <point x="450" y="876"/>
      <point x="600" y="1022"/>
      <point x="786" y="1022" type="curve" smooth="yes"/>
      <point x="874" y="1022"/>
      <point x="954" y="990"/>
      <point x="1016" y="936" type="curve"/>
    </contour>
    <contour>
      <point x="778" y="1378" type="curve" smooth="yes"/>
      <point x="396" y="1378"/>
      <point x="100" y="1066"/>
      <point x="100" y="696" type="curve" smooth="yes"/>
      <point x="100" y="326"/>
      <point x="394" y="18"/>
      <point x="774" y="18" type="curve" smooth="yes"/>
      <point x="1156" y="18"/>
      <point x="1454" y="330"/>
      <point x="1454" y="700" type="curve" smooth="yes"/>
      <point x="1454" y="1072"/>
      <point x="1158" y="1378"/>
    </contour>
    <contour>
      <point x="778" y="1338" type="curve" smooth="yes"/>
      <point x="1138" y="1338"/>
      <point x="1414" y="1052"/>
      <point x="1414" y="700" type="curve" smooth="yes"/>
      <point x="1414" y="350"/>
      <point x="1136" y="58"/>
      <point x="774" y="58" type="curve" smooth="yes"/>
      <point x="414" y="58"/>
      <point x="140" y="346"/>
      <point x="140" y="696" type="curve" smooth="yes"/>
      <point x="140" y="1046"/>
      <point x="416" y="1338"/>
    </contour>
  </outline>
</glyph>
<glyph name="ordfeminine" format="2">
  <advance width="744"/>
  <unicode hex="00AA"/>
  <outline>
    <contour>
      <point x="578" y="1142" type="line"/>
      <point x="578" y="1174" type="line"/>
      <point x="336" y="1174" type="line" smooth="yes"/>
      <point x="192" y="1174"/>
      <point x="102" y="1116"/>
      <point x="102" y="1016" type="curve" smooth="yes"/>
      <point x="102" y="914"/>
      <point x="184" y="842"/>
      <point x="306" y="842" type="curve" smooth="yes"/>
      <point x="436" y="842"/>
      <point x="536" y="896"/>
      <point x="588" y="1018" type="curve"/>
      <point x="566" y="1034" type="line"/>
      <point x="518" y="920"/>
      <point x="430" y="876"/>
      <point x="314" y="876" type="curve" smooth="yes"/>
      <point x="210" y="876"/>
      <point x="142" y="934"/>
      <point x="142" y="1018" type="curve" smooth="yes"/>
      <point x="142" y="1098"/>
      <point x="214" y="1142"/>
      <point x="340" y="1142" type="curve" smooth="yes"/>
    </contour>
    <contour>
      <point x="566" y="842" type="line"/>
      <point x="606" y="842" type="line"/>
      <point x="604" y="1242" type="line" smooth="yes"/>
      <point x="604" y="1366"/>
      <point x="522" y="1446"/>
      <point x="376" y="1446" type="curve" smooth="yes"/>
      <point x="286" y="1446"/>
      <point x="208" y="1412"/>
      <point x="134" y="1360" type="curve"/>
      <point x="152" y="1328" type="line"/>
      <point x="222" y="1378"/>
      <point x="290" y="1408"/>
      <point x="370" y="1408" type="curve" smooth="yes"/>
      <point x="498" y="1408"/>
      <point x="564" y="1346"/>
      <point x="564" y="1240" type="curve" smooth="yes"/>
    </contour>
  </outline>
</glyph>
<glyph name="logicalnot" format="2">
  <advance width="534"/>
  <unicode hex="00AC"/>
  <outline>
    <contour>
      <point x="40" y="340" type="line"/>
      <point x="440" y="340" type="line"/>
      <point x="440" y="360" type="line"/>
      <point x="40" y="360" type="line"/>
    </contour>
    <contour>
      <point x="420" y="160" type="line"/>
      <point x="440" y="160" type="line"/>
      <point x="440" y="360" type="line"/>
      <point x="420" y="360" type="line"/>
    </contour>
  </outline>
</glyph>
<glyph name="registered" format="2">
  <advance width="777"/>
  <unicode hex="00AE"/>
  <outline>
    <contour>
      <point x="389" y="689" type="curve" smooth="yes"/>
      <point x="198" y="689"/>
      <point x="50" y="533"/>
      <point x="50" y="348" type="curve" smooth="yes"/>
      <point x="50" y="163"/>
      <point x="197" y="9"/>
      <point x="387" y="9" type="curve" smooth="yes"/>
      <point x="578" y="9"/>
      <point x="727" y="165"/>
      <point x="727" y="350" type="curve" smooth="yes"/>
      <point x="727" y="536"/>
      <point x="579" y="689"/>
    </contour>
    <contour>
      <point x="389" y="669" type="curve" smooth="yes"/>
      <point x="569" y="669"/>
      <point x="707" y="526"/>
      <point x="707" y="350" type="curve" smooth="yes"/>
      <point x="707" y="175"/>
      <point x="568" y="29"/>
      <point x="387" y="29" type="curve" smooth="yes"/>
      <point x="207" y="29"/>
      <point x="70" y="173"/>
      <point x="70" y="348" type="curve" smooth="yes"/>
      <point x="70" y="523"/>
      <point x="208" y="669"/>
    </contour>
    <contour>
      <point x="261" y="543" type="line"/>
      <point x="261" y="168" type="line"/>
      <point x="281" y="168" type="line"/>
      <point x="281" y="294" type="line"/>
      <point x="392" y="294" type="line" smooth="yes"/>
      <point x="485" y="294"/>
      <point x="537" y="341"/>
      <point x="537" y="421" type="curve" smooth="yes"/>
      <point x="537" y="499"/>
      <point x="485" y="543"/>
      <point x="392" y="543" type="curve" smooth="yes"/>
    </contour>
    <contour>
      <point x="281" y="314" type="line"/>
      <point x="281" y="523" type="line"/>
      <point x="392" y="523" type="line" smooth="yes"/>
      <point x="471" y="523"/>
      <point x="517" y="488"/>
      <point x="517" y="421" type="curve" smooth="yes"/>
      <point x="517" y="353"/>
      <point x="471" y="314"/>
      <point x="392" y="314" type="curve" smooth="yes"/>
    </contour>
    <contour>
      <point x="514" y="168" type="line"/>
      <point x="539" y="168" type="line"/>
      <point x="440" y="305" type="line"/>
      <point x="416" y="305" type="line"/>
    </contour>
  </outline>
</glyph>
<glyph name="degree" format="2">
  <advance width="600"/>
  <unicode hex="00B0"/>
  <outline>
    <contour>
      <point x="376" y="1592" type="curve" smooth="yes"/>
      <point x="256" y="1592"/>
      <point x="152" y="1490"/>
      <point x="152" y="1374" type="curve" smooth="yes"/>
      <point x="152" y="1258"/>
      <point x="256" y="1158"/>
      <point x="376" y="1158" type="curve" smooth="yes"/>
      <point x="498" y="1158"/>
      <point x="602" y="1258"/>
      <point x="602" y="1374" type="curve" smooth="yes"/>
      <point x="602" y="1490"/>
      <point x="498" y="1592"/>
    </contour>
    <contour>
      <point x="376" y="1552" type="curve" smooth="yes"/>
      <point x="478" y="1552"/>
      <point x="562" y="1470"/>
      <point x="562" y="1374" type="curve" smooth="yes"/>
      <point x="562" y="1278"/>
      <point x="478" y="1198"/>
      <point x="376" y="1198" type="curve" smooth="yes"/>
      <point x="276" y="1198"/>
      <point x="192" y="1278"/>
      <point x="192" y="1374" type="curve" smooth="yes"/>
      <point x="192" y="1470"/>
      <point x="276" y="1552"/>
    </contour>
  </outline>
</glyph>
<glyph name="paragraph" format="2">
  <advance width="1114"/>
  <unicode hex="00B6"/>
  <outline>
    <contour>
      <point x="414" y="-224" type="line"/>
      <point x="454" y="-224" type="line"/>
      <point x="454" y="1444" type="line"/>
      <point x="818" y="1444" type="line"/>
      <point x="818" y="-224" type="line"/>
      <point x="858" y="-224" type="line"/>
      <point x="858" y="1484" type="line"/>
      <point x="406" y="1484" type="line"/>
      <point x="124" y="1484"/>
      <point x="14" y="1320"/>
      <point x="14" y="1152" type="curve" smooth="yes"/>
      <point x="14" y="1028"/>
      <point x="80" y="834"/>
      <point x="338" y="834" type="curve" smooth="yes"/>
      <point x="362" y="834"/>
      <point x="386" y="836"/>
      <point x="414" y="838" type="curve"/>
    </contour>
  </outline>
</glyph>
<glyph name="ordmasculine" format="2">
  <advance width="792"/>
  <unicode hex="00BA"/>
  <outline>
    <contour>
      <point x="396" y="1408" type="curve" smooth="yes"/>
      <point x="218" y="1408"/>
      <point x="90" y="1282"/>
      <point x="90" y="1106" type="curve" smooth="yes"/>
      <point x="90" y="928"/>
      <point x="218" y="804"/>
      <point x="396" y="804" type="curve" smooth="yes"/>
      <point x="572" y="804"/>
      <point x="702" y="928"/>
      <point x="702" y="1106" type="curve" smooth="yes"/>
      <point x="702" y="1282"/>
      <point x="572" y="1408"/>
    </contour>
    <contour>
      <point x="396" y="1370" type="curve" smooth="yes"/>
      <point x="550" y="1370"/>
      <point x="660" y="1262"/>
      <point x="660" y="1106" type="curve" smooth="yes"/>
      <point x="660" y="948"/>
      <point x="550" y="840"/>
      <point x="396" y="840" type="curve" smooth="yes"/>
      <point x="242" y="840"/>
      <point x="130" y="948"/>
      <point x="130" y="1106" type="curve" smooth="yes"/>
      <point x="130" y="1262"/>
      <point x="242" y="1370"/>
    </contour>
  </outline>
</glyph>
<glyph name="guillemotright" format="2">
  <advance width="762"/>
  <unicode hex="00BB"/>
  <outline>
    <contour>
      <point x="646" y="500" type="line"/>
      <point x="428" y="806" type="line"/>
      <point x="380" y="806" type="line"/>
      <point x="596" y="500" type="line"/>
      <point x="380" y="188" type="line"/>
      <point x="428" y="188" type="line"/>
    </contour>
    <contour>
      <point x="420" y="500" type="line"/>
      <point x="202" y="806" type="line"/>
      <point x="154" y="806" type="line"/>
      <point x="370" y="500" type="line"/>
      <point x="154" y="188" type="line"/>
      <point x="202" y="188" type="line"/>
    </contour>
  </outline>
</glyph>
<glyph name="onequarter" format="2">
  <advance width="1420"/>
  <unicode hex="00BC"/>
  <outline>
    <contour>
      <point x="111" y="0" type="line"/>
      <point x="163" y="0" type="line"/>
      <point x="1241" y="1400" type="line"/>
      <point x="1189" y="1400" type="line"/>
    </contour>
    <contour>
      <point x="808" y="276" type="line"/>
      <point x="808" y="234" type="line"/>
      <point x="1213" y="234" type="line"/>
      <point x="1213" y="0" type="line"/>
      <point x="1255" y="0" type="line"/>
      <point x="1255" y="234" type="line"/>
      <point x="1387" y="234" type="line"/>
      <point x="1387" y="270" type="line"/>
      <point x="1255" y="270" type="line"/>
      <point x="1255" y="523" type="line"/>
      <point x="1213" y="523" type="line"/>
      <point x="1213" y="270" type="line"/>
      <point x="850" y="270" type="line"/>
      <point x="1169" y="813" type="line"/>
      <point x="1124" y="813" type="line"/>
    </contour>
    <contour>
      <point x="300" y="584" type="line"/>
      <point x="334" y="584" type="line"/>
      <point x="334" y="1397" type="line"/>
      <point x="302" y="1397" type="line"/>
      <point x="58" y="1243" type="line"/>
      <point x="75" y="1215" type="line"/>
      <point x="300" y="1354" type="line"/>
    </contour>
  </outline>
</glyph>
<glyph name="onehalf" format="2">
  <advance width="1370"/>
  <unicode hex="00BD"/>
  <outline>
    <contour>
      <point x="39" y="0" type="line"/>
      <point x="91" y="0" type="line"/>
      <point x="1169" y="1400" type="line"/>
      <point x="1117" y="1400" type="line"/>
    </contour>
    <contour>
      <point x="760" y="42" type="line"/>
      <point x="760" y="0" type="line"/>
      <point x="1317" y="0" type="line"/>
      <point x="1317" y="38" type="line"/>
      <point x="808" y="38" type="line"/>
      <point x="1111" y="363" type="line"/>
      <point x="1145" y="397"/>
      <point x="1199" y="467"/>
      <point x="1237" y="534"/>
      <point x="1257" y="597"/>
      <point x="1257" y="625" type="qcurve" smooth="yes"/>
      <point x="1257" y="671"/>
      <point x="1223" y="744"/>
      <point x="1161" y="796"/>
      <point x="1073" y="823"/>
      <point x="1018" y="823" type="qcurve" smooth="yes"/>
      <point x="949" y="823"/>
      <point x="811" y="764"/>
      <point x="758" y="711" type="qcurve"/>
      <point x="782" y="681" type="line"/>
      <point x="830" y="729"/>
      <point x="956" y="785"/>
      <point x="1018" y="785" type="qcurve" smooth="yes"/>
      <point x="1111" y="785"/>
      <point x="1215" y="698"/>
      <point x="1215" y="623" type="qcurve" smooth="yes"/>
      <point x="1215" y="570"/>
      <point x="1144" y="453"/>
      <point x="1083" y="387" type="qcurve" smooth="yes"/>
    </contour>
    <contour>
      <point x="300" y="583" type="line"/>
      <point x="334" y="583" type="line"/>
      <point x="334" y="1396" type="line"/>
      <point x="302" y="1396" type="line"/>
      <point x="58" y="1242" type="line"/>
      <point x="75" y="1214" type="line"/>
      <point x="300" y="1353" type="line"/>
    </contour>
  </outline>
</glyph>
<glyph name="questiondown" format="2">
  <advance width="1108"/>
  <unicode hex="00BF"/>
  <outline>
    <contour>
      <point x="568" y="658" type="line"/>
      <point x="568" y="414" type="line" smooth="yes"/>
      <point x="568" y="344"/>
      <point x="178" y="186"/>
      <point x="178" y="-38" type="curve" smooth="yes"/>
      <point x="178" y="-236"/>
      <point x="344" y="-372"/>
      <point x="608" y="-372" type="curve" smooth="yes"/>
      <point x="812" y="-372"/>
      <point x="964" y="-308"/>
      <point x="1068" y="-192" type="curve"/>
      <point x="1040" y="-164" type="line"/>
      <point x="938" y="-278"/>
      <point x="800" y="-334"/>
      <point x="608" y="-334" type="curve" smooth="yes"/>
      <point x="354" y="-334"/>
      <point x="218" y="-208"/>
      <point x="218" y="-36" type="curve" smooth="yes"/>
      <point x="218" y="188"/>
      <point x="608" y="304"/>
      <point x="608" y="414" type="curve" smooth="yes"/>
      <point x="608" y="658" type="line"/>
    </contour>
    <contour>
      <point x="588" y="1040" type="curve" smooth="yes"/>
      <point x="560" y="1040"/>
      <point x="536" y="1016"/>
      <point x="536" y="988" type="curve" smooth="yes"/>
      <point x="536" y="960"/>
      <point x="560" y="936"/>
      <point x="588" y="936" type="curve" smooth="yes"/>
      <point x="616" y="936"/>
      <point x="640" y="960"/>
      <point x="640" y="988" type="curve" smooth="yes"/>
      <point x="640" y="1016"/>
      <point x="616" y="1040"/>
    </contour>
  </outline>
</glyph>
<glyph name="Aring" format="2">
  <advance width="1374"/>
  <unicode hex="00C5"/>
  <anchor x="684" y="0" name="bottom"/>
  <anchor x="1354" y="0" name="ogonek"/>
  <anchor x="686" y="1763" name="top"/>
  <anchor x="210" y="1400" name="topleft"/>
  <outline>
    <contour>
      <point x="20" y="0" type="line"/>
      <point x="68" y="0" type="line"/>
      <point x="683" y="1354" type="line"/>
      <point x="1308" y="0" type="line"/>
      <point x="1354" y="0" type="line"/>
      <point x="705" y="1400" type="line"/>
      <point x="661" y="1400" type="line"/>
    </contour>
    <contour>
      <point x="250" y="427" type="line"/>
      <point x="1120" y="427" type="line"/>
      <point x="1120" y="467" type="line"/>
      <point x="250" y="467" type="line"/>
    </contour>
    <contour>
      <point x="683" y="1726" type="curve" smooth="yes"/>
      <point x="587" y="1726"/>
      <point x="505" y="1644"/>
      <point x="505" y="1552" type="curve" smooth="yes"/>
      <point x="505" y="1460"/>
      <point x="587" y="1380"/>
      <point x="683" y="1380" type="curve" smooth="yes"/>
      <point x="781" y="1380"/>
      <point x="863" y="1460"/>
      <point x="863" y="1552" type="curve" smooth="yes"/>
      <point x="863" y="1644"/>
      <point x="781" y="1726"/>
    </contour>
    <contour>
      <point x="683" y="1690" type="curve" smooth="yes"/>
      <point x="761" y="1690"/>
      <point x="829" y="1628"/>
      <point x="829" y="1552" type="curve" smooth="yes"/>
      <point x="829" y="1478"/>
      <point x="761" y="1416"/>
      <point x="683" y="1416" type="curve" smooth="yes"/>
      <point x="605" y="1416"/>
      <point x="539" y="1478"/>
      <point x="539" y="1552" type="curve" smooth="yes"/>
      <point x="539" y="1628"/>
      <point x="605" y="1690"/>
    </contour>
  </outline>
</glyph>
<glyph name="AE" format="2">
  <advance width="988"/>
  <unicode hex="00C6"/>
  <anchor x="666" y="0" name="bottom"/>
  <anchor x="924" y="10" name="ogonek"/>
  <anchor x="599" y="700" name="top"/>
  <outline>
    <contour>
      <point x="471.659" y="0" type="line"/>
      <point x="923.291" y="0" type="line"/>
      <point x="923.291" y="20.028" type="line"/>
      <point x="491.687" y="20.028" type="line"/>
      <point x="491.687" y="350.49" type="line"/>
      <point x="863.207" y="350.49" type="line"/>
      <point x="863.207" y="370.518" type="line"/>
      <point x="491.687" y="370.518" type="line"/>
      <point x="491.687" y="679.951" type="line"/>
      <point x="909.271" y="679.951" type="line"/>
      <point x="909.271" y="699.979" type="line"/>
      <point x="471.659" y="699.979" type="line"/>
    </contour>
    <contour>
      <point x="10.014" y="0" type="line"/>
      <point x="34.0476" y="0" type="line"/>
      <point x="442.619" y="679.951" type="line"/>
      <point x="731.022" y="679.951" type="line"/>
      <point x="737.03" y="699.979" type="line"/>
      <point x="431.603" y="699.979" type="line"/>
    </contour>
    <contour>
      <point x="156.218" y="223.312" type="line"/>
      <point x="486.68" y="223.312" type="line"/>
      <point x="487.682" y="243.34" type="line"/>
      <point x="157.22" y="243.34" type="line"/>
    </contour>
  </outline>
</glyph>
<glyph name="Ccedilla" format="2">
  <advance width="706"/>
  <unicode hex="00C7"/>
  <anchor x="390" y="-220" name="bottom"/>
  <anchor x="405" y="569" name="top"/>
  <outline>
    <contour>
      <point x="650" y="613" type="line"/>
      <point x="586" y="670"/>
      <point x="502" y="704"/>
      <point x="410" y="704" type="curve" smooth="yes"/>
      <point x="212" y="704"/>
      <point x="50" y="545"/>
      <point x="50" y="350" type="curve" smooth="yes"/>
      <point x="50" y="163"/>
      <point x="203" y="6"/>
      <point x="393" y="-3" type="curve"/>
      <point x="373" y="-75" type="line"/>
      <point x="402" y="-75" type="line" smooth="yes"/>
      <point x="439" y="-75"/>
      <point x="460" y="-102"/>
      <point x="460" y="-130" type="curve" smooth="yes"/>
      <point x="460" y="-161"/>
      <point x="438" y="-192"/>
      <point x="392" y="-192" type="curve" smooth="yes"/>
      <point x="370" y="-192"/>
      <point x="342" y="-183"/>
      <point x="326" y="-171" type="curve"/>
      <point x="318" y="-191" type="line"/>
      <point x="335" y="-204"/>
      <point x="367" y="-213"/>
      <point x="392" y="-213" type="curve" smooth="yes"/>
      <point x="451" y="-213"/>
      <point x="481" y="-171"/>
      <point x="481" y="-130" type="curve" smooth="yes"/>
      <point x="481" y="-93"/>
      <point x="454" y="-57"/>
      <point x="400" y="-56" type="curve"/>
      <point x="415" y="-3" type="line"/>
      <point x="505" y="-2"/>
      <point x="588" y="33"/>
      <point x="651" y="89" type="curve"/>
      <point x="637" y="102" type="line"/>
      <point x="577" y="48"/>
      <point x="497" y="16"/>
      <point x="410" y="16" type="curve" smooth="yes"/>
      <point x="222" y="16"/>
      <point x="69" y="167"/>
      <point x="69" y="350" type="curve" smooth="yes"/>
      <point x="69" y="535"/>
      <point x="222" y="685"/>
      <point x="410" y="685" type="curve" smooth="yes"/>
      <point x="497" y="685"/>
      <point x="577" y="654"/>
      <point x="637" y="600" type="curve"/>
    </contour>
  </outline>
</glyph>
<glyph name="multiply" format="2">
  <advance width="960"/>
  <unicode hex="00D7"/>
  <outline>
    <contour>
      <point x="184" y="372" type="line"/>
      <point x="212" y="344" type="line"/>
      <point x="776" y="908" type="line"/>
      <point x="748" y="936" type="line"/>
    </contour>
    <contour>
      <point x="184" y="908" type="line"/>
      <point x="748" y="344" type="line"/>
      <point x="776" y="372" type="line"/>
      <point x="212" y="936" type="line"/>
    </contour>
  </outline>
</glyph>
<glyph name="Oslash" format="2">
  <advance width="819"/>
  <unicode hex="00D8"/>
  <anchor x="410" y="0" name="bottom"/>
  <anchor x="410" y="350" name="center"/>
  <anchor x="592" y="0" name="ogonek"/>
  <anchor x="411" y="700" name="top"/>
  <anchor x="20" y="700" name="topleft"/>
  <anchor x="579" y="700" name="topright"/>
  <outline>
    <contour>
      <point x="100.14" y="-55.077" type="line"/>
      <point x="121.169" y="-55.077" type="line"/>
      <point x="719.005" y="756.057" type="line"/>
      <point x="697.976" y="756.057" type="line"/>
    </contour>
    <contour>
      <point x="409.573" y="699.979" type="curve" smooth="yes"/>
      <point x="212.297" y="699.979"/>
      <point x="50.07" y="542.759"/>
      <point x="50.07" y="350.49" type="curve" smooth="yes"/>
      <point x="50.07" y="158.221"/>
      <point x="212.297" y="0"/>
      <point x="409.573" y="0" type="curve" smooth="yes"/>
      <point x="606.848" y="0"/>
      <point x="769.075" y="158.221"/>
      <point x="769.075" y="350.49" type="curve" smooth="yes"/>
      <point x="769.075" y="542.759"/>
      <point x="606.848" y="699.979"/>
    </contour>
    <contour>
      <point x="409.573" y="679.951" type="curve" smooth="yes"/>
      <point x="595.833" y="679.951"/>
      <point x="749.047" y="531.743"/>
      <point x="749.047" y="350.49" type="curve" smooth="yes"/>
      <point x="749.047" y="169.237"/>
      <point x="595.833" y="20.028"/>
      <point x="409.573" y="20.028" type="curve" smooth="yes"/>
      <point x="223.312" y="20.028"/>
      <point x="70.098" y="169.237"/>
      <point x="70.098" y="350.49" type="curve" smooth="yes"/>
      <point x="70.098" y="531.743"/>
      <point x="223.312" y="679.951"/>
    </contour>
  </outline>
</glyph>
<glyph name="Thorn" format="2">
  <advance width="663"/>
  <unicode hex="00DE"/>
  <outline>
    <contour>
      <point x="139" y="588" type="line"/>
      <point x="141" y="568" type="line"/>
      <point x="335" y="568" type="line" smooth="yes"/>
      <point x="522" y="568"/>
      <point x="613" y="502"/>
      <point x="613" y="368" type="curve" smooth="yes"/>
      <point x="613" y="229"/>
      <point x="522" y="162"/>
      <point x="335" y="162" type="curve" smooth="yes"/>
      <point x="143" y="162" type="line"/>
      <point x="143" y="142" type="line"/>
      <point x="335" y="142" type="line" smooth="yes"/>
      <point x="535" y="142"/>
      <point x="633" y="216"/>
      <point x="633" y="368" type="curve" smooth="yes"/>
      <point x="633" y="516"/>
      <point x="535" y="588"/>
      <point x="335" y="588" type="curve" smooth="yes"/>
    </contour>
    <contour>
      <point x="128" y="0" type="line"/>
      <point x="148" y="0" type="line"/>
      <point x="148" y="700" type="line"/>
      <point x="128" y="700" type="line"/>
    </contour>
  </outline>
</glyph>
<glyph name="germandbls" format="2">
  <advance width="1280"/>
  <unicode hex="00DF"/>
  <outline>
    <contour>
      <point x="220" y="0" type="line"/>
      <point x="260" y="0" type="line"/>
      <point x="260" y="992" type="line" smooth="yes"/>
      <point x="260" y="1266"/>
      <point x="418" y="1444"/>
      <point x="662" y="1444" type="curve" smooth="yes"/>
      <point x="882" y="1444"/>
      <point x="1024" y="1316"/>
      <point x="1024" y="1120" type="curve" smooth="yes"/>
      <point x="1024" y="908"/>
      <point x="870" y="770"/>
      <point x="632" y="770" type="curve"/>
      <point x="632" y="730" type="line"/>
      <point x="642" y="730" type="line"/>
      <point x="918" y="730"/>
      <point x="1096" y="598"/>
      <point x="1096" y="394" type="curve" smooth="yes"/>
      <point x="1096" y="180"/>
      <point x="924" y="40"/>
      <point x="660" y="40" type="curve" smooth="yes"/>
      <point x="550" y="40" type="line"/>
      <point x="550" y="0" type="line"/>
      <point x="660" y="0" type="line" smooth="yes"/>
      <point x="950" y="0"/>
      <point x="1136" y="154"/>
      <point x="1136" y="394" type="curve" smooth="yes"/>
      <point x="1136" y="586"/>
      <point x="990" y="728"/>
      <point x="766" y="754" type="curve"/>
      <point x="946" y="788"/>
      <point x="1064" y="932"/>
      <point x="1064" y="1120" type="curve" smooth="yes"/>
      <point x="1064" y="1342"/>
      <point x="906" y="1484"/>
      <point x="662" y="1484" type="curve" smooth="yes"/>
      <point x="394" y="1484"/>
      <point x="220" y="1290"/>
      <point x="220" y="992" type="curve" smooth="yes"/>
    </contour>
  </outline>
</glyph>
<glyph name="ae" format="2">
  <advance width="988"/>
  <unicode hex="00E6"/>
  <anchor x="494" y="517" name="top"/>
  <outline>
    <contour>
      <point x="470" y="259" type="line"/>
      <point x="940" y="259" type="line"/>
      <point x="940" y="411"/>
      <point x="841" y="517"/>
      <point x="700" y="517" type="curve" smooth="yes"/>
      <point x="593" y="517"/>
      <point x="504" y="457"/>
      <point x="467" y="359" type="curve"/>
      <point x="461" y="459"/>
      <point x="393" y="517"/>
      <point x="283" y="517" type="curve" smooth="yes"/>
      <point x="217" y="517"/>
      <point x="156" y="493"/>
      <point x="89" y="441" type="curve"/>
      <point x="101" y="425" type="line"/>
      <point x="166" y="475"/>
      <point x="221" y="497"/>
      <point x="283" y="497" type="curve" smooth="yes"/>
      <point x="389" y="497"/>
      <point x="447" y="443"/>
      <point x="448" y="345" type="curve" smooth="yes"/>
      <point x="449" y="282" type="line"/>
      <point x="256" y="282" type="line" smooth="yes"/>
      <point x="136" y="282"/>
      <point x="63" y="232"/>
      <point x="63" y="149" type="curve" smooth="yes"/>
      <point x="63" y="62"/>
      <point x="133" y="0"/>
      <point x="232" y="0" type="curve" smooth="yes"/>
      <point x="342" y="0"/>
      <point x="418" y="54"/>
      <point x="462" y="160" type="curve"/>
      <point x="497" y="67"/>
      <point x="591" y="0"/>
      <point x="700" y="0" type="curve" smooth="yes"/>
      <point x="778" y="0"/>
      <point x="848" y="29"/>
      <point x="897" y="81" type="curve"/>
      <point x="883" y="95" type="line"/>
      <point x="838" y="46"/>
      <point x="774" y="20"/>
      <point x="700" y="20" type="curve" smooth="yes"/>
      <point x="578" y="20"/>
      <point x="470" y="120"/>
      <point x="470" y="232" type="curve" smooth="yes"/>
    </contour>
    <contour>
      <point x="450" y="262" type="line"/>
      <point x="450" y="184" type="line"/>
      <point x="406" y="68"/>
      <point x="342" y="20"/>
      <point x="232" y="20" type="curve" smooth="yes"/>
      <point x="143" y="20"/>
      <point x="83" y="72"/>
      <point x="83" y="149" type="curve" smooth="yes"/>
      <point x="83" y="221"/>
      <point x="146" y="262"/>
      <point x="256" y="262" type="curve" smooth="yes"/>
    </contour>
    <contour>
      <point x="471" y="279" type="line"/>
      <point x="479" y="408"/>
      <point x="573" y="497"/>
      <point x="700" y="497" type="curve" smooth="yes"/>
      <point x="824" y="497"/>
      <point x="911" y="411"/>
      <point x="920" y="279" type="curve"/>
    </contour>
  </outline>
</glyph>
<glyph name="eth" format="2">
  <advance width="1132"/>
  <unicode hex="00F0"/>
  <outline>
    <contour>
      <point x="312" y="1448" type="line"/>
      <point x="636" y="1270"/>
      <point x="902" y="950"/>
      <point x="986" y="630" type="curve"/>
      <point x="922" y="780"/>
      <point x="760" y="876"/>
      <point x="574" y="876" type="curve" smooth="yes"/>
      <point x="298" y="876"/>
      <point x="120" y="706"/>
      <point x="120" y="444" type="curve" smooth="yes"/>
      <point x="120" y="174"/>
      <point x="294" y="0"/>
      <point x="562" y="0" type="curve" smooth="yes"/>
      <point x="848" y="0"/>
      <point x="1032" y="178"/>
      <point x="1032" y="454" type="curve" smooth="yes"/>
      <point x="1032" y="834"/>
      <point x="758" y="1238"/>
      <point x="336" y="1484" type="curve"/>
    </contour>
    <contour>
      <point x="574" y="836" type="curve" smooth="yes"/>
      <point x="828" y="836"/>
      <point x="992" y="678"/>
      <point x="992" y="432" type="curve" smooth="yes"/>
      <point x="992" y="194"/>
      <point x="828" y="40"/>
      <point x="572" y="40" type="curve" smooth="yes"/>
      <point x="322" y="40"/>
      <point x="160" y="200"/>
      <point x="160" y="448" type="curve" smooth="yes"/>
      <point x="160" y="684"/>
      <point x="322" y="836"/>
    </contour>
    <contour>
      <point x="292" y="1052" type="line"/>
      <point x="926" y="1346" type="line"/>
      <point x="908" y="1384" type="line"/>
      <point x="274" y="1090" type="line"/>
    </contour>
  </outline>
</glyph>
<glyph name="divide" format="2">
  <advance width="960"/>
  <unicode hex="00F7"/>
  <outline>
    <component base="dotaccentcomb" xOffset="328" yOffset="-342"/>
    <component base="dotaccentcomb" xOffset="328" yOffset="-1042"/>
    <contour>
      <point x="80" y="620" type="line"/>
      <point x="880" y="620" type="line"/>
      <point x="880" y="660" type="line"/>
      <point x="80" y="660" type="line"/>
    </contour>
  </outline>
</glyph>
<glyph name="oslash" format="2">
  <advance width="1212"/>
  <unicode hex="00F8"/>
  <anchor x="606" y="1034" name="top"/>
  <outline>
    <contour>
      <point x="606" y="1034" type="curve" smooth="yes"/>
      <point x="318" y="1034"/>
      <point x="104" y="818"/>
      <point x="104" y="518" type="curve" smooth="yes"/>
      <point x="104" y="216"/>
      <point x="318" y="0"/>
      <point x="606" y="0" type="curve" smooth="yes"/>
      <point x="894" y="0"/>
      <point x="1108" y="216"/>
      <point x="1108" y="518" type="curve" smooth="yes"/>
      <point x="1108" y="818"/>
      <point x="894" y="1034"/>
    </contour>
    <contour>
      <point x="606" y="994" type="curve" smooth="yes"/>
      <point x="874" y="994"/>
      <point x="1068" y="798"/>
      <point x="1068" y="518" type="curve" smooth="yes"/>
      <point x="1068" y="236"/>
      <point x="874" y="40"/>
      <point x="606" y="40" type="curve" smooth="yes"/>
      <point x="338" y="40"/>
      <point x="144" y="236"/>
      <point x="144" y="518" type="curve" smooth="yes"/>
      <point x="144" y="798"/>
      <point x="338" y="994"/>
    </contour>
    <contour>
      <point x="80" y="-220" type="line"/>
      <point x="122" y="-220" type="line"/>
      <point x="1132" y="1254" type="line"/>
      <point x="1090" y="1254" type="line"/>
    </contour>
  </outline>
</glyph>
<glyph name="thorn" format="2">
  <advance width="1312"/>
  <unicode hex="00FE"/>
  <anchor x="224" y="0" name="bottom"/>
  <anchor x="224" y="1484" name="top"/>
  <anchor x="420" y="1034" name="topright"/>
  <outline>
    <contour>
      <point x="244" y="1484" type="line"/>
      <point x="204" y="1484" type="line"/>
      <point x="204" y="-388" type="line"/>
      <point x="244" y="-388" type="line"/>
      <point x="244" y="304" type="line"/>
      <point x="318" y="120"/>
      <point x="490" y="0"/>
      <point x="706" y="0" type="curve" smooth="yes"/>
      <point x="996" y="0"/>
      <point x="1208" y="218"/>
      <point x="1208" y="516" type="curve" smooth="yes"/>
      <point x="1208" y="816"/>
      <point x="996" y="1034"/>
      <point x="706" y="1034" type="curve" smooth="yes"/>
      <point x="490" y="1034"/>
      <point x="318" y="914"/>
      <point x="244" y="730" type="curve"/>
    </contour>
    <contour>
      <point x="706" y="994" type="curve" smooth="yes"/>
      <point x="974" y="994"/>
      <point x="1168" y="792"/>
      <point x="1168" y="516" type="curve" smooth="yes"/>
      <point x="1168" y="240"/>
      <point x="974" y="40"/>
      <point x="706" y="40" type="curve" smooth="yes"/>
      <point x="438" y="40"/>
      <point x="244" y="240"/>
      <point x="244" y="516" type="curve" smooth="yes"/>
      <point x="244" y="792"/>
      <point x="438" y="994"/>
    </contour>
  </outline>
</glyph>
<glyph name="Dcroat" format="2">
  <advance width="1624"/>
  <unicode hex="0110"/>
  <anchor x="844" y="0" name="bottom"/>
  <anchor x="412" y="700" name="center"/>
  <anchor x="774" y="1400" name="top"/>
  <outline>
    <contour>
      <point x="114" y="680" type="line"/>
      <point x="866" y="680" type="line"/>
      <point x="866" y="722" type="line"/>
      <point x="114" y="722" type="line"/>
    </contour>
    <contour>
      <point x="256" y="1400" type="line"/>
      <point x="256" y="0" type="line"/>
      <point x="808" y="0" type="line" smooth="yes"/>
      <point x="1202" y="0"/>
      <point x="1524" y="314"/>
      <point x="1524" y="698" type="curve" smooth="yes"/>
      <point x="1524" y="1086"/>
      <point x="1202" y="1400"/>
      <point x="808" y="1400" type="curve" smooth="yes"/>
    </contour>
    <contour>
      <point x="296" y="40" type="line"/>
      <point x="296" y="1360" type="line"/>
      <point x="808" y="1360" type="line" smooth="yes"/>
      <point x="1180" y="1360"/>
      <point x="1484" y="1064"/>
      <point x="1484" y="698" type="curve" smooth="yes"/>
      <point x="1484" y="336"/>
      <point x="1180" y="40"/>
      <point x="808" y="40" type="curve" smooth="yes"/>
    </contour>
  </outline>
</glyph>
<glyph name="dcroat" format="2">
  <advance width="1346"/>
  <unicode hex="0111"/>
  <outline>
    <contour>
      <point x="576" y="1238" type="line"/>
      <point x="1276" y="1238" type="line"/>
      <point x="1276" y="1278" type="line"/>
      <point x="576" y="1278" type="line"/>
    </contour>
    <contour>
      <point x="610" y="1038" type="curve" smooth="yes"/>
      <point x="318" y="1038"/>
      <point x="104" y="818"/>
      <point x="104" y="516" type="curve" smooth="yes"/>
      <point x="104" y="216"/>
      <point x="318" y="-4"/>
      <point x="610" y="-4" type="curve" smooth="yes"/>
      <point x="902" y="-4"/>
      <point x="1116" y="216"/>
      <point x="1116" y="516" type="curve"/>
      <point x="1116" y="818"/>
      <point x="902" y="1038"/>
    </contour>
    <contour>
      <point x="610" y="998" type="curve" smooth="yes"/>
      <point x="880" y="998"/>
      <point x="1076" y="794"/>
      <point x="1076" y="516" type="curve" smooth="yes"/>
      <point x="1076" y="238"/>
      <point x="880" y="36"/>
      <point x="610" y="36" type="curve" smooth="yes"/>
      <point x="340" y="36"/>
      <point x="144" y="238"/>
      <point x="144" y="516" type="curve" smooth="yes"/>
      <point x="144" y="794"/>
      <point x="340" y="998"/>
    </contour>
    <contour>
      <point x="1076" y="0" type="line"/>
      <point x="1116" y="0" type="line"/>
      <point x="1116" y="1484" type="line"/>
      <point x="1076" y="1484" type="line"/>
    </contour>
  </outline>
  <guideline angle="90" x="1268" y="0"/>
</glyph>
<glyph name="Hbar" format="2">
  <advance width="1600"/>
  <unicode hex="0126"/>
  <anchor x="802" y="0" name="bottom"/>
  <anchor x="802" y="1076" name="center"/>
  <anchor x="802" y="1400" name="top"/>
  <outline>
    <contour>
      <point x="124" y="1056" type="line"/>
      <point x="1478" y="1056" type="line"/>
      <point x="1478" y="1096" type="line"/>
      <point x="124" y="1096" type="line"/>
    </contour>
    <contour>
      <point x="256" y="0" type="line"/>
      <point x="296" y="0" type="line"/>
      <point x="296" y="686" type="line"/>
      <point x="1304" y="686" type="line"/>
      <point x="1304" y="0" type="line"/>
      <point x="1344" y="0" type="line"/>
      <point x="1344" y="1400" type="line"/>
      <point x="1304" y="1400" type="line"/>
      <point x="1304" y="728" type="line"/>
      <point x="296" y="728" type="line"/>
      <point x="296" y="1400" type="line"/>
      <point x="256" y="1400" type="line"/>
    </contour>
  </outline>
</glyph>
<glyph name="hbar" format="2">
  <advance width="1300"/>
  <unicode hex="0127"/>
  <outline>
    <contour>
      <point x="70" y="1238" type="line"/>
      <point x="770" y="1238" type="line"/>
      <point x="770" y="1278" type="line"/>
      <point x="70" y="1278" type="line"/>
    </contour>
    <contour>
      <point x="1074" y="0" type="line"/>
      <point x="1114" y="0" type="line"/>
      <point x="1114" y="626" type="line" smooth="yes"/>
      <point x="1114" y="882"/>
      <point x="964" y="1034"/>
      <point x="708" y="1034" type="curve" smooth="yes"/>
      <point x="410" y="1034"/>
      <point x="234" y="832"/>
      <point x="234" y="506" type="curve"/>
      <point x="270" y="506" type="line"/>
      <point x="270" y="806"/>
      <point x="432" y="994"/>
      <point x="708" y="994" type="curve" smooth="yes"/>
      <point x="938" y="994"/>
      <point x="1074" y="858"/>
      <point x="1074" y="626" type="curve" smooth="yes"/>
    </contour>
    <contour>
      <point x="230" y="0" type="line"/>
      <point x="270" y="0" type="line"/>
      <point x="270" y="1484" type="line"/>
      <point x="230" y="1484" type="line"/>
    </contour>
  </outline>
</glyph>
<glyph name="dotlessi" format="2">
  <advance width="240"/>
  <unicode hex="0131"/>
  <anchor x="130" y="0" name="ogonek"/>
  <anchor x="120" y="517" name="top"/>
  <outline>
    <contour>
      <point x="110" y="0" type="line"/>
      <point x="130" y="0" type="line"/>
      <point x="130" y="517" type="line"/>
      <point x="110" y="517" type="line"/>
    </contour>
  </outline>
</glyph>
<glyph name="kgreenlandic" format="2">
  <advance width="535"/>
  <unicode hex="0138"/>
  <anchor x="268" y="0" name="bottom"/>
  <anchor x="268" y="517" name="top"/>
  <outline>
    <contour>
      <point x="110" y="0" type="line"/>
      <point x="130" y="0" type="line"/>
      <point x="130" y="517" type="line"/>
      <point x="110" y="517" type="line"/>
    </contour>
    <contour>
      <point x="125" y="178" type="line"/>
      <point x="125" y="147" type="line"/>
      <point x="489" y="517" type="line"/>
      <point x="461" y="517" type="line"/>
    </contour>
    <contour>
      <point x="269" y="314" type="line"/>
      <point x="495" y="0" type="line"/>
      <point x="519" y="0" type="line"/>
      <point x="285" y="326" type="line"/>
    </contour>
  </outline>
</glyph>
<glyph name="Lslash" format="2">
  <advance width="1008"/>
  <unicode hex="0141"/>
  <anchor x="614" y="0" name="bottom"/>
  <anchor x="788" y="782" name="center"/>
  <anchor x="320" y="1400" name="top"/>
  <anchor x="908" y="1400" name="topright"/>
  <outline>
    <contour>
      <point x="60" y="586" type="line"/>
      <point x="580" y="876" type="line"/>
      <point x="580" y="922" type="line"/>
      <point x="60" y="632" type="line"/>
    </contour>
    <contour>
      <point x="280" y="0" type="line"/>
      <point x="948" y="0" type="line"/>
      <point x="948" y="40" type="line"/>
      <point x="320" y="40" type="line"/>
      <point x="320" y="1400" type="line"/>
      <point x="280" y="1400" type="line"/>
    </contour>
  </outline>
</glyph>
<glyph name="lslash" format="2">
  <advance width="668"/>
  <unicode hex="0142"/>
  <outline>
    <component base="l"/>
    <contour>
      <point x="100" y="586" type="line"/>
      <point x="620" y="874" type="line"/>
      <point x="620" y="920" type="line"/>
      <point x="100" y="632" type="line"/>
    </contour>
  </outline>
</glyph>
<glyph name="Eng" format="2">
  <advance width="1600"/>
  <unicode hex="014A"/>
  <anchor x="802" y="0" name="bottom"/>
  <anchor x="802" y="1400" name="top"/>
  <outline>
    <contour>
      <point x="1304" y="6" type="line"/>
      <point x="1304" y="-228"/>
      <point x="1196" y="-352"/>
      <point x="1000" y="-352" type="curve" smooth="yes"/>
      <point x="874" y="-352"/>
      <point x="762" y="-288"/>
      <point x="678" y="-168" type="curve"/>
      <point x="650" y="-196" type="line"/>
      <point x="740" y="-322"/>
      <point x="864" y="-392"/>
      <point x="1000" y="-392" type="curve" smooth="yes"/>
      <point x="1222" y="-392"/>
      <point x="1344" y="-252"/>
      <point x="1344" y="0" type="curve"/>
    </contour>
    <contour>
      <point x="256" y="0" type="line"/>
      <point x="296" y="0" type="line"/>
      <point x="296" y="1360" type="line"/>
      <point x="1284" y="0" type="line"/>
      <point x="1344" y="0" type="line"/>
      <point x="1344" y="1400" type="line"/>
      <point x="1304" y="1400" type="line"/>
      <point x="1304" y="40" type="line"/>
      <point x="316" y="1400" type="line"/>
      <point x="256" y="1400" type="line"/>
    </contour>
  </outline>
</glyph>
<glyph name="eng" format="2">
  <advance width="1288"/>
  <unicode hex="014B"/>
  <anchor x="650" y="0" name="bottom"/>
  <anchor x="664" y="1034" name="top"/>
  <outline>
    <contour>
      <point x="1062" y="-64" type="line" smooth="yes"/>
      <point x="1062" y="-252"/>
      <point x="996" y="-348"/>
      <point x="870" y="-346" type="curve" smooth="yes"/>
      <point x="806" y="-344"/>
      <point x="742" y="-322"/>
      <point x="690" y="-280" type="curve"/>
      <point x="666" y="-312" type="line"/>
      <point x="726" y="-358"/>
      <point x="796" y="-384"/>
      <point x="870" y="-386" type="curve" smooth="yes"/>
      <point x="1022" y="-388"/>
      <point x="1102" y="-280"/>
      <point x="1102" y="-64" type="curve" smooth="yes"/>
      <point x="1102" y="626" type="line" smooth="yes"/>
      <point x="1102" y="882"/>
      <point x="952" y="1034"/>
      <point x="696" y="1034" type="curve"/>
      <point x="398" y="1028"/>
      <point x="222" y="832"/>
      <point x="222" y="506" type="curve"/>
      <point x="258" y="506" type="line"/>
      <point x="258" y="806"/>
      <point x="420" y="988"/>
      <point x="696" y="994" type="curve"/>
      <point x="926" y="994"/>
      <point x="1062" y="858"/>
      <point x="1062" y="626" type="curve" smooth="yes"/>
    </contour>
    <contour>
      <point x="220" y="0" type="line"/>
      <point x="260" y="0" type="line"/>
      <point x="260" y="1034" type="line"/>
      <point x="220" y="1034" type="line"/>
    </contour>
  </outline>
</glyph>
<glyph name="OE" format="2">
  <advance width="2182"/>
  <unicode hex="0152"/>
  <anchor x="1536" y="0" name="bottom"/>
  <anchor x="2052" y="20" name="ogonek"/>
  <anchor x="1092" y="1400" name="top"/>
  <outline>
    <contour>
      <point x="1160" y="1362" type="line"/>
      <point x="1164" y="1400" type="line"/>
      <point x="820" y="1400" type="line"/>
      <point x="424" y="1400"/>
      <point x="100" y="1086"/>
      <point x="100" y="700" type="curve" smooth="yes"/>
      <point x="100" y="316"/>
      <point x="424" y="0"/>
      <point x="820" y="0" type="curve"/>
      <point x="1160" y="0" type="line"/>
      <point x="1158" y="34" type="line"/>
      <point x="820" y="38" type="line"/>
      <point x="444" y="38"/>
      <point x="138" y="336"/>
      <point x="138" y="700" type="curve" smooth="yes"/>
      <point x="138" y="1066"/>
      <point x="444" y="1362"/>
      <point x="820" y="1362" type="curve"/>
    </contour>
    <contour>
      <point x="1148" y="0" type="line"/>
      <point x="2050" y="0" type="line"/>
      <point x="2050" y="40" type="line"/>
      <point x="1188" y="40" type="line"/>
      <point x="1188" y="700" type="line"/>
      <point x="1930" y="700" type="line"/>
      <point x="1930" y="742" type="line"/>
      <point x="1188" y="742" type="line"/>
      <point x="1188" y="1360" type="line"/>
      <point x="2022" y="1360" type="line"/>
      <point x="2022" y="1400" type="line"/>
      <point x="1148" y="1400" type="line"/>
    </contour>
  </outline>
</glyph>
<glyph name="oe" format="2">
  <advance width="1075"/>
  <unicode hex="0153"/>
  <outline>
    <contour>
      <point x="303" y="517" type="curve" smooth="yes"/>
      <point x="159" y="517"/>
      <point x="52" y="409"/>
      <point x="52" y="259" type="curve" smooth="yes"/>
      <point x="52" y="108"/>
      <point x="159" y="0"/>
      <point x="303" y="0" type="curve" smooth="yes"/>
      <point x="447" y="0"/>
      <point x="554" y="108"/>
      <point x="554" y="259" type="curve" smooth="yes"/>
      <point x="554" y="409"/>
      <point x="447" y="517"/>
    </contour>
    <contour>
      <point x="303" y="497" type="curve" smooth="yes"/>
      <point x="437" y="497"/>
      <point x="534" y="399"/>
      <point x="534" y="259" type="curve" smooth="yes"/>
      <point x="534" y="118"/>
      <point x="437" y="20"/>
      <point x="303" y="20" type="curve" smooth="yes"/>
      <point x="169" y="20"/>
      <point x="72" y="118"/>
      <point x="72" y="259" type="curve" smooth="yes"/>
      <point x="72" y="399"/>
      <point x="169" y="497"/>
    </contour>
    <contour>
      <point x="547" y="279" type="line"/>
      <point x="547" y="259" type="line"/>
      <point x="1027" y="259" type="line"/>
      <point x="1027" y="409"/>
      <point x="930" y="517"/>
      <point x="786" y="517" type="curve" smooth="yes"/>
      <point x="642" y="517"/>
      <point x="535" y="409"/>
      <point x="535" y="259" type="curve" smooth="yes"/>
      <point x="535" y="108"/>
      <point x="642" y="0"/>
      <point x="786" y="0" type="curve" smooth="yes"/>
      <point x="866" y="0"/>
      <point x="936" y="30"/>
      <point x="984" y="81" type="curve"/>
      <point x="970" y="95" type="line"/>
      <point x="926" y="47"/>
      <point x="861" y="20"/>
      <point x="786" y="20" type="curve" smooth="yes"/>
      <point x="652" y="20"/>
      <point x="555" y="118"/>
      <point x="555" y="259" type="curve" smooth="yes"/>
      <point x="555" y="399"/>
      <point x="652" y="497"/>
      <point x="786" y="497" type="curve" smooth="yes"/>
      <point x="914" y="497"/>
      <point x="998" y="408"/>
      <point x="1007" y="279" type="curve"/>
    </contour>
  </outline>
</glyph>
<glyph name="scedilla" format="2">
  <advance width="854"/>
  <unicode hex="015F"/>
  <anchor x="420" y="0" name="bottom"/>
  <anchor x="426" y="1034" name="top"/>
  <outline>
    <contour>
      <point x="720" y="960" type="line"/>
      <point x="644" y="1004"/>
      <point x="554" y="1034"/>
      <point x="444" y="1034" type="curve" smooth="yes"/>
      <point x="266" y="1034"/>
      <point x="116" y="956"/>
      <point x="116" y="786" type="curve" smooth="yes"/>
      <point x="116" y="438"/>
      <point x="750" y="576"/>
      <point x="738" y="258" type="curve" smooth="yes"/>
      <point x="732" y="108"/>
      <point x="592" y="40"/>
      <point x="430" y="40" type="curve" smooth="yes"/>
      <point x="294" y="40"/>
      <point x="174" y="88"/>
      <point x="86" y="174" type="curve"/>
      <point x="60" y="144" type="line"/>
      <point x="145" y="59"/>
      <point x="267" y="8"/>
      <point x="399" y="1" type="curve"/>
      <point x="362" y="-124" type="line"/>
      <point x="420" y="-124" type="line" smooth="yes"/>
      <point x="494" y="-124"/>
      <point x="536" y="-178"/>
      <point x="536" y="-234" type="curve" smooth="yes"/>
      <point x="536" y="-296"/>
      <point x="492" y="-358"/>
      <point x="400" y="-358" type="curve" smooth="yes"/>
      <point x="356" y="-358"/>
      <point x="302" y="-340"/>
      <point x="270" y="-316" type="curve"/>
      <point x="254" y="-356" type="line"/>
      <point x="288" y="-382"/>
      <point x="350" y="-400"/>
      <point x="400" y="-400" type="curve" smooth="yes"/>
      <point x="518" y="-400"/>
      <point x="578" y="-316"/>
      <point x="578" y="-234" type="curve" smooth="yes"/>
      <point x="578" y="-160"/>
      <point x="524" y="-88"/>
      <point x="416" y="-86" type="curve"/>
      <point x="441" y="0" type="line"/>
      <point x="617" y="3"/>
      <point x="778" y="86"/>
      <point x="778" y="268" type="curve" smooth="yes"/>
      <point x="778" y="628"/>
      <point x="156" y="480"/>
      <point x="156" y="790" type="curve" smooth="yes"/>
      <point x="156" y="930"/>
      <point x="284" y="994"/>
      <point x="446" y="994" type="curve" smooth="yes"/>
      <point x="548" y="994"/>
      <point x="634" y="968"/>
      <point x="700" y="926" type="curve"/>
    </contour>
  </outline>
</glyph>
<glyph name="tcedilla" format="2">
  <advance width="362"/>
  <unicode hex="0163"/>
  <anchor x="220" y="-220" name="bottom"/>
  <anchor x="235" y="568" name="top"/>
  <anchor x="242" y="742" name="topright"/>
  <outline>
    <contour>
      <point x="148" y="-191" type="line"/>
      <point x="165" y="-204"/>
      <point x="196" y="-213"/>
      <point x="221" y="-213" type="curve" smooth="yes"/>
      <point x="280" y="-213"/>
      <point x="310" y="-171"/>
      <point x="310" y="-130" type="curve" smooth="yes"/>
      <point x="310" y="-93"/>
      <point x="283" y="-57"/>
      <point x="229" y="-56" type="curve"/>
      <point x="243" y="0" type="line"/>
      <point x="278" y="3"/>
      <point x="310" y="16"/>
      <point x="338" y="37" type="curve"/>
      <point x="326" y="53" type="line"/>
      <point x="300" y="32"/>
      <point x="268" y="21"/>
      <point x="236" y="20" type="curve" smooth="yes"/>
      <point x="177" y="19"/>
      <point x="146" y="62"/>
      <point x="146" y="142" type="curve" smooth="yes"/>
      <point x="146" y="497" type="line"/>
      <point x="328" y="497" type="line"/>
      <point x="328" y="517" type="line"/>
      <point x="146" y="517" type="line"/>
      <point x="146" y="630" type="line"/>
      <point x="126" y="630" type="line"/>
      <point x="126" y="517" type="line"/>
      <point x="50" y="517" type="line"/>
      <point x="50" y="497" type="line"/>
      <point x="126" y="497" type="line"/>
      <point x="126" y="142" type="line" smooth="yes"/>
      <point x="126" y="54"/>
      <point x="160" y="5"/>
      <point x="224" y="0" type="curve"/>
      <point x="202" y="-75" type="line"/>
      <point x="231" y="-75" type="line" smooth="yes"/>
      <point x="268" y="-75"/>
      <point x="289" y="-102"/>
      <point x="289" y="-130" type="curve" smooth="yes"/>
      <point x="289" y="-161"/>
      <point x="267" y="-192"/>
      <point x="221" y="-192" type="curve" smooth="yes"/>
      <point x="199" y="-192"/>
      <point x="172" y="-183"/>
      <point x="156" y="-171" type="curve"/>
    </contour>
  </outline>
</glyph>
<glyph name="tbar" format="2">
  <advance width="724"/>
  <unicode hex="0167"/>
  <outline>
    <contour>
      <point x="252" y="284" type="line" smooth="yes"/>
      <point x="252" y="96"/>
      <point x="328" y="-2"/>
      <point x="472" y="0" type="curve" smooth="yes"/>
      <point x="546" y="2"/>
      <point x="616" y="28"/>
      <point x="676" y="74" type="curve"/>
      <point x="652" y="106" type="line"/>
      <point x="600" y="64"/>
      <point x="536" y="42"/>
      <point x="472" y="40" type="curve" smooth="yes"/>
      <point x="354" y="38"/>
      <point x="292" y="124"/>
      <point x="292" y="284" type="curve" smooth="yes"/>
      <point x="292" y="1260" type="line"/>
      <point x="252" y="1260" type="line"/>
    </contour>
    <contour>
      <point x="100" y="994" type="line"/>
      <point x="656" y="994" type="line"/>
      <point x="656" y="1034" type="line"/>
      <point x="100" y="1034" type="line"/>
    </contour>
    <contour>
      <point x="98" y="594" type="line"/>
      <point x="654" y="594" type="line"/>
      <point x="654" y="634" type="line"/>
      <point x="98" y="634" type="line"/>
    </contour>
  </outline>
  <guideline angle="90" x="100" y="0"/>
</glyph>
<glyph name="Schwa" format="2">
  <advance width="791"/>
  <unicode hex="018F"/>
  <outline>
    <contour>
      <point x="392" y="-3" type="curve" smooth="yes"/>
      <point x="584" y="-3"/>
      <point x="741" y="157"/>
      <point x="741" y="351" type="curve" smooth="yes"/>
      <point x="741" y="545"/>
      <point x="584" y="704"/>
      <point x="392" y="704" type="curve" smooth="yes"/>
      <point x="284" y="704"/>
      <point x="188" y="658"/>
      <point x="122" y="584" type="curve"/>
      <point x="135" y="569" type="line"/>
      <point x="198" y="640"/>
      <point x="289" y="684"/>
      <point x="392" y="684" type="curve" smooth="yes"/>
      <point x="573" y="684"/>
      <point x="721" y="534"/>
      <point x="721" y="350" type="curve"/>
      <point x="42" y="350" type="line"/>
      <point x="42" y="157"/>
      <point x="199" y="-3"/>
    </contour>
    <contour>
      <point x="392" y="17" type="curve" smooth="yes"/>
      <point x="217" y="17"/>
      <point x="73" y="157"/>
      <point x="63" y="330" type="curve"/>
      <point x="720" y="330" type="line"/>
      <point x="710" y="157"/>
      <point x="566" y="17"/>
    </contour>
  </outline>
</glyph>
<glyph name="florin" format="2">
  <advance width="310"/>
  <unicode hex="0192"/>
  <outline>
    <contour>
      <point x="-42" y="-194" type="curve" smooth="yes"/>
      <point x="35" y="-195"/>
      <point x="71" y="-135"/>
      <point x="83" y="-42" type="curve" smooth="yes"/>
      <point x="161" y="600" type="line" smooth="yes"/>
      <point x="171" y="681"/>
      <point x="220" y="733"/>
      <point x="284" y="732" type="curve" smooth="yes"/>
      <point x="313" y="731"/>
      <point x="347" y="718"/>
      <point x="370" y="699" type="curve"/>
      <point x="384" y="715" type="line"/>
      <point x="358" y="736"/>
      <point x="320" y="751"/>
      <point x="286" y="752" type="curve" smooth="yes"/>
      <point x="210" y="753"/>
      <point x="153" y="693"/>
      <point x="141" y="600" type="curve" smooth="yes"/>
      <point x="63" y="-42" type="line" smooth="yes"/>
      <point x="53" y="-123"/>
      <point x="24" y="-175"/>
      <point x="-40" y="-174" type="curve" smooth="yes"/>
      <point x="-66" y="-173"/>
      <point x="-96" y="-160"/>
      <point x="-115" y="-141" type="curve"/>
      <point x="-129" y="-157" type="line"/>
      <point x="-106" y="-178"/>
      <point x="-72" y="-193"/>
    </contour>
    <contour>
      <point x="311" y="442" type="line"/>
      <point x="313" y="462" type="line"/>
      <point x="60" y="462" type="line"/>
      <point x="58" y="442" type="line"/>
    </contour>
  </outline>
</glyph>
<glyph name="Aringacute" format="2">
  <advance width="1374"/>
  <unicode hex="01FA"/>
  <anchor x="684" y="0" name="bottom"/>
  <anchor x="1354" y="0" name="ogonek"/>
  <anchor x="860" y="1866" name="top"/>
  <anchor x="210" y="1400" name="topleft"/>
  <outline>
    <contour>
      <point x="20" y="0" type="line"/>
      <point x="68" y="0" type="line"/>
      <point x="683" y="1354" type="line"/>
      <point x="1308" y="0" type="line"/>
      <point x="1354" y="0" type="line"/>
      <point x="705" y="1400" type="line"/>
      <point x="661" y="1400" type="line"/>
    </contour>
    <contour>
      <point x="250" y="427" type="line"/>
      <point x="1120" y="427" type="line"/>
      <point x="1120" y="467" type="line"/>
      <point x="250" y="467" type="line"/>
    </contour>
    <contour>
      <point x="685" y="1726" type="curve" smooth="yes"/>
      <point x="589" y="1726"/>
      <point x="507" y="1644"/>
      <point x="507" y="1552" type="curve" smooth="yes"/>
      <point x="507" y="1460"/>
      <point x="589" y="1380"/>
      <point x="685" y="1380" type="curve" smooth="yes"/>
      <point x="783" y="1380"/>
      <point x="865" y="1460"/>
      <point x="865" y="1552" type="curve" smooth="yes"/>
      <point x="865" y="1644"/>
      <point x="783" y="1726"/>
    </contour>
    <contour>
      <point x="685" y="1690" type="curve" smooth="yes"/>
      <point x="763" y="1690"/>
      <point x="831" y="1628"/>
      <point x="831" y="1552" type="curve" smooth="yes"/>
      <point x="831" y="1478"/>
      <point x="763" y="1416"/>
      <point x="685" y="1416" type="curve" smooth="yes"/>
      <point x="607" y="1416"/>
      <point x="541" y="1478"/>
      <point x="541" y="1552" type="curve" smooth="yes"/>
      <point x="541" y="1628"/>
      <point x="607" y="1690"/>
    </contour>
    <contour>
      <point x="731" y="1688" type="line"/>
      <point x="781" y="1670" type="line"/>
      <point x="1071" y="1833" type="line"/>
      <point x="1037" y="1859" type="line"/>
    </contour>
  </outline>
</glyph>
<glyph name="dotlessj" format="2">
  <advance width="438"/>
  <unicode hex="0237"/>
  <anchor x="230" y="1034" name="top"/>
  <outline>
    <contour>
      <point x="-108" y="-358" type="line"/>
      <point x="-68" y="-374"/>
      <point x="-26" y="-384"/>
      <point x="18" y="-386" type="curve"/>
      <point x="170" y="-388"/>
      <point x="250" y="-278"/>
      <point x="250" y="-62" type="curve"/>
      <point x="250" y="1034" type="line"/>
      <point x="210" y="1034" type="line"/>
      <point x="210" y="-62" type="line"/>
      <point x="210" y="-250"/>
      <point x="144" y="-348"/>
      <point x="18" y="-346" type="curve"/>
      <point x="-20" y="-344"/>
      <point x="-56" y="-336"/>
      <point x="-92" y="-322" type="curve"/>
    </contour>
  </outline>
</glyph>
<glyph name="commaturnedmod" format="2">
  <advance width="123"/>
  <unicode hex="02BB"/>
  <anchor x="73" y="700" name="_topleft"/>
  <outline>
    <contour>
      <point x="73" y="700" type="line"/>
      <point x="58" y="700" type="line"/>
      <point x="50" y="525" type="line"/>
      <point x="73" y="520" type="line"/>
    </contour>
  </outline>
</glyph>
<glyph name="apostrophemod" format="2">
  <advance width="89"/>
  <unicode hex="02BC"/>
  <outline>
    <contour>
      <point x="30.042" y="440.616" type="line"/>
      <point x="48.0672" y="440.616" type="line"/>
      <point x="55.077" y="699.979" type="line"/>
      <point x="35.049" y="699.979" type="line"/>
    </contour>
  </outline>
</glyph>
<glyph name="ringhalfright" format="2">
  <advance width="268"/>
  <unicode hex="02BE"/>
  <outline>
    <contour>
      <point x="70" y="559" type="line"/>
      <point x="131" y="559"/>
      <point x="183" y="609"/>
      <point x="183" y="667" type="curve" smooth="yes"/>
      <point x="183" y="725"/>
      <point x="131" y="776"/>
      <point x="70" y="776" type="curve"/>
      <point x="70" y="756" type="line"/>
      <point x="120" y="756"/>
      <point x="163" y="715"/>
      <point x="163" y="667" type="curve" smooth="yes"/>
      <point x="163" y="619"/>
      <point x="120" y="579"/>
      <point x="70" y="579" type="curve"/>
    </contour>
  </outline>
</glyph>
<glyph name="ringhalfrightmod" format="2">
  <advance width="536"/>
  <unicode hex="02BE"/>
  <outline>
    <contour>
      <point x="140" y="1118" type="line"/>
      <point x="262" y="1118"/>
      <point x="366" y="1218"/>
      <point x="366" y="1334" type="curve" smooth="yes"/>
      <point x="366" y="1450"/>
      <point x="262" y="1552"/>
      <point x="140" y="1552" type="curve"/>
      <point x="140" y="1512" type="line"/>
      <point x="240" y="1512"/>
      <point x="326" y="1430"/>
      <point x="326" y="1334" type="curve" smooth="yes"/>
      <point x="326" y="1238"/>
      <point x="240" y="1158"/>
      <point x="140" y="1158" type="curve"/>
    </contour>
  </outline>
</glyph>
<glyph name="ringhalfleft" format="2">
  <advance width="267"/>
  <unicode hex="02BF"/>
  <outline>
    <contour>
      <point x="197" y="559" type="line"/>
      <point x="136" y="559"/>
      <point x="85" y="609"/>
      <point x="85" y="667" type="curve" smooth="yes"/>
      <point x="85" y="725"/>
      <point x="136" y="776"/>
      <point x="197" y="776" type="curve"/>
      <point x="197" y="756" type="line"/>
      <point x="147" y="756"/>
      <point x="105" y="715"/>
      <point x="105" y="667" type="curve" smooth="yes"/>
      <point x="105" y="619"/>
      <point x="147" y="579"/>
      <point x="197" y="579" type="curve"/>
    </contour>
  </outline>
</glyph>
<glyph name="ringhalfleftmod" format="2">
  <advance width="534"/>
  <unicode hex="02BF"/>
  <outline>
    <contour>
      <point x="394" y="1118" type="line"/>
      <point x="272" y="1118"/>
      <point x="170" y="1218"/>
      <point x="170" y="1334" type="curve" smooth="yes"/>
      <point x="170" y="1450"/>
      <point x="272" y="1552"/>
      <point x="394" y="1552" type="curve"/>
      <point x="394" y="1512" type="line"/>
      <point x="294" y="1512"/>
      <point x="210" y="1430"/>
      <point x="210" y="1334" type="curve" smooth="yes"/>
      <point x="210" y="1238"/>
      <point x="294" y="1158"/>
      <point x="394" y="1158" type="curve"/>
    </contour>
  </outline>
</glyph>
<glyph name="verticallinemod" format="2">
  <advance width="80"/>
  <unicode hex="02C8"/>
  <outline>
    <contour>
      <point x="60" y="1040" type="line"/>
      <point x="60" y="1400" type="line"/>
      <point x="20" y="1400" type="line"/>
      <point x="20" y="1040" type="line"/>
    </contour>
  </outline>
</glyph>
<glyph name="verticallinelowmod" format="2">
  <advance width="80"/>
  <unicode hex="02CC"/>
  <outline>
    <contour>
      <point x="60" y="-420" type="line"/>
      <point x="60" y="-60" type="line"/>
      <point x="20" y="-60" type="line"/>
      <point x="20" y="-420" type="line"/>
    </contour>
  </outline>
</glyph>
<glyph name="gravecomb" format="2">
  <advance width="501"/>
  <unicode hex="0300"/>
  <anchor x="279" y="517" name="_top"/>
  <anchor x="299" y="660" name="top"/>
  <outline>
    <contour>
      <point x="170" y="729" type="line"/>
      <point x="299" y="624" type="line"/>
      <point x="325" y="629" type="line"/>
      <point x="189" y="739" type="line"/>
    </contour>
  </outline>
</glyph>
<glyph name="acutecomb" format="2">
  <advance width="882"/>
  <unicode hex="0301"/>
  <anchor x="323" y="1034" name="_top"/>
  <anchor x="448" y="1478" name="top"/>
  <outline>
    <contour>
      <point x="292" y="1258" type="line"/>
      <point x="344" y="1248" type="line"/>
      <point x="602" y="1458" type="line"/>
      <point x="564" y="1478" type="line"/>
    </contour>
  </outline>
</glyph>
<glyph name="circumflexcomb" format="2">
  <advance width="268"/>
  <unicode hex="0302"/>
  <anchor x="134" y="517" name="_top"/>
  <anchor x="134" y="670" name="top"/>
  <outline>
    <contour>
      <point x="20" y="624" type="line"/>
      <point x="46" y="624" type="line"/>
      <point x="140" y="722" type="line"/>
      <point x="128" y="722" type="line"/>
      <point x="222" y="624" type="line"/>
      <point x="248" y="624" type="line"/>
      <point x="150" y="734" type="line"/>
      <point x="118" y="734" type="line"/>
    </contour>
  </outline>
</glyph>
<glyph name="tildecomb" format="2">
  <advance width="305"/>
  <unicode hex="0303"/>
  <anchor x="153" y="517" name="_top"/>
  <anchor x="153" y="640" name="top"/>
  <outline>
    <contour>
      <point x="266" y="710" type="line"/>
      <point x="266" y="672"/>
      <point x="248" y="649"/>
      <point x="216" y="649" type="curve" smooth="yes"/>
      <point x="168" y="649"/>
      <point x="147" y="714"/>
      <point x="91" y="714" type="curve" smooth="yes"/>
      <point x="47" y="714"/>
      <point x="20" y="682"/>
      <point x="20" y="633" type="curve"/>
      <point x="39" y="633" type="line"/>
      <point x="39" y="671"/>
      <point x="57" y="694"/>
      <point x="89" y="694" type="curve" smooth="yes"/>
      <point x="137" y="694"/>
      <point x="158" y="629"/>
      <point x="214" y="629" type="curve" smooth="yes"/>
      <point x="258" y="629"/>
      <point x="285" y="661"/>
      <point x="285" y="710" type="curve"/>
    </contour>
  </outline>
</glyph>
<glyph name="macroncomb" format="2">
  <advance width="257"/>
  <unicode hex="0304"/>
  <anchor x="129" y="517" name="_top"/>
  <anchor x="129" y="620" name="top"/>
  <outline>
    <contour>
      <point x="0" y="657" type="line"/>
      <point x="257" y="657" type="line"/>
      <point x="257" y="677" type="line"/>
      <point x="0" y="677" type="line"/>
    </contour>
  </outline>
</glyph>
<glyph name="brevecomb" format="2">
  <advance width="500"/>
  <unicode hex="0306"/>
  <anchor x="250" y="1034" name="_top"/>
  <anchor x="250" y="1280" name="top"/>
  <outline>
    <contour>
      <point x="40" y="1452" type="line"/>
      <point x="44" y="1332"/>
      <point x="136" y="1242"/>
      <point x="250" y="1242" type="curve" smooth="yes"/>
      <point x="364" y="1242"/>
      <point x="456" y="1332"/>
      <point x="460" y="1452" type="curve"/>
      <point x="420" y="1452" type="line"/>
      <point x="416" y="1356"/>
      <point x="344" y="1282"/>
      <point x="250" y="1282" type="curve" smooth="yes"/>
      <point x="156" y="1282"/>
      <point x="84" y="1356"/>
      <point x="80" y="1452" type="curve"/>
    </contour>
  </outline>
</glyph>
<glyph name="dotaccentcomb" format="2">
  <advance width="152"/>
  <unicode hex="0307"/>
  <anchor x="76" y="666" name="_center"/>
  <anchor x="76" y="517" name="_top"/>
  <anchor x="76" y="666" name="top"/>
  <outline>
    <contour>
      <point x="76" y="692" type="curve" smooth="yes"/>
      <point x="62" y="692"/>
      <point x="50" y="680"/>
      <point x="50" y="666" type="curve" smooth="yes"/>
      <point x="50" y="652"/>
      <point x="62" y="640"/>
      <point x="76" y="640" type="curve" smooth="yes"/>
      <point x="90" y="640"/>
      <point x="102" y="652"/>
      <point x="102" y="666" type="curve" smooth="yes"/>
      <point x="102" y="680"/>
      <point x="90" y="692"/>
    </contour>
  </outline>
</glyph>
<glyph name="dieresiscomb" format="2">
  <advance width="302"/>
  <unicode hex="0308"/>
  <anchor x="152" y="517" name="_top"/>
  <anchor x="152" y="630" name="top"/>
  <outline>
    <contour>
      <point x="77" y="692" type="curve" smooth="yes"/>
      <point x="63" y="692"/>
      <point x="51" y="680"/>
      <point x="51" y="666" type="curve" smooth="yes"/>
      <point x="51" y="652"/>
      <point x="63" y="640"/>
      <point x="77" y="640" type="curve" smooth="yes"/>
      <point x="91" y="640"/>
      <point x="103" y="652"/>
      <point x="103" y="666" type="curve" smooth="yes"/>
      <point x="103" y="680"/>
      <point x="91" y="692"/>
    </contour>
    <contour>
      <point x="227" y="692" type="curve" smooth="yes"/>
      <point x="213" y="692"/>
      <point x="201" y="680"/>
      <point x="201" y="666" type="curve" smooth="yes"/>
      <point x="201" y="652"/>
      <point x="213" y="640"/>
      <point x="227" y="640" type="curve" smooth="yes"/>
      <point x="241" y="640"/>
      <point x="253" y="652"/>
      <point x="253" y="666" type="curve" smooth="yes"/>
      <point x="253" y="680"/>
      <point x="241" y="692"/>
    </contour>
  </outline>
</glyph>
<glyph name="hookabovecomb" format="2">
  <advance width="204"/>
  <unicode hex="0309"/>
  <anchor x="100" y="517" name="_top"/>
  <anchor x="100" y="715" name="top"/>
  <outline>
    <contour>
      <point x="85" y="751" type="curve" smooth="yes"/>
      <point x="63" y="751"/>
      <point x="41" y="742"/>
      <point x="21" y="729" type="curve"/>
      <point x="32" y="713" type="line"/>
      <point x="49" y="724"/>
      <point x="66" y="731"/>
      <point x="85" y="731" type="curve" smooth="yes"/>
      <point x="120" y="731"/>
      <point x="139" y="708"/>
      <point x="139" y="680" type="curve" smooth="yes"/>
      <point x="139" y="653"/>
      <point x="119" y="620"/>
      <point x="85" y="596" type="curve"/>
      <point x="105" y="588" type="line"/>
      <point x="139" y="613"/>
      <point x="159" y="648"/>
      <point x="159" y="680" type="curve" smooth="yes"/>
      <point x="159" y="719"/>
      <point x="134" y="751"/>
    </contour>
  </outline>
</glyph>
<glyph name="ringcomb" format="2">
  <advance width="357"/>
  <unicode hex="030A"/>
  <anchor x="179" y="517" name="_top"/>
  <anchor x="179" y="698" name="top"/>
  <outline>
    <contour>
      <point x="178" y="754" type="curve" smooth="yes"/>
      <point x="130" y="754"/>
      <point x="89" y="713"/>
      <point x="89" y="667" type="curve" smooth="yes"/>
      <point x="89" y="621"/>
      <point x="130" y="581"/>
      <point x="178" y="581" type="curve" smooth="yes"/>
      <point x="227" y="581"/>
      <point x="268" y="621"/>
      <point x="268" y="667" type="curve" smooth="yes"/>
      <point x="268" y="713"/>
      <point x="227" y="754"/>
    </contour>
    <contour>
      <point x="178" y="736" type="curve" smooth="yes"/>
      <point x="217" y="736"/>
      <point x="251" y="705"/>
      <point x="251" y="667" type="curve" smooth="yes"/>
      <point x="251" y="630"/>
      <point x="217" y="599"/>
      <point x="178" y="599" type="curve" smooth="yes"/>
      <point x="139" y="599"/>
      <point x="106" y="630"/>
      <point x="106" y="667" type="curve" smooth="yes"/>
      <point x="106" y="705"/>
      <point x="139" y="736"/>
    </contour>
  </outline>
</glyph>
<glyph name="hungarumlautcomb" format="2">
  <advance width="680"/>
  <unicode hex="030B"/>
  <anchor x="280" y="1034" name="_top"/>
  <anchor x="340" y="1478" name="top"/>
  <outline>
    <contour>
      <point x="112" y="1258" type="line"/>
      <point x="156" y="1248" type="line"/>
      <point x="344" y="1456" type="line"/>
      <point x="310" y="1478" type="line"/>
    </contour>
    <contour>
      <point x="350" y="1258" type="line"/>
      <point x="394" y="1248" type="line"/>
      <point x="582" y="1456" type="line"/>
      <point x="548" y="1478" type="line"/>
    </contour>
  </outline>
</glyph>
<glyph name="dblgravecomb" format="2">
  <advance width="340"/>
  <unicode hex="030F"/>
  <anchor x="198" y="517" name="_top"/>
  <anchor x="210" y="661" name="top"/>
  <outline>
    <contour>
      <point x="169" y="728" type="line"/>
      <point x="263" y="624" type="line"/>
      <point x="286" y="629" type="line"/>
      <point x="186" y="739" type="line"/>
    </contour>
    <contour>
      <point x="50" y="728" type="line"/>
      <point x="144" y="624" type="line"/>
      <point x="167" y="629" type="line"/>
      <point x="67" y="739" type="line"/>
    </contour>
  </outline>
</glyph>
<glyph name="breveinvertedcomb" format="2">
  <advance width="250"/>
  <unicode hex="0311"/>
  <anchor x="125" y="517" name="_top"/>
  <anchor x="125" y="640" name="top"/>
  <outline>
    <contour>
      <point x="40" y="621" type="line"/>
      <point x="42" y="669"/>
      <point x="78" y="706"/>
      <point x="125" y="706" type="curve" smooth="yes"/>
      <point x="172" y="706"/>
      <point x="208" y="669"/>
      <point x="210" y="621" type="curve"/>
      <point x="230" y="621" type="line"/>
      <point x="228" y="681"/>
      <point x="182" y="726"/>
      <point x="125" y="726" type="curve" smooth="yes"/>
      <point x="68" y="726"/>
      <point x="22" y="681"/>
      <point x="20" y="621" type="curve"/>
    </contour>
  </outline>
</glyph>
<glyph name="horncomb" format="2">
  <advance width="94"/>
  <unicode hex="031B"/>
  <anchor x="0" y="517" name="_topright"/>
  <outline>
    <contour>
      <point x="47" y="626" type="line"/>
      <point x="73" y="576"/>
      <point x="61" y="517"/>
      <point x="-3" y="517" type="curve"/>
      <point x="-4" y="500" type="line"/>
      <point x="72" y="500"/>
      <point x="98" y="568"/>
      <point x="66" y="634" type="curve"/>
    </contour>
  </outline>
</glyph>
<glyph name="commaaccentcomb" format="2">
  <advance width="322"/>
  <unicode hex="0326"/>
  <anchor x="160" y="0" name="_bottom"/>
  <anchor x="126" y="-388" name="bottom"/>
  <outline>
    <contour>
      <point x="60" y="-428" type="line"/>
      <point x="96" y="-428" type="line"/>
      <point x="182" y="-130" type="line"/>
      <point x="140" y="-130" type="line"/>
    </contour>
  </outline>
</glyph>
<glyph name="cedillacomb" format="2">
  <advance width="266"/>
  <unicode hex="0327"/>
  <anchor x="148" y="0" name="_bottom"/>
  <anchor x="133" y="-220" name="bottom"/>
  <anchor x="148" y="568" name="top"/>
  <outline>
    <contour>
      <point x="115" y="-75" type="line"/>
      <point x="120" y="-75"/>
      <point x="135" y="-75"/>
      <point x="144" y="-75" type="curve" smooth="yes"/>
      <point x="181" y="-75"/>
      <point x="202" y="-102"/>
      <point x="202" y="-130" type="curve" smooth="yes"/>
      <point x="202" y="-161"/>
      <point x="180" y="-192"/>
      <point x="134" y="-192" type="curve" smooth="yes"/>
      <point x="112" y="-192"/>
      <point x="85" y="-183"/>
      <point x="69" y="-171" type="curve"/>
      <point x="61" y="-191" type="line"/>
      <point x="78" y="-204"/>
      <point x="109" y="-213"/>
      <point x="134" y="-213" type="curve" smooth="yes"/>
      <point x="193" y="-213"/>
      <point x="223" y="-171"/>
      <point x="223" y="-130" type="curve" smooth="yes"/>
      <point x="223" y="-93"/>
      <point x="196" y="-57"/>
      <point x="142" y="-56" type="curve"/>
      <point x="158" y="0" type="line"/>
      <point x="138" y="5" type="line"/>
    </contour>
  </outline>
</glyph>
<glyph name="ogonekcomb" format="2">
  <advance width="223"/>
  <unicode hex="0328"/>
  <anchor x="191" y="0" name="_ogonek"/>
  <outline>
    <contour>
      <point x="182" y="16" type="line"/>
      <point x="95" y="-38"/>
      <point x="48" y="-79"/>
      <point x="48" y="-139" type="curve" smooth="yes"/>
      <point x="48" y="-185"/>
      <point x="77" y="-213"/>
      <point x="120" y="-213" type="curve" smooth="yes"/>
      <point x="143" y="-213"/>
      <point x="167" y="-205"/>
      <point x="190" y="-189" type="curve"/>
      <point x="180" y="-173" type="line"/>
      <point x="161" y="-186"/>
      <point x="140" y="-193"/>
      <point x="121" y="-193" type="curve" smooth="yes"/>
      <point x="92" y="-193"/>
      <point x="69" y="-176"/>
      <point x="69" y="-139" type="curve" smooth="yes"/>
      <point x="69" y="-90"/>
      <point x="110" y="-53"/>
      <point x="191" y="0" type="curve"/>
    </contour>
  </outline>
</glyph>
<glyph name="strokeshortcomb" format="2">
  <advance width="278"/>
  <unicode hex="0335"/>
  <anchor x="139" y="441" name="_center"/>
  <outline>
    <contour>
      <point x="0" y="431" type="line"/>
      <point x="278" y="431" type="line"/>
      <point x="278" y="451" type="line"/>
      <point x="0" y="451" type="line"/>
    </contour>
  </outline>
</glyph>
<glyph name="strokelongcomb" format="2">
  <advance width="600"/>
  <unicode hex="0336"/>
  <anchor x="298" y="441" name="_center"/>
  <outline>
    <contour>
      <point x="120" y="431" type="line"/>
      <point x="476" y="431" type="line"/>
      <point x="476" y="451" type="line"/>
      <point x="120" y="451" type="line"/>
    </contour>
  </outline>
</glyph>
<glyph name="slashshortcomb" format="2">
  <advance width="588"/>
  <unicode hex="0337"/>
  <outline>
    <contour>
      <point x="450" y="1120" type="line"/>
      <point x="142" y="160" type="line"/>
      <point x="184" y="160" type="line"/>
      <point x="492" y="1120" type="line"/>
    </contour>
  </outline>
</glyph>
<glyph name="slashlongcomb" format="2">
  <advance width="588"/>
  <unicode hex="0338"/>
  <outline>
    <contour>
      <point x="134" y="0" type="line"/>
      <point x="608" y="1484" type="line"/>
      <point x="566" y="1484" type="line"/>
      <point x="92" y="0" type="line"/>
    </contour>
  </outline>
</glyph>
<glyph name="tonos" format="2">
  <advance width="186"/>
  <unicode hex="0384"/>
  <anchor x="-32" y="1618" name="t.uni0308"/>
  <anchor x="-32" y="0" name="b.uni0324_3"/>
  <anchor x="284" y="0" name="m.uni0328_4"/>
  <outline>
    <contour>
      <point x="34" y="1214" type="line"/>
      <point x="108" y="1434" type="line"/>
      <point x="168" y="1434" type="line"/>
      <point x="74" y="1214" type="line"/>
    </contour>
  </outline>
</glyph>
<glyph name="Alphatonos" format="2">
  <advance width="688"/>
  <unicode hex="0386"/>
  <anchor x="429" y="700" name="t.uni0308"/>
  <anchor x="429" y="0" name="b.uni0324_3"/>
  <anchor x="889" y="0" name="m.uni0328_4"/>
  <outline>
    <contour>
      <point x="9" y="0" type="line"/>
      <point x="334" y="700" type="line"/>
      <point x="354" y="700" type="line"/>
      <point x="679" y="0" type="line"/>
      <point x="656" y="0" type="line"/>
      <point x="339" y="684" type="line"/>
      <point x="349" y="684" type="line"/>
      <point x="32" y="0" type="line"/>
    </contour>
    <contour>
      <point x="116" y="211" type="line"/>
      <point x="126" y="230" type="line"/>
      <point x="561" y="230" type="line"/>
      <point x="571" y="211" type="line"/>
    </contour>
    <contour>
      <point x="55" y="607" type="line"/>
      <point x="92" y="717" type="line"/>
      <point x="122" y="717" type="line"/>
      <point x="75" y="607" type="line"/>
    </contour>
  </outline>
</glyph>
<glyph name="Epsilontonos" format="2">
  <advance width="1428"/>
  <unicode hex="0388"/>
  <anchor x="762" y="1400" name="t.uni0308"/>
  <anchor x="746" y="0" name="b.uni0324_3"/>
  <anchor x="1404" y="0" name="m.uni0328_4"/>
  <outline>
    <contour>
      <point x="388" y="730" type="line"/>
      <point x="1170" y="730" type="line"/>
      <point x="1170" y="692" type="line"/>
      <point x="388" y="692" type="line"/>
    </contour>
    <contour>
      <point x="398" y="38" type="line"/>
      <point x="1290" y="38" type="line"/>
      <point x="1290" y="0" type="line"/>
      <point x="358" y="0" type="line"/>
      <point x="358" y="1400" type="line"/>
      <point x="1260" y="1400" type="line"/>
      <point x="1260" y="1362" type="line"/>
      <point x="398" y="1362" type="line"/>
    </contour>
    <contour>
      <point x="68" y="1214" type="line"/>
      <point x="142" y="1434" type="line"/>
      <point x="202" y="1434" type="line"/>
      <point x="108" y="1214" type="line"/>
    </contour>
  </outline>
</glyph>
<glyph name="Etatonos" format="2">
  <advance width="1684"/>
  <unicode hex="0389"/>
  <anchor x="850" y="1400" name="t.uni0308"/>
  <anchor x="850" y="1188" name="t.uni0307_1"/>
  <anchor x="850" y="0" name="b.uni0324_3"/>
  <outline>
    <contour>
      <point x="1378" y="1400" type="line"/>
      <point x="1418" y="1400" type="line"/>
      <point x="1418" y="0" type="line"/>
      <point x="1378" y="0" type="line"/>
    </contour>
    <contour>
      <point x="358" y="0" type="line"/>
      <point x="318" y="0" type="line"/>
      <point x="318" y="1400" type="line"/>
      <point x="358" y="1400" type="line"/>
    </contour>
    <contour>
      <point x="1388" y="692" type="line"/>
      <point x="348" y="692" type="line"/>
      <point x="348" y="730" type="line"/>
      <point x="1388" y="730" type="line"/>
    </contour>
    <contour>
      <point x="36" y="1214" type="line"/>
      <point x="110" y="1434" type="line"/>
      <point x="170" y="1434" type="line"/>
      <point x="76" y="1214" type="line"/>
    </contour>
  </outline>
</glyph>
<glyph name="Iotatonos" format="2">
  <advance width="648"/>
  <unicode hex="038A"/>
  <anchor x="454" y="1400" name="t.uni0308"/>
  <anchor x="454" y="0" name="b.uni0324_3"/>
  <anchor x="784" y="0" name="m.uni0328_4"/>
  <outline>
    <contour>
      <point x="342" y="0" type="line"/>
      <point x="342" y="1400" type="line"/>
      <point x="382" y="1400" type="line"/>
      <point x="382" y="0" type="line"/>
    </contour>
    <contour>
      <point x="32" y="1214" type="line"/>
      <point x="106" y="1434" type="line"/>
      <point x="166" y="1434" type="line"/>
      <point x="72" y="1214" type="line"/>
    </contour>
  </outline>
</glyph>
<glyph name="Upsilontonos" format="2">
  <advance width="1556"/>
  <unicode hex="038E"/>
  <anchor x="1090" y="1400" name="t.uni0308"/>
  <anchor x="1072" y="554" name="t.uni0307_1"/>
  <anchor x="1090" y="0" name="b.uni0324_3"/>
  <outline>
    <contour>
      <point x="926" y="0" type="line"/>
      <point x="926" y="490" type="line"/>
      <point x="936" y="460" type="line"/>
      <point x="356" y="1400" type="line"/>
      <point x="402" y="1400" type="line"/>
      <point x="954" y="506" type="line"/>
      <point x="938" y="506" type="line"/>
      <point x="1490" y="1400" type="line"/>
      <point x="1536" y="1400" type="line"/>
      <point x="956" y="460" type="line"/>
      <point x="966" y="490" type="line"/>
      <point x="966" y="0" type="line"/>
    </contour>
    <contour>
      <point x="46" y="1214" type="line"/>
      <point x="120" y="1434" type="line"/>
      <point x="180" y="1434" type="line"/>
      <point x="86" y="1214" type="line"/>
    </contour>
  </outline>
</glyph>
<glyph name="Omegatonos" format="2">
  <advance width="1820"/>
  <unicode hex="038F"/>
  <outline>
    <contour>
      <point x="20" y="0" type="line"/>
      <point x="20" y="40" type="line"/>
      <point x="578" y="40" type="line"/>
      <point x="384" y="152"/>
      <point x="192" y="506"/>
      <point x="192" y="700" type="qcurve" smooth="yes"/>
      <point x="192" y="852"/>
      <point x="300" y="1108"/>
      <point x="494" y="1300"/>
      <point x="756" y="1406"/>
      <point x="910" y="1406" type="qcurve" smooth="yes"/>
      <point x="1064" y="1406"/>
      <point x="1326" y="1300"/>
      <point x="1520" y="1108"/>
      <point x="1628" y="852"/>
      <point x="1628" y="700" type="qcurve" smooth="yes"/>
      <point x="1628" y="506"/>
      <point x="1436" y="152"/>
      <point x="1242" y="40" type="qcurve"/>
      <point x="1800" y="40" type="line"/>
      <point x="1800" y="0" type="line"/>
      <point x="1160" y="0" type="line"/>
      <point x="1160" y="38" type="line"/>
      <point x="1372" y="148"/>
      <point x="1588" y="498"/>
      <point x="1588" y="700" type="qcurve" smooth="yes"/>
      <point x="1588" y="844"/>
      <point x="1486" y="1086"/>
      <point x="1302" y="1268"/>
      <point x="1054" y="1368"/>
      <point x="910" y="1368" type="qcurve" smooth="yes"/>
      <point x="766" y="1368"/>
      <point x="518" y="1268"/>
      <point x="334" y="1086"/>
      <point x="232" y="844"/>
      <point x="232" y="700" type="qcurve" smooth="yes"/>
      <point x="232" y="498"/>
      <point x="448" y="148"/>
      <point x="660" y="38" type="qcurve"/>
      <point x="660" y="0" type="line"/>
    </contour>
    <contour>
      <point x="60" y="1214" type="line"/>
      <point x="134" y="1434" type="line"/>
      <point x="194" y="1434" type="line"/>
      <point x="100" y="1214" type="line"/>
    </contour>
  </outline>
</glyph>
<glyph name="iotadieresistonos" format="2">
  <advance width="216"/>
  <unicode hex="0390"/>
  <anchor x="176" y="562" name="t.uni0308"/>
  <anchor x="176" y="0" name="b.uni0324_3"/>
  <anchor x="334" y="0" name="m.uni0328_4"/>
  <outline>
    <contour>
      <point x="99" y="0" type="line"/>
      <point x="99" y="517" type="line"/>
      <point x="119" y="517" type="line"/>
      <point x="119" y="0" type="line"/>
    </contour>
    <contour>
      <point x="106" y="655" type="line"/>
      <point x="143" y="765" type="line"/>
      <point x="173" y="765" type="line"/>
      <point x="126" y="655" type="line"/>
    </contour>
    <contour>
      <point x="190" y="565" type="qcurve" smooth="yes"/>
      <point x="180" y="565"/>
      <point x="164" y="581"/>
      <point x="164" y="591" type="qcurve" smooth="yes"/>
      <point x="164" y="602"/>
      <point x="180" y="617"/>
      <point x="190" y="617" type="qcurve" smooth="yes"/>
      <point x="201" y="617"/>
      <point x="216" y="602"/>
      <point x="216" y="591" type="qcurve" smooth="yes"/>
      <point x="216" y="581"/>
      <point x="201" y="565"/>
    </contour>
    <contour>
      <point x="26" y="565" type="qcurve" smooth="yes"/>
      <point x="16" y="565"/>
      <point x="0" y="581"/>
      <point x="0" y="591" type="qcurve" smooth="yes"/>
      <point x="0" y="602"/>
      <point x="16" y="617"/>
      <point x="26" y="617" type="qcurve" smooth="yes"/>
      <point x="37" y="617"/>
      <point x="52" y="602"/>
      <point x="52" y="591" type="qcurve" smooth="yes"/>
      <point x="52" y="581"/>
      <point x="37" y="565"/>
    </contour>
  </outline>
</glyph>
<glyph name="Alpha" format="2">
  <advance width="688"/>
  <unicode hex="0391"/>
  <anchor x="429" y="700" name="t.uni0308"/>
  <anchor x="429" y="0" name="b.uni0324_3"/>
  <anchor x="889" y="0" name="m.uni0328_4"/>
  <outline>
    <contour>
      <point x="9" y="0" type="line"/>
      <point x="334" y="700" type="line"/>
      <point x="354" y="700" type="line"/>
      <point x="679" y="0" type="line"/>
      <point x="656" y="0" type="line"/>
      <point x="339" y="684" type="line"/>
      <point x="349" y="684" type="line"/>
      <point x="32" y="0" type="line"/>
    </contour>
    <contour>
      <point x="116" y="211" type="line"/>
      <point x="126" y="230" type="line"/>
      <point x="561" y="230" type="line"/>
      <point x="571" y="211" type="line"/>
    </contour>
  </outline>
</glyph>
<glyph name="Beta" format="2">
  <advance width="1496"/>
  <unicode hex="0392"/>
  <anchor x="768" y="1400" name="t.uni0308"/>
  <anchor x="768" y="0" name="b.uni0324_3"/>
  <outline>
    <contour>
      <point x="266" y="0" type="line"/>
      <point x="266" y="1400" type="line"/>
      <point x="820" y="1400" type="line" smooth="yes"/>
      <point x="1036" y="1400"/>
      <point x="1290" y="1222"/>
      <point x="1290" y="1046" type="qcurve" smooth="yes"/>
      <point x="1290" y="930"/>
      <point x="1178" y="776"/>
      <point x="978" y="700"/>
      <point x="848" y="700" type="qcurve"/>
      <point x="882" y="726" type="line"/>
      <point x="1044" y="726"/>
      <point x="1258" y="644"/>
      <point x="1366" y="484"/>
      <point x="1366" y="366" type="qcurve" smooth="yes"/>
      <point x="1366" y="190"/>
      <point x="1116" y="0"/>
      <point x="860" y="0" type="qcurve" smooth="yes"/>
    </contour>
    <contour>
      <point x="306" y="38" type="line"/>
      <point x="868" y="38" type="line" smooth="yes"/>
      <point x="1092" y="38"/>
      <point x="1326" y="196"/>
      <point x="1326" y="366" type="qcurve" smooth="yes"/>
      <point x="1326" y="536"/>
      <point x="1092" y="692"/>
      <point x="868" y="692" type="qcurve" smooth="yes"/>
      <point x="296" y="692" type="line"/>
      <point x="296" y="730" type="line"/>
      <point x="828" y="730" type="line" smooth="yes"/>
      <point x="1028" y="730"/>
      <point x="1250" y="890"/>
      <point x="1250" y="1046" type="qcurve" smooth="yes"/>
      <point x="1250" y="1202"/>
      <point x="1028" y="1362"/>
      <point x="828" y="1362" type="qcurve" smooth="yes"/>
      <point x="306" y="1362" type="line"/>
    </contour>
  </outline>
</glyph>
<glyph name="Gamma" format="2">
  <advance width="561"/>
  <unicode hex="0393"/>
  <anchor x="309" y="700" name="t.uni0308"/>
  <outline>
    <contour>
      <point x="137" y="0" type="line"/>
      <point x="137" y="700" type="line"/>
      <point x="553" y="700" type="line"/>
      <point x="553" y="681" type="line"/>
      <point x="148" y="681" type="line"/>
      <point x="157" y="690" type="line"/>
      <point x="157" y="0" type="line"/>
    </contour>
  </outline>
</glyph>
<glyph name="Delta" format="2">
  <advance width="687"/>
  <unicode hex="0394"/>
  <outline>
    <contour>
      <point x="10" y="0" type="line"/>
      <point x="34" y="0" type="line"/>
      <point x="341" y="677" type="line"/>
      <point x="654" y="0" type="line"/>
      <point x="677" y="0" type="line"/>
      <point x="352" y="700" type="line"/>
      <point x="330" y="700" type="line"/>
    </contour>
    <contour>
      <point x="25" y="0" type="line"/>
      <point x="661" y="0" type="line"/>
      <point x="661" y="20" type="line"/>
      <point x="25" y="20" type="line"/>
    </contour>
  </outline>
</glyph>
<glyph name="Epsilon" format="2">
  <advance width="668"/>
  <unicode hex="0395"/>
  <anchor x="335" y="700" name="t.uni0308"/>
  <anchor x="327" y="0" name="b.uni0324_3"/>
  <anchor x="656" y="0" name="m.uni0328_4"/>
  <outline>
    <contour>
      <point x="148" y="365" type="line"/>
      <point x="539" y="365" type="line"/>
      <point x="539" y="346" type="line"/>
      <point x="148" y="346" type="line"/>
    </contour>
    <contour>
      <point x="153" y="19" type="line"/>
      <point x="599" y="19" type="line"/>
      <point x="599" y="0" type="line"/>
      <point x="133" y="0" type="line"/>
      <point x="133" y="700" type="line"/>
      <point x="584" y="700" type="line"/>
      <point x="584" y="681" type="line"/>
      <point x="153" y="681" type="line"/>
    </contour>
  </outline>
</glyph>
<glyph name="Eta" format="2">
  <advance width="1632"/>
  <unicode hex="0397"/>
  <anchor x="798" y="1400" name="t.uni0308"/>
  <anchor x="798" y="1188" name="t.uni0307_1"/>
  <anchor x="798" y="0" name="b.uni0324_3"/>
  <outline>
    <contour>
      <point x="1326" y="1400" type="line"/>
      <point x="1366" y="1400" type="line"/>
      <point x="1366" y="0" type="line"/>
      <point x="1326" y="0" type="line"/>
    </contour>
    <contour>
      <point x="306" y="0" type="line"/>
      <point x="266" y="0" type="line"/>
      <point x="266" y="1400" type="line"/>
      <point x="306" y="1400" type="line"/>
    </contour>
    <contour>
      <point x="1336" y="692" type="line"/>
      <point x="296" y="692" type="line"/>
      <point x="296" y="730" type="line"/>
      <point x="1336" y="730" type="line"/>
    </contour>
  </outline>
</glyph>
<glyph name="Kappa" format="2">
  <advance width="693"/>
  <unicode hex="039A"/>
  <anchor x="390" y="700" name="t.uni0308"/>
  <anchor x="390" y="0" name="b.uni0324_3"/>
  <outline>
    <contour>
      <point x="149" y="182" type="line"/>
      <point x="149" y="209" type="line"/>
      <point x="627" y="700" type="line"/>
      <point x="654" y="700" type="line"/>
      <point x="340" y="377" type="line"/>
      <point x="328" y="366" type="line"/>
    </contour>
    <contour>
      <point x="133" y="0" type="line"/>
      <point x="133" y="700" type="line"/>
      <point x="153" y="700" type="line"/>
      <point x="153" y="0" type="line"/>
    </contour>
    <contour>
      <point x="650" y="0" type="line"/>
      <point x="317" y="377" type="line"/>
      <point x="332" y="390" type="line"/>
      <point x="677" y="0" type="line"/>
    </contour>
  </outline>
</glyph>
<glyph name="Lambda" format="2">
  <advance width="1376"/>
  <unicode hex="039B"/>
  <anchor x="858" y="1400" name="t.uni0308"/>
  <anchor x="858" y="0" name="b.uni0324_3"/>
  <anchor x="1778" y="0" name="m.uni0328_4"/>
  <outline>
    <contour>
      <point x="18" y="0" type="line"/>
      <point x="668" y="1400" type="line"/>
      <point x="708" y="1400" type="line"/>
      <point x="1358" y="0" type="line"/>
      <point x="1312" y="0" type="line"/>
      <point x="678" y="1368" type="line"/>
      <point x="698" y="1368" type="line"/>
      <point x="64" y="0" type="line"/>
    </contour>
  </outline>
</glyph>
<glyph name="Mu" format="2">
  <advance width="956"/>
  <unicode hex="039C"/>
  <anchor x="475" y="700" name="t.uni0308"/>
  <anchor x="475" y="0" name="b.uni0324_3"/>
  <outline>
    <contour>
      <point x="133" y="0" type="line"/>
      <point x="133" y="700" type="line"/>
      <point x="150" y="700" type="line"/>
      <point x="483" y="118" type="line"/>
      <point x="474" y="118" type="line"/>
      <point x="806" y="700" type="line"/>
      <point x="823" y="700" type="line"/>
      <point x="823" y="0" type="line"/>
      <point x="803" y="0" type="line"/>
      <point x="803" y="671" type="line"/>
      <point x="811" y="671" type="line"/>
      <point x="484" y="99" type="line"/>
      <point x="472" y="99" type="line"/>
      <point x="144" y="671" type="line"/>
      <point x="153" y="671" type="line"/>
      <point x="153" y="0" type="line"/>
    </contour>
  </outline>
</glyph>
<glyph name="Nu" format="2">
  <advance width="816"/>
  <unicode hex="039D"/>
  <anchor x="399" y="700" name="t.uni0308"/>
  <anchor x="399" y="0" name="b.uni0324_3"/>
  <outline>
    <contour>
      <point x="133" y="0" type="line"/>
      <point x="133" y="700" type="line"/>
      <point x="150" y="700" type="line"/>
      <point x="674" y="23" type="line"/>
      <point x="663" y="23" type="line"/>
      <point x="663" y="700" type="line"/>
      <point x="683" y="700" type="line"/>
      <point x="683" y="0" type="line"/>
      <point x="666" y="0" type="line"/>
      <point x="142" y="677" type="line"/>
      <point x="153" y="677" type="line"/>
      <point x="153" y="0" type="line"/>
    </contour>
  </outline>
</glyph>
<glyph name="Xi" format="2">
  <advance width="732"/>
  <unicode hex="039E"/>
  <anchor x="411" y="700" name="t.uni0308"/>
  <anchor x="406" y="0" name="b.uni0324_3"/>
  <outline>
    <contour>
      <point x="192" y="346" type="line"/>
      <point x="192" y="365" type="line"/>
      <point x="539" y="365" type="line"/>
      <point x="539" y="346" type="line"/>
    </contour>
    <contour>
      <point x="133" y="0" type="line"/>
      <point x="133" y="19" type="line"/>
      <point x="599" y="19" type="line"/>
      <point x="599" y="0" type="line"/>
    </contour>
    <contour>
      <point x="133" y="680" type="line"/>
      <point x="133" y="700" type="line"/>
      <point x="585" y="700" type="line"/>
      <point x="585" y="680" type="line"/>
    </contour>
  </outline>
</glyph>
<glyph name="Omicron" format="2">
  <advance width="836"/>
  <unicode hex="039F"/>
  <anchor x="427" y="700" name="t.uni0308"/>
  <anchor x="427" y="350" name="t.uni0307_1"/>
  <anchor x="556" y="700" name="t.uni031B_2"/>
  <anchor x="427" y="0" name="b.uni0324_3"/>
  <anchor x="581" y="0" name="m.uni0328_4"/>
  <outline>
    <contour>
      <point x="418" y="-3" type="qcurve" smooth="yes"/>
      <point x="341" y="-3"/>
      <point x="210" y="50"/>
      <point x="113" y="146"/>
      <point x="59" y="274"/>
      <point x="59" y="350" type="qcurve" smooth="yes"/>
      <point x="59" y="426"/>
      <point x="113" y="554"/>
      <point x="210" y="650"/>
      <point x="341" y="703"/>
      <point x="418" y="703" type="qcurve" smooth="yes"/>
      <point x="495" y="703"/>
      <point x="626" y="650"/>
      <point x="723" y="554"/>
      <point x="777" y="426"/>
      <point x="777" y="350" type="qcurve" smooth="yes"/>
      <point x="777" y="274"/>
      <point x="723" y="146"/>
      <point x="626" y="50"/>
      <point x="495" y="-3"/>
    </contour>
    <contour>
      <point x="418" y="16" type="qcurve" smooth="yes"/>
      <point x="490" y="16"/>
      <point x="614" y="66"/>
      <point x="706" y="157"/>
      <point x="757" y="278"/>
      <point x="757" y="350" type="qcurve" smooth="yes"/>
      <point x="757" y="422"/>
      <point x="706" y="543"/>
      <point x="614" y="634"/>
      <point x="490" y="684"/>
      <point x="418" y="684" type="qcurve" smooth="yes"/>
      <point x="346" y="684"/>
      <point x="222" y="634"/>
      <point x="130" y="543"/>
      <point x="79" y="422"/>
      <point x="79" y="350" type="qcurve" smooth="yes"/>
      <point x="79" y="278"/>
      <point x="130" y="157"/>
      <point x="222" y="66"/>
      <point x="346" y="16"/>
    </contour>
  </outline>
</glyph>
<glyph name="Rho" format="2">
  <advance width="1420"/>
  <unicode hex="03A1"/>
  <outline>
    <contour>
      <point x="266" y="0" type="line"/>
      <point x="266" y="1400" type="line"/>
      <point x="740" y="1400" type="line" smooth="yes"/>
      <point x="912" y="1400"/>
      <point x="1158" y="1290"/>
      <point x="1290" y="1086"/>
      <point x="1290" y="940" type="qcurve" smooth="yes"/>
      <point x="1290" y="796"/>
      <point x="1158" y="590"/>
      <point x="912" y="480"/>
      <point x="740" y="480" type="qcurve" smooth="yes"/>
      <point x="288" y="480" type="line"/>
      <point x="306" y="498" type="line"/>
      <point x="306" y="0" type="line"/>
    </contour>
    <contour>
      <point x="306" y="502" type="line"/>
      <point x="288" y="518" type="line"/>
      <point x="744" y="518" type="line" smooth="yes"/>
      <point x="990" y="518"/>
      <point x="1250" y="740"/>
      <point x="1250" y="940" type="qcurve" smooth="yes"/>
      <point x="1250" y="1142"/>
      <point x="990" y="1362"/>
      <point x="744" y="1362" type="qcurve" smooth="yes"/>
      <point x="288" y="1362" type="line"/>
      <point x="306" y="1378" type="line"/>
    </contour>
  </outline>
</glyph>
<glyph name="Sigma" format="2">
  <advance width="696"/>
  <unicode hex="03A3"/>
  <anchor x="489" y="700" name="t.uni0308"/>
  <anchor x="489" y="0" name="b.uni0324_3"/>
  <outline>
    <contour>
      <point x="636" y="-1" type="line"/>
      <point x="60" y="-1" type="line"/>
      <point x="60" y="16" type="line"/>
      <point x="409" y="355" type="line"/>
      <point x="409" y="346" type="line"/>
      <point x="60" y="684" type="line"/>
      <point x="60" y="701" type="line"/>
      <point x="636" y="701" type="line"/>
      <point x="636" y="681" type="line"/>
      <point x="89" y="681" type="line"/>
      <point x="89" y="689" type="line"/>
      <point x="428" y="356" type="line"/>
      <point x="428" y="344" type="line"/>
      <point x="89" y="10" type="line"/>
      <point x="89" y="19" type="line"/>
      <point x="636" y="19" type="line"/>
    </contour>
  </outline>
</glyph>
<glyph name="Tau" format="2">
  <advance width="1096"/>
  <unicode hex="03A4"/>
  <anchor x="700" y="1400" name="t.uni0308"/>
  <anchor x="700" y="590" name="t.uni0307_1"/>
  <anchor x="700" y="0" name="b.uni0324_3"/>
  <outline>
    <contour>
      <point x="528" y="0" type="line"/>
      <point x="528" y="1362" type="line"/>
      <point x="8" y="1362" type="line"/>
      <point x="8" y="1400" type="line"/>
      <point x="1088" y="1400" type="line"/>
      <point x="1088" y="1362" type="line"/>
      <point x="568" y="1362" type="line"/>
      <point x="568" y="0" type="line"/>
    </contour>
  </outline>
</glyph>
<glyph name="Upsilon" format="2">
  <advance width="610"/>
  <unicode hex="03A5"/>
  <anchor x="377" y="700" name="t.uni0308"/>
  <anchor x="368" y="277" name="t.uni0307_1"/>
  <anchor x="377" y="0" name="b.uni0324_3"/>
  <outline>
    <contour>
      <point x="295" y="0" type="line"/>
      <point x="295" y="245" type="line"/>
      <point x="300" y="230" type="line"/>
      <point x="10" y="700" type="line"/>
      <point x="33" y="700" type="line"/>
      <point x="309" y="253" type="line"/>
      <point x="301" y="253" type="line"/>
      <point x="577" y="700" type="line"/>
      <point x="600" y="700" type="line"/>
      <point x="310" y="230" type="line"/>
      <point x="315" y="245" type="line"/>
      <point x="315" y="0" type="line"/>
    </contour>
  </outline>
</glyph>
<glyph name="Phi" format="2">
  <advance width="1596"/>
  <unicode hex="03A6"/>
  <outline>
    <contour>
      <point x="788" y="100" type="qcurve"/>
      <point x="552" y="100"/>
      <point x="208" y="242"/>
      <point x="20" y="512"/>
      <point x="20" y="700" type="qcurve" smooth="yes"/>
      <point x="20" y="890"/>
      <point x="208" y="1158"/>
      <point x="552" y="1300"/>
      <point x="788" y="1300" type="qcurve"/>
      <point x="790" y="1300"/>
      <point x="792" y="1300"/>
      <point x="796" y="1300"/>
      <point x="798" y="1300" type="qcurve"/>
      <point x="1038" y="1300"/>
      <point x="1386" y="1158"/>
      <point x="1576" y="890"/>
      <point x="1576" y="700" type="qcurve" smooth="yes"/>
      <point x="1576" y="510"/>
      <point x="1386" y="242"/>
      <point x="1038" y="100"/>
      <point x="798" y="100" type="qcurve"/>
      <point x="796" y="100"/>
      <point x="792" y="100"/>
      <point x="790" y="100"/>
    </contour>
    <contour>
      <point x="798" y="138" type="qcurve"/>
      <point x="800" y="138"/>
      <point x="802" y="138"/>
      <point x="802" y="138" type="qcurve"/>
      <point x="1028" y="140"/>
      <point x="1358" y="272"/>
      <point x="1536" y="524"/>
      <point x="1536" y="700" type="qcurve" smooth="yes"/>
      <point x="1536" y="878"/>
      <point x="1358" y="1128"/>
      <point x="1030" y="1262"/>
      <point x="804" y="1262" type="qcurve"/>
      <point x="802" y="1262"/>
      <point x="800" y="1262"/>
      <point x="798" y="1262" type="qcurve"/>
      <point x="572" y="1262"/>
      <point x="240" y="1130"/>
      <point x="60" y="880"/>
      <point x="60" y="700" type="qcurve" smooth="yes"/>
      <point x="60" y="522"/>
      <point x="240" y="270"/>
      <point x="572" y="138"/>
    </contour>
    <contour>
      <point x="778" y="-40" type="line"/>
      <point x="778" y="1440" type="line"/>
      <point x="818" y="1440" type="line"/>
      <point x="818" y="-40" type="line"/>
    </contour>
  </outline>
</glyph>
<glyph name="Chi" format="2">
  <advance width="1242"/>
  <unicode hex="03A7"/>
  <outline>
    <contour>
      <point x="50" y="0" type="line"/>
      <point x="608" y="740" type="line"/>
      <point x="608" y="708" type="line"/>
      <point x="90" y="1400" type="line"/>
      <point x="140" y="1400" type="line"/>
      <point x="628" y="746" type="line"/>
      <point x="616" y="746" type="line"/>
      <point x="1104" y="1400" type="line"/>
      <point x="1152" y="1400" type="line"/>
      <point x="640" y="716" type="line"/>
      <point x="640" y="732" type="line"/>
      <point x="1192" y="0" type="line"/>
      <point x="1142" y="0" type="line"/>
      <point x="614" y="702" type="line"/>
      <point x="626" y="702" type="line"/>
      <point x="98" y="0" type="line"/>
    </contour>
  </outline>
</glyph>
